<svg width="208" height="70" viewBox="0 0 208 70" fill="none" xmlns="http://www.w3.org/2000/svg">
<path d="M7.89485 13.9826L200.016 5.18298C205.047 4.95254 208.945 8.49012 207.772 12.2278L192.685 60.4042C191.857 63.0504 188.699 64.8863 185.131 64.7977L18.5279 60.6346C15.1093 60.5485 12.1997 58.7152 11.4451 56.1728L1.01214 20.959C-0.00330287 17.5151 3.27092 14.1953 7.89485 13.9826Z" fill="#F27B29"/>
<path opacity="0.28" d="M9.54114 10.4552L23.775 64.6609C24.5246 67.5123 28.0115 69.4925 31.891 69.2671L181.685 60.6068C185.309 60.3966 188.238 58.3176 188.699 55.6258L194.6 21.1844C195.152 17.9583 192.001 15.0386 187.664 14.7549L17.7381 3.64841C12.6508 3.31668 8.55862 6.71499 9.54114 10.4552Z" fill="#4A980D"/>
<path d="M6.28137 7.47973L20.5153 61.6855C21.2648 64.5369 24.7518 66.5171 28.6312 66.2917L178.425 57.6314C182.049 57.4212 184.979 55.3422 185.44 52.6504L191.34 18.209C191.892 14.9828 188.742 12.0631 184.404 11.7795L14.4783 0.672984C9.391 0.343789 5.29885 3.7421 6.28137 7.47973Z" fill="#90C100"/>
</svg>
