<svg width="44" height="49" viewBox="0 0 44 49" fill="none" xmlns="http://www.w3.org/2000/svg">
<path d="M11.3549 0.790283H22V24.5H11.3549V0.790283Z" fill="#C49A6C"/>
<path d="M0.709717 0.790283H11.3549V24.5H0.709717V0.790283Z" fill="#754C29"/>
<path d="M22 12.6451H43.2903V24.5H22V12.6451Z" fill="#C49A6C"/>
<path d="M22 0.790283H43.2903V12.6451H22V0.790283Z" fill="#754C29"/>
<path d="M22 24.5H32.6452V48.2097H22V24.5Z" fill="#C49A6C"/>
<path d="M32.6451 24.5H43.2903V48.2097H32.6451V24.5Z" fill="#754C29"/>
<path d="M0.709717 24.5H22V36.3548H0.709717V24.5Z" fill="#754C29"/>
<path d="M0.709717 36.3549H22V48.2097H0.709717V36.3549Z" fill="#C49A6C"/>
<path d="M14.1936 4.7419C14.5855 4.7419 14.9032 4.38806 14.9032 3.95158C14.9032 3.51509 14.5855 3.16125 14.1936 3.16125C13.8016 3.16125 13.4839 3.51509 13.4839 3.95158C13.4839 4.38806 13.8016 4.7419 14.1936 4.7419Z" fill="black"/>
<path d="M19.1613 4.7419C19.5533 4.7419 19.871 4.38806 19.871 3.95158C19.871 3.51509 19.5533 3.16125 19.1613 3.16125C18.7694 3.16125 18.4517 3.51509 18.4517 3.95158C18.4517 4.38806 18.7694 4.7419 19.1613 4.7419Z" fill="black"/>
<path d="M43.2903 0H0.709677C0.521459 0 0.34095 0.0832659 0.20786 0.23148C0.0747693 0.379694 0 0.580716 0 0.790323V48.2097C0 48.4193 0.0747693 48.6203 0.20786 48.7685C0.34095 48.9167 0.521459 49 0.709677 49H43.2903C43.4785 49 43.659 48.9167 43.7921 48.7685C43.9252 48.6203 44 48.4193 44 48.2097V0.790323C44 0.580716 43.9252 0.379694 43.7921 0.23148C43.659 0.0832659 43.4785 0 43.2903 0ZM22.7097 23.7097V13.4355H42.5806V23.7097H22.7097ZM21.2903 35.5645H1.41935V25.2903H21.2903V35.5645ZM42.5806 11.8548H22.7097V1.58065H42.5806V11.8548ZM21.2903 1.58065V23.7097H12.0645V1.58065H21.2903ZM1.41935 1.58065H10.6452V23.7097H1.41935V1.58065ZM1.41935 37.1452H21.2903V47.4194H1.41935V37.1452ZM22.7097 47.4194V25.2903H31.9355V47.4194H22.7097ZM42.5806 47.4194H33.3548V25.2903H42.5806V47.4194Z" fill="black"/>
<path d="M40.4516 4.7419C40.8436 4.7419 41.1613 4.38806 41.1613 3.95158C41.1613 3.51509 40.8436 3.16125 40.4516 3.16125C40.0597 3.16125 39.7419 3.51509 39.7419 3.95158C39.7419 4.38806 40.0597 4.7419 40.4516 4.7419Z" fill="black"/>
<path d="M40.4516 10.2742C40.8436 10.2742 41.1613 9.92041 41.1613 9.48393C41.1613 9.04744 40.8436 8.6936 40.4516 8.6936C40.0597 8.6936 39.7419 9.04744 39.7419 9.48393C39.7419 9.92041 40.0597 10.2742 40.4516 10.2742Z" fill="black"/>
<path d="M40.4516 16.5968C40.8436 16.5968 41.1613 16.2429 41.1613 15.8064C41.1613 15.37 40.8436 15.0161 40.4516 15.0161C40.0597 15.0161 39.7419 15.37 39.7419 15.8064C39.7419 16.2429 40.0597 16.5968 40.4516 16.5968Z" fill="black"/>
<path d="M40.4516 22.129C40.8436 22.129 41.1613 21.7751 41.1613 21.3387C41.1613 20.9022 40.8436 20.5483 40.4516 20.5483C40.0597 20.5483 39.7419 20.9022 39.7419 21.3387C39.7419 21.7751 40.0597 22.129 40.4516 22.129Z" fill="black"/>
<path d="M19.1613 20.5484C19.3496 20.5484 19.5301 20.4651 19.6632 20.3169C19.7962 20.1687 19.871 19.9677 19.871 19.7581V10.2742C19.871 10.0646 19.7962 9.86358 19.6632 9.71537C19.5301 9.56715 19.3496 9.48389 19.1613 9.48389C18.9731 9.48389 18.7926 9.56715 18.6595 9.71537C18.5264 9.86358 18.4517 10.0646 18.4517 10.2742V19.7581C18.4517 19.9677 18.5264 20.1687 18.6595 20.3169C18.7926 20.4651 18.9731 20.5484 19.1613 20.5484Z" fill="black"/>
<path d="M24.8387 4.7419H30.5161C30.7043 4.7419 30.8849 4.65863 31.0179 4.51042C31.151 4.36221 31.2258 4.16118 31.2258 3.95158C31.2258 3.74197 31.151 3.54095 31.0179 3.39274C30.8849 3.24452 30.7043 3.16125 30.5161 3.16125H24.8387C24.6505 3.16125 24.47 3.24452 24.3369 3.39274C24.2038 3.54095 24.129 3.74197 24.129 3.95158C24.129 4.16118 24.2038 4.36221 24.3369 4.51042C24.47 4.65863 24.6505 4.7419 24.8387 4.7419Z" fill="black"/>
<path d="M40.4516 45.8387C40.8436 45.8387 41.1613 45.4849 41.1613 45.0484C41.1613 44.6119 40.8436 44.2581 40.4516 44.2581C40.0597 44.2581 39.7419 44.6119 39.7419 45.0484C39.7419 45.4849 40.0597 45.8387 40.4516 45.8387Z" fill="black"/>
<path d="M35.4838 45.8387C35.8758 45.8387 36.1935 45.4849 36.1935 45.0484C36.1935 44.6119 35.8758 44.2581 35.4838 44.2581C35.0919 44.2581 34.7742 44.6119 34.7742 45.0484C34.7742 45.4849 35.0919 45.8387 35.4838 45.8387Z" fill="black"/>
<path d="M29.8065 45.8387C30.1984 45.8387 30.5162 45.4849 30.5162 45.0484C30.5162 44.6119 30.1984 44.2581 29.8065 44.2581C29.4145 44.2581 29.0968 44.6119 29.0968 45.0484C29.0968 45.4849 29.4145 45.8387 29.8065 45.8387Z" fill="black"/>
<path d="M24.8387 45.8387C25.2306 45.8387 25.5484 45.4849 25.5484 45.0484C25.5484 44.6119 25.2306 44.2581 24.8387 44.2581C24.4468 44.2581 24.129 44.6119 24.129 45.0484C24.129 45.4849 24.4468 45.8387 24.8387 45.8387Z" fill="black"/>
<path d="M24.8387 28.4517C24.6505 28.4517 24.47 28.5349 24.3369 28.6831C24.2038 28.8314 24.129 29.0324 24.129 29.242V38.7259C24.129 38.9355 24.2038 39.1365 24.3369 39.2847C24.47 39.4329 24.6505 39.5162 24.8387 39.5162C25.0269 39.5162 25.2074 39.4329 25.3405 39.2847C25.4736 39.1365 25.5484 38.9355 25.5484 38.7259V29.242C25.5484 29.0324 25.4736 28.8314 25.3405 28.6831C25.2074 28.5349 25.0269 28.4517 24.8387 28.4517Z" fill="black"/>
<path d="M19.1613 44.2581H13.4838C13.2956 44.2581 13.1151 44.3413 12.982 44.4895C12.8489 44.6378 12.7742 44.8388 12.7742 45.0484C12.7742 45.258 12.8489 45.459 12.982 45.6072C13.1151 45.7554 13.2956 45.8387 13.4838 45.8387H19.1613C19.3495 45.8387 19.53 45.7554 19.6631 45.6072C19.7962 45.459 19.8709 45.258 19.8709 45.0484C19.8709 44.8388 19.7962 44.6378 19.6631 44.4895C19.53 44.3413 19.3495 44.2581 19.1613 44.2581Z" fill="black"/>
</svg>
