<svg width="23" height="22" viewBox="0 0 23 22" fill="none" xmlns="http://www.w3.org/2000/svg">
<g opacity="0.3">
<path opacity="0.3" d="M8.46112 8.69238H3.81555V21.6195H8.46112V8.69238Z" fill="#555253"/>
<path opacity="0.3" d="M10.8569 8.69224H14.4419V10.4882C14.4419 10.4882 14.9928 8.67773 18.3083 8.67773C21.0437 8.67773 23 9.73888 23 12.654C23 14.2663 23 21.6193 23 21.6193H19.1724C19.1724 21.6193 19.1942 14.0777 19.2137 13.8457C19.2331 13.6136 19.0025 11.7113 17.0511 11.7113C15.0996 11.7113 14.4855 13.106 14.4855 14.1623C14.4855 15.2186 14.4855 21.6193 14.4855 21.6193H10.8594V8.69224H10.8569Z" fill="#555253"/>
<path opacity="0.3" d="M7.78039 6.2451C8.68746 5.34171 8.68747 3.87703 7.78039 2.97364C6.87331 2.07026 5.40264 2.07026 4.49556 2.97365C3.58848 3.87703 3.58848 5.34172 4.49556 6.2451C5.40264 7.14849 6.87331 7.14849 7.78039 6.2451Z" fill="#555253"/>
</g>
<path d="M5.97348 7.45703H1.32788V20.3841H5.97348V7.45703Z" fill="white"/>
<path d="M8.36902 7.45493H11.9539V9.2509C11.9539 9.2509 12.5049 7.44043 15.8204 7.44043C18.5559 7.44043 20.5121 8.50157 20.5121 11.4167C20.5121 13.0289 20.5121 20.382 20.5121 20.382H16.6845C16.6845 20.382 16.7063 12.8404 16.7258 12.6084C16.7476 12.3763 16.5146 10.474 14.5632 10.474C12.6117 10.474 11.9976 11.8687 11.9976 12.925C11.9976 13.9813 11.9976 20.382 11.9976 20.382H8.37145V7.45493H8.36902Z" fill="white"/>
<path d="M5.29163 5.00585C6.19871 4.10246 6.19871 2.63777 5.29163 1.73438C4.38455 0.830991 2.91388 0.830992 2.0068 1.73438C1.09972 2.63777 1.09972 4.10246 2.0068 5.00585C2.91388 5.90924 4.38455 5.90924 5.29163 5.00585Z" fill="white"/>
</svg>
