<svg width="17" height="15" viewBox="0 0 17 15" fill="none" xmlns="http://www.w3.org/2000/svg">
<g opacity="0.3">
<path opacity="0.3" d="M6.13337 5.90881H2.93921V14.7971H6.13337V5.90881Z" fill="#555253"/>
<path opacity="0.3" d="M7.78101 5.90878H10.2459V7.14363C10.2459 7.14363 10.6247 5.8988 12.9044 5.8988C14.7852 5.8988 16.1303 6.62842 16.1303 8.63277C16.1303 9.74131 16.1303 14.7971 16.1303 14.7971H13.4985C13.4985 14.7971 13.5135 9.61168 13.5269 9.45213C13.5402 9.29258 13.3817 7.98459 12.0399 7.98459C10.6982 7.98459 10.2759 8.94356 10.2759 9.66985C10.2759 10.3961 10.2759 14.7971 10.2759 14.7971H7.78268V5.90878H7.78101Z" fill="#555253"/>
<path opacity="0.3" d="M5.66546 4.22617C6.28915 3.60503 6.28915 2.59797 5.66546 1.97683C5.04177 1.3557 4.03057 1.3557 3.40688 1.97683C2.78319 2.59797 2.78319 3.60503 3.40688 4.22617C4.03057 4.8473 5.04177 4.8473 5.66546 4.22617Z" fill="#555253"/>
</g>
<path d="M4.42294 5.05945H1.22876V13.9477H4.42294V5.05945Z" fill="#969696" fill-opacity="0.83"/>
<path d="M6.07007 5.05795H8.53496V6.2928C8.53496 6.2928 8.9138 5.04797 11.1935 5.04797C13.0743 5.04797 14.4193 5.77758 14.4193 7.78194C14.4193 8.89048 14.4193 13.9462 14.4193 13.9462H11.7876C11.7876 13.9462 11.8026 8.76085 11.8159 8.6013C11.831 8.44175 11.6707 7.13376 10.329 7.13376C8.98722 7.13376 8.56501 8.09273 8.56501 8.81902C8.56501 9.5453 8.56501 13.9462 8.56501 13.9462H6.07174V5.05795H6.07007Z" fill="#969696" fill-opacity="0.83"/>
<path d="M3.95422 3.37408C4.5779 2.75293 4.5779 1.74585 3.95422 1.1247C3.33054 0.503544 2.31936 0.503545 1.69568 1.1247C1.072 1.74585 1.072 2.75293 1.69568 3.37408C2.31936 3.99523 3.33054 3.99523 3.95422 3.37408Z" fill="#969696" fill-opacity="0.83"/>
</svg>
