<svg width="13" height="13" viewBox="0 0 13 13" fill="none" xmlns="http://www.w3.org/2000/svg">
<g clip-path="url(#clip0)">
<path d="M2.11734 9.45078H2.5349V9.86833H2.11734V9.45078Z" fill="#969696"/>
<path d="M1.28232 9.45078H1.69988V9.86833H1.28232V9.45078Z" fill="#969696"/>
<path d="M6.29297 10.0771H6.71053V10.4947H6.29297V10.0771Z" fill="#969696"/>
<path d="M7.33682 10.0771H7.75438V10.4947H7.33682V10.0771Z" fill="#969696"/>
<path d="M8.38071 10.0771H8.79826V10.4947H8.38071V10.0771Z" fill="#969696"/>
<path d="M12.9739 4.23133H12.3476V2.14355H12.7651V1.62384L10.6773 0L8.58955 1.62384V2.14355H9.0071V4.23133H8.38077V6.31912H8.79832V7.15423H5.4122L5.20363 6.31912H1.1193L0.910722 7.15423H0.0296326V8.4069H0.447189V11.3298H0.0296326V13H12.5563V6.31912H12.9739V4.23133ZM10.6773 0.529082L12.2163 1.72599H9.13851L10.6773 0.529082ZM9.42466 2.14355H11.93V4.23133H9.42466V2.14355ZM12.5563 4.64889V5.06645H8.79832V4.64889H12.5563ZM8.87814 7.57179L9.08692 7.98935H6.29298V7.57179H8.87814ZM6.29298 8.4069H9.63344V8.82446H5.87543V8.4069H6.29298ZM1.69986 11.7474V12.5825H1.2823V11.7474H1.69986ZM2.11742 11.7474H2.53497V12.5825H2.11742V11.7474ZM4.62276 10.0771H3.37009V9.24202H4.62276V10.0771ZM3.37009 10.4947H4.62276V11.3298H3.37009V10.4947ZM2.95253 11.7474H7.1281V12.5825H2.95253V11.7474ZM7.54565 11.7474H7.96321V12.5825H7.54565V11.7474ZM8.38077 11.7474H8.79832V12.5825H8.38077V11.7474ZM5.87543 11.3298V9.24202H9.21588V11.3298H5.87543ZM1.44541 6.73667H4.87731L4.9819 7.15423H1.34102L1.44541 6.73667ZM0.447189 7.57179H5.87543V7.98935H0.447189V7.57179ZM0.864746 8.4069H5.45787V11.3298H5.04031V8.82446H2.95253V11.3298H0.864746V8.4069ZM0.447189 11.7474H0.864746V12.5825H0.447189V11.7474ZM9.63344 12.5825H9.21588V11.7474H9.63344V12.5825ZM12.1388 12.5825H10.051V11.3298H9.63344V9.24202H10.051V8.82446H10.4685V8.4069H10.051V7.98935H9.55372L9.21588 7.31367V6.31912H12.1388V12.5825ZM8.79832 5.90156V5.484H12.5563V5.90156H8.79832Z" fill="#969696"/>
<path d="M10.051 2.5611V3.81377H11.3036V2.5611H10.051ZM10.8861 3.39621H10.4685V2.97865H10.8861V3.39621Z" fill="#969696"/>
<path d="M10.051 6.73666H10.4685V7.15422H10.051V6.73666Z" fill="#969696"/>
<path d="M10.8861 6.73666H11.3037V7.15422H10.8861V6.73666Z" fill="#969696"/>
<path d="M10.8861 7.57178H11.3037V7.98933H10.8861V7.57178Z" fill="#969696"/>
<path d="M10.8861 8.40689H11.3037V8.82445H10.8861V8.40689Z" fill="#969696"/>
<path d="M10.051 9.242H10.4685V9.65956H10.051V9.242Z" fill="#969696"/>
<path d="M10.8861 9.242H11.3037V9.65956H10.8861V9.242Z" fill="#969696"/>
<path d="M10.051 7.57178H10.4685V7.98933H10.051V7.57178Z" fill="#969696"/>
</g>
<defs>
<clipPath id="clip0">
<rect width="13" height="13" fill="white"/>
</clipPath>
</defs>
</svg>
