<svg width="48" height="49" viewBox="0 0 48 49" fill="none" xmlns="http://www.w3.org/2000/svg">
<path d="M35.1999 6.01758L34.7999 18.0527L31.1999 25.7895C30.681 26.9059 29.8388 27.8109 28.7999 28.3685C27.761 28.926 26.9188 29.8311 26.3999 30.9474V32.6667H6.3999V13.7544L7.7069 11.413C8.04046 10.8163 8.51202 10.3225 9.07574 9.9796C9.63945 9.63671 10.2761 9.4564 10.9239 9.45617C11.5065 9.45623 12.081 9.3105 12.6021 9.03054C13.1232 8.75059 13.5764 8.34409 13.9259 7.84326C14.3216 7.27648 14.8347 6.81645 15.4244 6.49957C16.0142 6.1827 16.6645 6.01768 17.3239 6.01758H35.1999Z" fill="#8098AB"/>
<path d="M40 0.859619H24V18.0526H40V0.859619Z" fill="#D1E4FF"/>
<path d="M16.8 30.9474H0.800049V48.1404H16.8V30.9474Z" fill="#BDD1F2"/>
<path d="M16.8 13.7544H0.800049V30.9474H16.8V13.7544Z" fill="#D1E4FF"/>
<path d="M32.8 30.9474H16.8V48.1404H32.8V30.9474Z" fill="#D1E4FF"/>
<path d="M47.1999 12.8947V27.5087H35.9999V22.3508L30.9919 18.5071C30.7935 18.3552 30.635 18.1506 30.5319 17.9134C30.4289 17.6761 30.3847 17.4142 30.4037 17.1532C30.4228 16.8922 30.5043 16.6409 30.6405 16.4238C30.7767 16.2066 30.9629 16.0311 31.1809 15.9142C31.7092 15.6298 32.3147 15.5581 32.8879 15.7122L35.1999 16.3333L33.7779 9.45501C33.7238 9.19402 33.7578 8.92085 33.874 8.68439C33.9902 8.44794 34.1809 8.26364 34.412 8.16448C34.6431 8.06534 34.8995 8.05781 35.1353 8.14326C35.3711 8.2287 35.5709 8.40154 35.6989 8.63083L37.5999 12.035L36.8879 6.67618C36.8791 6.61323 36.8748 6.54964 36.8749 6.48598C36.875 6.31142 36.9072 6.1386 36.9695 5.97739C37.0317 5.81617 37.123 5.66972 37.2379 5.54639C37.3529 5.42306 37.4893 5.32527 37.6395 5.2586C37.7896 5.19193 37.9505 5.15769 38.1129 5.15784C38.4262 5.15804 38.7309 5.26784 38.9809 5.47062C39.231 5.67341 39.4128 5.95816 39.4989 6.28183L40.7999 11.1754V7.39831C40.8 7.04892 40.9233 6.71256 41.145 6.45698C41.3667 6.2014 41.6703 6.04558 41.9946 6.02092C42.319 5.99626 42.6399 6.10459 42.8929 6.32408C43.1459 6.54357 43.312 6.85792 43.3579 7.2038L43.9999 12.035L44.6109 9.40988C44.6649 9.17762 44.7896 8.97141 44.9652 8.82403C45.1408 8.67664 45.3571 8.59654 45.5799 8.59643C45.8112 8.59636 46.0353 8.68241 46.2142 8.83993C46.393 8.99745 46.5156 9.21671 46.5609 9.46038L47.1999 12.8947Z" fill="#FFC431"/>
<path d="M35.9999 22.3509L30.9919 18.5072C30.7935 18.3553 30.635 18.1507 30.5319 17.9135C30.4289 17.6762 30.3847 17.4144 30.4037 17.1533C30.4228 16.8923 30.5043 16.641 30.6405 16.4239C30.7767 16.2068 30.9629 16.0312 31.1809 15.9143C31.7092 15.6299 32.3147 15.5583 32.8879 15.7123L35.1999 16.3334L35.9999 22.3509Z" fill="#FFB401"/>
<path d="M45.5999 27.5088H38.3999V48.1404H45.5999V27.5088Z" fill="#FFCEB6"/>
<path d="M32.8 30.0877H27.9452C28.298 29.7013 28.7077 29.3802 29.1578 29.1372C30.3495 28.4936 31.3165 27.4545 31.9155 26.1739L33.5155 22.7353L32.0845 21.9663L30.4845 25.4049C30.0409 26.3533 29.3247 27.1228 28.4422 27.5995C27.4046 28.1601 26.534 29.0221 25.9294 30.0877H24.0246L24.2154 29.2677C24.359 28.6539 24.6357 28.0854 25.023 27.6087C25.4103 27.1319 25.8971 26.7604 26.4437 26.5246C27.1305 26.2286 27.7525 25.7821 28.2701 25.2137C28.7877 24.6453 29.1895 23.9674 29.45 23.2231L29.9491 21.793L28.4509 21.1894L27.9519 22.6195C27.7697 23.14 27.4887 23.6141 27.1267 24.0116C26.7648 24.409 26.3298 24.7212 25.8495 24.9283C25.068 25.2655 24.3718 25.7967 23.818 26.4784C23.2642 27.1601 22.8685 27.973 22.6631 28.8507L22.3754 30.0877H20.3544L21.6145 26.4768C21.8073 25.9259 22.1047 25.4242 22.4877 25.0036C22.8707 24.5829 23.331 24.2525 23.8393 24.0334C24.8837 23.5832 25.7523 22.7609 26.2995 21.7043L24.9005 20.8698C24.5324 21.5808 23.9479 22.1342 23.2452 22.4371C22.5303 22.7452 21.883 23.2098 21.3444 23.8013C20.8057 24.3929 20.3875 25.0984 20.1164 25.8731L18.6456 30.0877H17.6V27.6646L19.2146 23.0382C19.4073 22.4873 19.7047 21.9856 20.0877 21.565C20.4707 21.1443 20.931 20.8139 21.4393 20.5948C21.627 20.5142 21.8099 20.4211 21.9868 20.3162L21.2132 18.8112C21.0942 18.8817 20.9713 18.9443 20.8452 18.9985C20.1303 19.3066 19.483 19.7712 18.9444 20.3628C18.4057 20.9543 17.9875 21.6598 17.7164 22.4345L17.6 22.768V19.1725L18.1823 18.2338C18.6398 17.4952 19.3376 16.9669 20.1387 16.7523C20.5709 16.6362 20.9865 16.4576 21.3739 16.2212L20.5841 14.7261C20.3227 14.8854 20.0424 15.006 19.7508 15.0843C18.9471 15.2997 18.2072 15.7301 17.6 16.3354V14.2696C19.01 13.4192 20.2201 12.2334 21.1378 10.803L19.8196 9.82851C18.9944 11.1148 17.8912 12.167 16.6046 12.8947H14.5769C15.802 12.1798 16.8594 11.1743 17.6688 9.95454L16.3652 8.95763C15.6487 10.0376 14.6972 10.9129 13.5937 11.5072L11.0112 12.8947H7.81297L8.39312 11.8557C8.65644 11.3871 9.02764 10.9992 9.47095 10.7295C9.91426 10.4598 10.4147 10.3173 10.9242 10.3157C11.6305 10.3139 12.3268 10.1363 12.9586 9.79691C13.5904 9.45747 14.1404 8.9654 14.5655 8.35928C14.8876 7.9001 15.3043 7.52733 15.7829 7.27019C16.2615 7.01304 16.7891 6.87851 17.3242 6.87714H21.6V5.15784H17.3242C16.5408 5.15985 15.7684 5.35682 15.0677 5.73328C14.367 6.10975 13.757 6.6555 13.2854 7.32774C13.0098 7.72079 12.6531 8.03988 12.2434 8.25999C11.8338 8.48011 11.3822 8.59526 10.9242 8.59643C10.1386 8.59882 9.36684 8.81856 8.68324 9.23447C7.99963 9.65038 7.42722 10.2485 7.02114 10.9711L5.94705 12.8947H0.8C0.587827 12.8947 0.384345 12.9853 0.234317 13.1465C0.0842882 13.3077 2.12169e-06 13.5263 0 13.7543V48.1403C2.12169e-06 48.3683 0.0842882 48.5869 0.234317 48.7482C0.384345 48.9094 0.587827 48.9999 0.8 48.9999H32.8C33.0122 48.9999 33.2157 48.9094 33.3657 48.7482C33.5157 48.5869 33.6 48.3683 33.6 48.1403V30.9473C33.6 30.7193 33.5157 30.5007 33.3657 30.3394C33.2157 30.1782 33.0122 30.0877 32.8 30.0877ZM1.6 14.614H16V30.0877H1.6V14.614ZM1.6 31.807H16V47.2806H1.6V31.807ZM32 47.2806H17.6V31.807H32V47.2806Z" fill="black"/>
<path d="M47.3452 9.29139C47.2813 8.94868 47.1321 8.63098 46.9137 8.37203C46.6952 8.11309 46.4155 7.92259 46.1043 7.82076C45.7932 7.71894 45.4622 7.70959 45.1465 7.79372C44.8308 7.87785 44.5422 8.05232 44.3113 8.29857L44.1496 7.08172C44.0765 6.54872 43.8281 6.06152 43.4493 5.70854C43.0706 5.35556 42.5866 5.16019 42.0852 5.15789C41.6189 5.15764 41.1661 5.32627 40.7999 5.63657V0.859649C40.7999 0.631657 40.7157 0.413003 40.5656 0.251788C40.4156 0.090573 40.2121 2.27989e-06 40 0H24C23.7878 2.27989e-06 23.5843 0.090573 23.4343 0.251788C23.2842 0.413003 23.2 0.631657 23.2 0.859649V18.0526C23.2 18.2806 23.2842 18.4993 23.4343 18.6605C23.5843 18.8217 23.7878 18.9123 24 18.9123H30.2123C30.3081 19.0207 30.4134 19.1191 30.5265 19.2062L35.2 22.7933V27.5088C35.2 27.7368 35.2842 27.9554 35.4343 28.1166C35.5843 28.2778 35.7878 28.3684 36 28.3684H37.6V48.1404C37.6 48.3683 37.6842 48.587 37.8343 48.7482C37.9843 48.9094 38.1878 49 38.4 49H45.5999C45.8121 49 46.0156 48.9094 46.1656 48.7482C46.3157 48.587 46.3999 48.3683 46.4 48.1404V28.3684H47.1999C47.4121 28.3684 47.6156 28.2778 47.7656 28.1166C47.9157 27.9554 47.9999 27.7368 48 27.5088V12.8947C47.9999 12.8381 47.9947 12.7816 47.9844 12.7261L47.3452 9.29139ZM29.6025 17.193H24.8V1.7193H39.2V4.60487C38.8678 4.40452 38.4934 4.29895 38.1126 4.29825C37.8449 4.29746 37.5797 4.35374 37.3324 4.46381C37.0851 4.57389 36.8606 4.73558 36.6719 4.93952C36.4488 5.18032 36.2807 5.47338 36.1807 5.7957C36.0807 6.11803 36.0515 6.46087 36.0955 6.79734L36.2531 7.98292C35.9942 7.62919 35.6311 7.38046 35.2235 7.27748C34.8158 7.1745 34.3876 7.22339 34.0091 7.41612C33.6307 7.60885 33.3244 7.934 33.1404 8.33829C32.9564 8.74258 32.9057 9.20203 32.9965 9.64136L34.1382 15.162L33.0824 14.8783C32.3238 14.6749 31.5225 14.7695 30.823 15.1449C30.4659 15.3353 30.1637 15.6265 29.9487 15.9872C29.7337 16.348 29.614 16.7648 29.6025 17.193ZM31.2 17.2715C31.1996 17.1491 31.2311 17.0291 31.2909 16.9251C31.3508 16.821 31.4365 16.737 31.5385 16.6827C31.8964 16.4906 32.3063 16.4422 32.6944 16.5463L34.4841 17.0271L34.9436 20.4836L31.4566 17.8072C31.3773 17.7462 31.3127 17.6658 31.268 17.5727C31.2234 17.4795 31.2001 17.3763 31.2 17.2715ZM44.7999 47.2807H39.2V28.3684H44.7999V47.2807ZM46.4 26.6491H36.8V22.3509C36.7997 22.3102 36.7967 22.2696 36.7911 22.2294L36.7919 22.2293L35.9919 16.2117L35.9903 16.2119C35.9875 16.1903 35.9854 16.1685 35.9809 16.1469L34.5584 9.26831C34.5457 9.20652 34.5538 9.14188 34.5813 9.08593C34.6089 9.02999 34.654 8.9864 34.7088 8.96297C34.7635 8.93953 34.8242 8.93777 34.88 8.95801C34.9358 8.97825 34.983 9.01917 35.0133 9.07344L36.914 12.4774C37.009 12.6476 37.1559 12.7772 37.3297 12.8442C37.5035 12.9113 37.6936 12.9116 37.8677 12.8452C38.0417 12.7788 38.189 12.6497 38.2845 12.4799C38.3801 12.3101 38.418 12.1099 38.3919 11.9135L37.6794 6.55409C37.67 6.48185 37.6763 6.40824 37.6977 6.33904C37.7192 6.26984 37.7553 6.20693 37.8032 6.15523C37.8438 6.11144 37.892 6.07673 37.9451 6.05309C37.9982 6.02946 38.0551 6.01738 38.1126 6.01754C38.2519 6.01801 38.3873 6.067 38.4985 6.15718C38.6098 6.24735 38.6908 6.37384 38.7294 6.51768L40.0307 11.4117C40.0837 11.611 40.202 11.7831 40.3638 11.8961C40.5255 12.0091 40.7198 12.0556 40.9109 12.0268C41.102 11.998 41.277 11.896 41.4036 11.7396C41.5302 11.5831 41.5999 11.3828 41.6 11.1754V7.39863C41.6 7.26673 41.6465 7.13974 41.7302 7.04322C41.8138 6.94671 41.9284 6.88785 42.0508 6.8785C42.1733 6.86915 42.2945 6.91 42.39 6.99282C42.4855 7.07564 42.5483 7.19429 42.5657 7.32486L43.208 12.1566C43.2342 12.3539 43.3234 12.5353 43.4604 12.6697C43.5973 12.8042 43.7735 12.8833 43.9587 12.8936C44.144 12.9038 44.3268 12.8446 44.4759 12.7261C44.625 12.6075 44.7311 12.437 44.7761 12.2436L45.3868 9.61869C45.3978 9.57141 45.4234 9.52957 45.4595 9.50003C45.4955 9.4705 45.5399 9.45504 45.5852 9.4562C45.6305 9.45736 45.6742 9.47507 45.7089 9.50642C45.7436 9.53776 45.7673 9.58087 45.7762 9.62866L46.4 12.9798V26.6491Z" fill="black"/>
<path d="M3.19995 17.193V24.9299H4.79995V18.0527H7.19995V16.3334H3.99995C3.78778 16.3334 3.5843 16.4239 3.43427 16.5852C3.28424 16.7464 3.19995 16.965 3.19995 17.193Z" fill="black"/>
<path d="M10.4 16.3334H8.80005V18.0527H10.4V16.3334Z" fill="black"/>
<path d="M3.19995 34.386V42.1229H4.79995V35.2457H7.19995V33.5264H3.99995C3.78778 33.5264 3.5843 33.6169 3.43427 33.7782C3.28424 33.9394 3.19995 34.158 3.19995 34.386Z" fill="black"/>
<path d="M10.4 33.5264H8.80005V35.2457H10.4V33.5264Z" fill="black"/>
<path d="M20.8 35.2457H23.2V33.5264H20C19.7878 33.5264 19.5843 33.6169 19.4343 33.7782C19.2842 33.9394 19.2 34.158 19.2 34.386V42.1229H20.8V35.2457Z" fill="black"/>
<path d="M26.4 33.5264H24.8V35.2457H26.4V33.5264Z" fill="black"/>
<path d="M26.3999 4.29825V12.0351H27.9999V5.1579H30.3999V3.4386H27.1999C26.9877 3.4386 26.7842 3.52917 26.6342 3.69039C26.4842 3.8516 26.3999 4.07026 26.3999 4.29825Z" fill="black"/>
<path d="M33.6 3.4386H32V5.1579H33.6V3.4386Z" fill="black"/>
</svg>
