<svg width="49" height="49" viewBox="0 0 49 49" fill="none" xmlns="http://www.w3.org/2000/svg">
<path d="M47.1544 19.3931C47.2691 20.6233 47.0325 21.8621 46.4771 22.94C45.9217 24.0179 45.0746 24.8823 44.0516 25.4149C43.0287 25.9475 41.8799 26.1223 40.7624 25.9154C39.6449 25.7085 38.6132 25.13 37.8086 24.2591C37.0041 23.3881 36.4658 22.2672 36.2675 21.0498C36.0691 19.8323 36.2205 18.5778 36.7007 17.4577C37.181 16.3377 37.9668 15.4069 38.9505 14.7926C39.9342 14.1784 41.0679 13.9107 42.1965 14.0262L42.2202 14.0521L39.2272 17.3182L39.9971 21.8402L44.1413 22.6791L47.1544 19.3931Z" fill="#CCD3DF"/>
<path d="M38.9104 40.708C39.6465 40.2 40.5316 39.9533 41.4243 40.0073C42.3171 40.0614 43.1659 40.413 43.8353 41.0062C44.5047 41.5993 44.956 42.3996 45.1172 43.2794C45.2783 44.1591 45.1399 45.0675 44.7242 45.8593C44.3085 46.6512 43.6393 47.2809 42.8237 47.6478C42.0081 48.0148 41.093 48.0978 40.2247 47.8836C39.3563 47.6694 38.5848 47.1704 38.0334 46.4662C37.482 45.7621 37.1824 44.8935 37.1826 43.9991C37.1805 43.3512 37.3368 42.7127 37.638 42.139C37.9391 41.5654 38.376 41.0741 38.9104 40.708ZM43.1869 43.9991L42.1853 42.2646H40.1819L39.1802 43.9991L40.1819 45.7346H42.1853L43.1869 43.9991Z" fill="#6D7486"/>
<path d="M38.1826 24.001V24C38.9336 24.422 39.7644 24.6891 40.6242 24.7847C41.484 24.8802 42.3546 24.8024 43.1826 24.5559V40.969L43.1679 40.9897C42.4335 40.4959 41.5637 40.2325 40.6736 40.2343C39.7835 40.2362 38.9149 40.5032 38.1826 41" fill="#B0B5CA"/>
<path d="M33.1826 36.2632V48H28.1826V29C29.6074 29.3926 30.8754 30.3224 31.7823 31.6399C32.6893 32.9574 33.1825 34.5859 33.1826 36.2632Z" fill="#A0EAEA"/>
<path d="M23.1003 27L23.0409 27.104V31.6976C23.0409 33.1597 22.4238 34.562 21.3252 35.5959C20.2267 36.6298 18.7367 37.2107 17.1831 37.2107C15.6295 37.2107 14.1396 36.6298 13.041 35.5959C11.9425 34.562 11.3253 33.1597 11.3253 31.6976V27.1175L11.0982 27.2243C9.53235 27.9491 7.88293 28.5015 6.18262 28.8708V48H28.1826V28.8708C26.4097 28.4567 24.7013 27.8279 23.1003 27Z" fill="#FE8700"/>
<path d="M26.0274 11H8.33786C8.03147 11 7.73763 11.1054 7.52098 11.2929C7.30433 11.4804 7.18262 11.7348 7.18262 12C7.18262 12.2652 7.30433 12.5196 7.52098 12.7071C7.73763 12.8946 8.03147 13 8.33786 13H26.0274C26.3338 13 26.6276 12.8946 26.8443 12.7071C27.0609 12.5196 27.1826 12.2652 27.1826 12C27.1826 11.7348 27.0609 11.4804 26.8443 11.2929C26.6276 11.1054 26.3338 11 26.0274 11Z" fill="#EDB740"/>
<path d="M25.1826 10.9005V11H8.18262V10.9162C8.18262 7.00896 10.1691 3.58552 13.0406 2.00105V3.18443C13.0407 4.39046 13.3913 5.56554 14.0422 6.54144C14.6931 7.51735 15.611 8.24405 16.6643 8.61752L16.7846 8.65941C17.818 8.27243 18.7147 7.54377 19.3493 6.57519C19.984 5.6066 20.325 4.44644 20.3246 3.25669V2C23.1961 3.58134 25.1826 6.99325 25.1826 10.9005Z" fill="#FFDB00"/>
<path d="M24.3153 15.6293C24.2034 15.5973 24.0874 15.5811 23.9709 15.5811H23.6469L23.6235 13H10.7419L10.7185 15.5811H10.3945C10.2218 15.5805 10.051 15.6163 9.89403 15.6859C9.6418 15.7966 9.43636 15.9875 9.3119 16.2268C9.18744 16.4662 9.15147 16.7395 9.20997 17.0014C9.26847 17.2633 9.41792 17.4979 9.63344 17.6661C9.84897 17.8344 10.1176 17.9262 10.3945 17.9263H10.7185L11.2278 21.0727C11.3726 21.9652 11.7296 22.8129 12.2707 23.5491C12.8138 24.2835 13.5242 24.8874 14.3469 25.3139C15.2196 25.7644 16.1935 26 17.1827 26C18.1719 26 19.1458 25.7644 20.0185 25.3139C20.3639 25.1362 20.6903 24.9259 20.9931 24.6863C22.144 23.7786 22.9076 22.4917 23.1376 21.0727L23.6469 17.9263H23.9709C24.2621 17.9262 24.5436 17.8246 24.7638 17.6401C24.9841 17.4557 25.1283 17.2007 25.1701 16.9219C25.2119 16.643 25.1485 16.3589 24.9915 16.1216C24.8346 15.8842 24.5945 15.7095 24.3153 15.6293Z" fill="#FFD8B7"/>
<path d="M23.1826 26.9875L23.1221 27.0997V32.054C23.1221 33.631 22.4932 35.1434 21.3736 36.2585C20.2541 37.3735 18.7357 38 17.1524 38C15.5691 38 14.0507 37.3735 12.9311 36.2585C11.8116 35.1434 11.1826 33.631 11.1826 32.054V27.1142L12.9446 26.2326V28.6729C13.4633 29.2828 14.1091 29.7728 14.8373 30.1089C15.5654 30.445 16.3582 30.6191 17.1607 30.6191C17.9632 30.6191 18.7561 30.445 19.4842 30.1089C20.2123 29.7728 20.8582 29.2828 21.3769 28.6729V26L23.0012 26.8899C23.0617 26.9232 23.1221 26.9553 23.1826 26.9875Z" fill="#A0EAEA"/>
<path d="M20.1945 24.9025C19.3098 25.3914 18.3224 25.6472 17.3196 25.6472C16.3168 25.6472 15.3294 25.3914 14.4447 24.9025C13.9983 24.6565 13.5836 24.3533 13.2103 24L13.1826 24.0318V28.0801C13.6747 28.6817 14.2875 29.1651 14.9783 29.4967C15.669 29.8283 16.4213 30 17.1826 30C17.944 30 18.6962 29.8283 19.387 29.4967C20.0777 29.1651 20.6905 28.6817 21.1826 28.0801V24.2213C20.8756 24.4814 20.5446 24.7095 20.1945 24.9025Z" fill="#EFC597"/>
<path d="M20.1826 2.50864V3.54491C20.1829 4.52598 19.8552 5.48265 19.2453 6.28135C18.6354 7.08004 17.7738 7.68089 16.7806 8L16.6651 7.96546C15.6528 7.65749 14.7707 7.05825 14.1452 6.25352C13.5197 5.44879 13.1827 4.47982 13.1826 3.48532V2.5095C13.6614 2.28157 14.1646 2.10153 14.6839 1.97237L14.5758 1H18.7895L18.6813 1.97237C19.2006 2.10123 19.7038 2.28098 20.1826 2.50864Z" fill="#EDB740"/>
<path d="M9.18318 13H9.18262C9.2398 13.6608 9.33517 14.308 9.46705 14.9301L9.69414 16C9.7846 15.9223 9.883 15.8823 9.9825 15.883H10.1691L10.1826 13H9.18318Z" fill="#6D7486"/>
<path d="M23.1826 42.0176V48H12.1826V42C13.8775 42.7785 15.7641 43.1869 17.6801 43.1899C19.5962 43.193 21.4845 42.7907 23.1826 42.0176Z" fill="#FFDB00"/>
<path d="M11.0767 10.9162C11.0694 8.55643 11.8133 6.26638 13.1826 4.43376C13.0976 4.02341 13.0545 3.60413 13.0543 3.18352V2C10.1747 3.58466 8.18262 7.0085 8.18262 10.9162V11H11.0767V10.9162Z" fill="#FFFC8F"/>
<path d="M17.7322 25.3139C16.8628 24.8873 16.1122 24.2835 15.5384 23.5491C14.9666 22.8128 14.5893 21.9651 14.4363 21.0727L14.0844 19.0158C13.9604 18.2907 13.9 17.5576 13.9037 16.8235L13.9229 13H10.8301L10.8053 15.5811H10.463C10.2805 15.5805 10.1001 15.6163 9.93417 15.6859C9.71058 15.7789 9.52088 15.9288 9.38764 16.1176C9.25441 16.3065 9.18325 16.5264 9.18262 16.7513C9.18148 17.3977 9.79603 17.9263 10.5022 17.9263H10.8053L11.3435 21.0727C11.4965 21.9651 11.8738 22.8128 12.4455 23.5491C13.0194 24.2835 13.77 24.8873 14.6394 25.3139C16.032 25.9944 17.6514 26.1766 19.1826 25.825C18.6782 25.7093 18.1911 25.5377 17.7322 25.3139Z" fill="#F4C698"/>
<path d="M13.3264 5C14.1737 4.05138 15.2296 3.27387 16.4266 2.71722C16.9866 2.45793 17.5752 2.25311 18.1826 2.10617L18.0561 1H14.8122L14.9387 2.10617C14.3313 2.25311 13.7427 2.45793 13.1826 2.71722V3.82732C13.1829 4.22183 13.2311 4.61511 13.3264 5Z" fill="#FFCC66"/>
<path d="M10.0674 12.0004C10.0673 11.7352 10.1848 11.4809 10.3939 11.2933C10.603 11.1057 10.8867 11.0002 11.1826 11H8.29835C8.00244 11 7.71865 11.1054 7.50941 11.2929C7.30017 11.4804 7.18262 11.7348 7.18262 12C7.18262 12.2652 7.30017 12.5196 7.50941 12.7071C7.71865 12.8946 8.00244 13 8.29835 13H11.1826C10.8868 13 10.6032 12.8947 10.394 12.7072C10.1849 12.5198 10.0674 12.2655 10.0674 12.0004Z" fill="#FFCC66"/>
<path d="M42.1299 41.9731H40.0862C39.9833 41.9731 39.8823 42.0001 39.7932 42.0515C39.7041 42.1029 39.6301 42.1769 39.5787 42.2659L38.5571 44.0358C38.5057 44.1249 38.4786 44.2258 38.4786 44.3286C38.4786 44.4314 38.5057 44.5324 38.5571 44.6214L39.5789 46.3912C39.6303 46.4803 39.7043 46.5543 39.7934 46.6057C39.8825 46.6571 39.9835 46.6841 40.0864 46.684H42.1301C42.2329 46.6841 42.334 46.6571 42.4231 46.6057C42.5122 46.5543 42.5862 46.4803 42.6376 46.3912L43.6595 44.6214C43.7109 44.5324 43.7379 44.4314 43.7379 44.3286C43.7379 44.2258 43.7109 44.1249 43.6595 44.0358L42.6368 42.2659C42.5854 42.177 42.5115 42.1031 42.4225 42.0517C42.3336 42.0003 42.2326 41.9732 42.1299 41.9731ZM41.7918 45.5128H40.4243L39.7411 44.3286L40.4243 43.1444H41.7918L42.475 44.3286L41.7918 45.5128Z" fill="#284268"/>
<path d="M27.5509 28.4488C25.8478 28.0244 24.2088 27.3747 22.6774 26.5169L21.4603 25.8481V25.2974C22.6024 24.2777 23.3577 22.8951 23.5987 21.383L24.0326 18.615C24.3938 18.5794 24.7358 18.4351 25.0134 18.2013C25.291 17.9675 25.4912 17.655 25.5877 17.3051C25.6842 16.9552 25.6724 16.5843 25.5538 16.2412C25.4353 15.8982 25.2155 15.5991 24.9236 15.3834C25.1297 14.7792 25.2864 14.1593 25.3921 13.5298H25.5923C26.0018 13.5303 26.398 13.3846 26.7096 13.1188C27.0211 12.8529 27.2274 12.4846 27.2913 12.0801C27.3552 11.6756 27.2725 11.2616 27.0581 10.9127C26.8437 10.5638 26.5117 10.3029 26.122 10.1772C26.043 8.15053 25.3601 6.1937 24.161 4.55795C23.0361 3.0232 21.4655 1.87252 19.663 1.26266L19.727 0.646019C19.7354 0.564441 19.7267 0.481996 19.7012 0.404024C19.6758 0.326051 19.6343 0.25429 19.5794 0.193387C19.5244 0.132485 19.4573 0.0838006 19.3824 0.0504867C19.3074 0.0171727 19.2263 -2.75176e-05 19.1443 3.30448e-08H14.6958C14.6138 -1.78776e-07 14.5327 0.0172202 14.4578 0.0505462C14.3828 0.0838722 14.3158 0.132561 14.2608 0.19346C14.2059 0.254359 14.1644 0.326111 14.139 0.40407C14.1136 0.482029 14.1048 0.564458 14.1133 0.646019L14.1772 1.26276C12.3734 1.87442 10.8024 3.02809 9.67889 4.56615C8.48356 6.20056 7.80157 8.15369 7.71976 10.1769C7.32988 10.3024 6.99768 10.5632 6.78309 10.912C6.56849 11.2609 6.48562 11.675 6.54942 12.0796C6.61322 12.4842 6.81949 12.8527 7.13103 13.1186C7.44257 13.3845 7.83887 13.5303 8.24846 13.5298H8.39935C8.50529 14.0133 8.65042 14.4874 8.83328 14.9474L9.05523 15.5054C8.8 15.7399 8.61809 16.0433 8.53145 16.3789C8.44481 16.7145 8.45714 17.068 8.56695 17.3968C8.67676 17.7255 8.87936 18.0155 9.1503 18.2316C9.42125 18.4478 9.74896 18.5809 10.0939 18.615L10.5278 21.383C10.7484 22.7689 11.402 24.0494 12.395 25.041V26.0513L11.1766 26.6631C11.1021 26.6835 11.0324 26.7185 10.9716 26.7661L10.852 26.8261C9.39901 27.5419 7.86779 28.0865 6.28913 28.4488C4.49425 28.8752 2.89621 29.8958 1.75452 31.3449C0.612826 32.7941 -0.00546874 34.5866 3.64471e-05 36.4314V48.4099C3.64471e-05 48.5652 0.0617338 48.7142 0.171556 48.824C0.281378 48.9338 0.430328 48.9955 0.58564 48.9955H33.2543C33.4096 48.9955 33.5586 48.9338 33.6684 48.824C33.7782 48.7142 33.8399 48.5652 33.8399 48.4099V36.4314C33.8454 34.5866 33.2272 32.7941 32.0855 31.345C30.9438 29.8958 29.3458 28.8752 27.5509 28.4488ZM5.83987 47.8243H1.17124V36.4314C1.16696 34.9791 1.61386 33.5613 2.45018 32.3739C3.2865 31.1866 4.47096 30.2883 5.83987 29.8032V47.8243ZM13.81 2.66294C14.1815 2.49431 14.5662 2.35652 14.9603 2.25096C15.0951 2.21512 15.2126 2.13234 15.2918 2.01752C15.371 1.90271 15.4066 1.76339 15.3922 1.62466L15.3452 1.17121H18.4948L18.4477 1.62466C18.4333 1.76339 18.469 1.90271 18.5481 2.01752C18.6273 2.13234 18.7449 2.21512 18.8797 2.25096C19.2737 2.35652 19.6584 2.49411 20.0299 2.66235V3.46267C20.0296 4.4167 19.7415 5.34843 19.2031 6.13606C18.6648 6.92369 17.9014 7.53056 17.0126 7.87735C16.0772 7.55863 15.2652 6.95477 14.6907 6.15065C14.1163 5.34652 13.8083 4.38259 13.81 3.39435V2.66294ZM10.6208 5.26214C11.1789 4.50513 11.8612 3.84818 12.6388 3.3192V3.39435C12.6366 4.6426 13.0307 5.85934 13.7642 6.86934C14.4977 7.87934 15.5328 8.63048 16.7205 9.01459L16.8418 9.05363C16.9627 9.09306 17.0932 9.09196 17.2135 9.05051C18.3772 8.64997 19.3869 7.8962 20.1017 6.89436C20.8166 5.89251 21.2009 4.69253 21.2011 3.4618V3.31705C21.9786 3.84436 22.6611 4.49967 23.2195 5.25511C24.2524 6.66569 24.8513 8.34691 24.943 10.0928H8.8975C8.99232 8.34971 9.59097 6.67163 10.6208 5.26214ZM8.24846 12.3586C8.17597 12.3595 8.10402 12.3461 8.03677 12.319C7.96952 12.292 7.90831 12.2518 7.85671 12.2009C7.80511 12.15 7.76414 12.0893 7.73617 12.0224C7.70821 11.9555 7.69381 11.8838 7.69381 11.8113C7.69381 11.7388 7.70821 11.667 7.73617 11.6001C7.76414 11.5333 7.80511 11.4726 7.85671 11.4217C7.90831 11.3708 7.96952 11.3306 8.03677 11.3035C8.10402 11.2765 8.17597 11.263 8.24846 11.264H25.5915C25.664 11.263 25.7359 11.2765 25.8032 11.3035C25.8704 11.3306 25.9317 11.3708 25.9833 11.4217C26.0349 11.4726 26.0758 11.5333 26.1038 11.6001C26.1318 11.667 26.1462 11.7388 26.1462 11.8113C26.1462 11.8838 26.1318 11.9555 26.1038 12.0224C26.0758 12.0893 26.0349 12.15 25.9833 12.2009C25.9317 12.2518 25.8704 12.292 25.8032 12.319C25.7359 12.3461 25.664 12.3595 25.5915 12.3586H23.5106C23.5098 12.3585 23.509 12.3585 23.5082 12.3586H8.24846ZM24.2031 13.5298C24.1769 13.6698 24.1473 13.8093 24.1153 13.9482V13.5298H24.2031ZM10.0106 13.5298V14.7384L9.92153 14.5145C9.79409 14.1935 9.68771 13.8646 9.60306 13.5298H10.0106ZM11.685 21.2017L11.1748 17.9475C11.1532 17.8096 11.083 17.6839 10.9769 17.5932C10.8709 17.5024 10.7358 17.4525 10.5962 17.4526H10.2729C10.1899 17.4536 10.1075 17.4381 10.0306 17.4071C9.95359 17.3761 9.88355 17.33 9.8245 17.2717C9.76545 17.2134 9.71856 17.1439 9.68656 17.0674C9.65456 16.9908 9.63808 16.9086 9.63808 16.8256C9.63808 16.7426 9.65456 16.6604 9.68656 16.5839C9.71856 16.5073 9.76545 16.4378 9.8245 16.3795C9.88355 16.3212 9.95359 16.2752 10.0306 16.2441C10.1075 16.2131 10.1899 16.1976 10.2729 16.1987H10.5962C10.7516 16.1987 10.9005 16.137 11.0103 16.0272C11.1201 15.9173 11.1818 15.7684 11.1818 15.6131V13.5298H22.9443V15.6131C22.9443 15.7684 23.006 15.9173 23.1158 16.0272C23.2256 16.137 23.3746 16.1987 23.5299 16.1987H23.8373C23.936 16.2695 24.0544 16.3075 24.1758 16.3074C24.1848 16.3074 24.1937 16.3057 24.2027 16.3054C24.3143 16.3802 24.3989 16.489 24.444 16.6155C24.4891 16.7421 24.4923 16.8799 24.4531 17.0085C24.414 17.137 24.3345 17.2496 24.2265 17.3295C24.1185 17.4095 23.9876 17.4526 23.8532 17.4526H23.5299C23.3903 17.4526 23.2553 17.5024 23.1492 17.5932C23.0432 17.6839 22.973 17.8096 22.9514 17.9475L22.4413 21.2017C22.2402 22.4836 21.5879 23.6516 20.6018 24.4951C19.6157 25.3386 18.3607 25.8021 17.0631 25.8021C15.7655 25.8021 14.5105 25.3386 13.5245 24.4951C12.5384 23.6516 11.886 22.4836 11.685 21.2017ZM13.5662 26.2432V25.9727C13.6916 26.0508 13.8194 26.1256 13.9505 26.1955C14.9082 26.7072 15.9772 26.975 17.0631 26.975C18.1489 26.975 19.218 26.7072 20.1756 26.1955C20.2137 26.1752 20.2511 26.154 20.2887 26.1331V28.4845C19.8592 28.9467 19.3391 29.3154 18.7608 29.5674C18.1824 29.8195 17.5583 29.9496 16.9275 29.9496C16.2966 29.9496 15.6725 29.8195 15.0941 29.5674C14.5158 29.3154 13.9957 28.9467 13.5662 28.4845V26.558C13.5952 26.4551 13.5952 26.3462 13.5662 26.2432ZM11.9168 27.6019L12.395 27.3618V28.7066C12.3951 28.8452 12.4443 28.9793 12.5339 29.085C13.0745 29.7229 13.7476 30.2355 14.5063 30.587C15.2651 30.9385 16.0912 31.1206 16.9275 31.1206C17.7637 31.1206 18.5898 30.9385 19.3486 30.587C20.1073 30.2355 20.7804 29.7229 21.321 29.085C21.4106 28.9792 21.4599 28.8451 21.4599 28.7064V27.1838L21.923 27.4383V31.884C21.923 33.2109 21.3959 34.4834 20.4576 35.4216C19.5194 36.3599 18.2469 36.887 16.92 36.887C15.5931 36.887 14.3206 36.3599 13.3823 35.4216C12.4441 34.4834 11.917 33.2109 11.917 31.884L11.9168 27.6019ZM22.126 47.8243H12.6874V42.6947C14.1779 43.3353 15.7828 43.6669 17.4051 43.6697C19.0274 43.6724 20.6334 43.3462 22.126 42.7107V47.8243ZM26.8289 47.8243H23.2972V41.7861C23.2972 41.6854 23.2712 41.5864 23.2218 41.4987C23.1724 41.4109 23.1012 41.3374 23.015 41.2852C22.9289 41.2331 22.8307 41.204 22.7301 41.2008C22.6294 41.1976 22.5296 41.2205 22.4404 41.2671C20.8865 42.0791 19.1586 42.5016 17.4053 42.4984C15.6521 42.4951 13.9258 42.0662 12.3749 41.2485C12.2857 41.2014 12.1858 41.1781 12.0849 41.181C11.984 41.1839 11.8856 41.2128 11.7992 41.2649C11.7128 41.3171 11.6413 41.3906 11.5917 41.4785C11.5421 41.5664 11.516 41.6656 11.516 41.7665V47.8243H7.01108V29.4743C8.29207 29.1525 9.54189 28.7175 10.7458 28.1742V31.8846C10.7458 33.5221 11.3963 35.0925 12.5542 36.2504C13.712 37.4083 15.2825 38.0588 16.92 38.0588C18.5575 38.0588 20.1279 37.4083 21.2858 36.2504C22.4437 35.0925 23.0942 33.5221 23.0942 31.8846V28.0538C24.29 28.6472 25.5408 29.1226 26.8289 29.4731V47.8243ZM32.6687 47.8243H28.0001V29.8033C29.369 30.2884 30.5535 31.1866 31.3898 32.374C32.2261 33.5613 32.673 34.9791 32.6687 36.4314V47.8243Z" fill="#284268"/>
<path d="M16.92 33.5878C17.0727 33.5878 17.222 33.5426 17.3489 33.4577C17.4759 33.3729 17.5748 33.2524 17.6333 33.1113C17.6917 32.9703 17.707 32.815 17.6772 32.6653C17.6474 32.5156 17.5739 32.378 17.4659 32.27C17.358 32.1621 17.2204 32.0886 17.0707 32.0588C16.9209 32.029 16.7657 32.0443 16.6247 32.1027C16.4836 32.1612 16.3631 32.2601 16.2782 32.3871C16.1934 32.514 16.1482 32.6633 16.1482 32.816C16.1484 33.0206 16.2298 33.2168 16.3745 33.3615C16.5192 33.5062 16.7154 33.5876 16.92 33.5878Z" fill="#284268"/>
<path d="M16.92 36.0095C17.0727 36.0096 17.2219 35.9643 17.3489 35.8795C17.4759 35.7947 17.5748 35.6741 17.6333 35.5331C17.6917 35.392 17.707 35.2368 17.6772 35.0871C17.6474 34.9373 17.5739 34.7998 17.466 34.6918C17.358 34.5839 17.2205 34.5103 17.0707 34.4805C16.921 34.4507 16.7658 34.466 16.6247 34.5244C16.4837 34.5829 16.3631 34.6818 16.2783 34.8088C16.1935 34.9357 16.1482 35.0849 16.1482 35.2376C16.1484 35.4423 16.2298 35.6385 16.3745 35.7832C16.5192 35.9279 16.7154 36.0093 16.92 36.0095Z" fill="#284268"/>
<path d="M48.0162 18.7906L47.9924 18.7651C47.927 18.6953 47.8455 18.6426 47.755 18.6115C47.6646 18.5804 47.5679 18.572 47.4734 18.587C47.3789 18.6019 47.2895 18.6398 47.213 18.6973C47.1366 18.7548 47.0754 18.8301 47.0347 18.9167L44.1497 21.8018L40.4137 21.1079L39.7199 17.3719L42.7052 14.387C42.7596 14.3326 42.8028 14.268 42.8322 14.1969C42.8617 14.1258 42.8769 14.0496 42.8769 13.9727C42.8769 13.8957 42.8617 13.8196 42.8322 13.7485C42.8028 13.6774 42.7596 13.6128 42.7052 13.5584L42.6798 13.5331C42.5833 13.4367 42.4562 13.3771 42.3204 13.3644C40.8782 13.2287 39.4321 13.5809 38.2138 14.3647C36.9955 15.1485 36.0755 16.3185 35.6011 17.6873C35.1267 19.056 35.1255 20.5444 35.5975 21.914C36.0695 23.2836 36.9875 24.4551 38.2044 25.241V40.6799C37.4465 41.2825 36.8948 42.1059 36.6257 43.036C36.3566 43.9661 36.3835 44.9569 36.7026 45.8711C37.0217 46.7853 37.6173 47.5776 38.4068 48.1382C39.1962 48.6988 40.1405 48.9999 41.1088 48.9999C42.0771 48.9999 43.0214 48.6988 43.8109 48.1382C44.6003 47.5776 45.1959 46.7853 45.515 45.8711C45.8342 44.9569 45.861 43.9661 45.5919 43.036C45.3229 42.1059 44.7711 41.2825 44.0132 40.6799V25.8531C45.3224 25.3572 46.4352 24.4495 47.1841 23.2667C47.933 22.0839 48.2776 20.6898 48.166 19.2943C48.182 19.2045 48.1768 19.1122 48.1508 19.0247C48.1248 18.9373 48.0787 18.8571 48.0162 18.7906ZM44.6038 44.3286C44.6038 45.02 44.3988 45.6959 44.0147 46.2708C43.6306 46.8456 43.0846 47.2937 42.4459 47.5583C41.8071 47.8229 41.1042 47.8922 40.4261 47.7573C39.748 47.6224 39.1251 47.2895 38.6362 46.8006C38.1473 46.3117 37.8143 45.6888 37.6794 45.0107C37.5446 44.3326 37.6138 43.6297 37.8784 42.9909C38.1429 42.3522 38.591 41.8062 39.1659 41.4221C39.7408 41.0379 40.4166 40.8329 41.108 40.8329C42.0348 40.834 42.9234 41.2026 43.5787 41.8579C44.2341 42.5133 44.6027 43.4018 44.6038 44.3286ZM39.3748 39.9967V25.8373C40.4777 26.2647 41.6767 26.3813 42.8412 26.1743V39.9967C41.7289 39.5499 40.4871 39.5499 39.3748 39.9967ZM45.462 23.5537C44.8714 24.144 44.1496 24.5863 43.3556 24.8447C42.5615 25.1031 41.7177 25.1701 40.8928 25.0404C40.0679 24.9107 39.2853 24.5879 38.6089 24.0983C37.9325 23.6087 37.3813 22.9662 37.0003 22.2232C36.6194 21.4801 36.4194 20.6575 36.4167 19.8225C36.4141 18.9875 36.6088 18.1637 36.9849 17.4182C37.3611 16.6727 37.9082 16.0267 38.5815 15.5327C39.2547 15.0388 40.0352 14.711 40.8592 14.576L38.6737 16.7616C38.6065 16.8288 38.5566 16.9114 38.5285 17.0022C38.5003 17.0929 38.4947 17.1892 38.5121 17.2827L39.3357 21.7171C39.3574 21.8333 39.4137 21.9403 39.4973 22.0239C39.5809 22.1075 39.6879 22.1639 39.8042 22.1855L44.2386 23.0092C44.332 23.0266 44.4283 23.0209 44.519 22.9927C44.6098 22.9646 44.6924 22.9148 44.7596 22.8476L46.9458 20.6613C46.768 21.7576 46.2488 22.7699 45.462 23.5538V23.5537Z" fill="#284268"/>
<path d="M15.9723 5.85089H18.0733C18.2286 5.85089 18.3775 5.7892 18.4874 5.67938C18.5972 5.56955 18.6589 5.4206 18.6589 5.26529C18.6589 5.10998 18.5972 4.96103 18.4874 4.85121C18.3775 4.74139 18.2286 4.67969 18.0733 4.67969H15.9723C15.817 4.67969 15.6681 4.74139 15.5582 4.85121C15.4484 4.96103 15.3867 5.10998 15.3867 5.26529C15.3867 5.4206 15.4484 5.56955 15.5582 5.67938C15.6681 5.7892 15.817 5.85089 15.9723 5.85089Z" fill="#284268"/>
<path d="M15.9723 3.91376H18.0733C18.2286 3.91376 18.3775 3.85206 18.4874 3.74224C18.5972 3.63242 18.6589 3.48347 18.6589 3.32816C18.6589 3.17285 18.5972 3.0239 18.4874 2.91407C18.3775 2.80425 18.2286 2.74255 18.0733 2.74255H15.9723C15.817 2.74255 15.6681 2.80425 15.5582 2.91407C15.4484 3.0239 15.3867 3.17285 15.3867 3.32816C15.3867 3.48347 15.4484 3.63242 15.5582 3.74224C15.6681 3.85206 15.817 3.91376 15.9723 3.91376Z" fill="#284268"/>
</svg>
