<svg width="30" height="30" viewBox="0 0 30 30" fill="none" xmlns="http://www.w3.org/2000/svg">
<path d="M14.8481 29.256H14.8443C14.7918 29.256 14.7356 29.256 14.6831 29.256L14.7093 26.8069H14.8443L14.8481 29.256ZM15.0131 29.256L14.9869 26.8069C15.0319 26.8069 15.0769 26.8069 15.1219 26.8031L15.1781 29.2523C15.1256 29.256 15.0694 29.256 15.0131 29.256ZM14.5143 29.2523C14.458 29.2523 14.4018 29.2485 14.3455 29.2485L14.4318 26.7994C14.4768 26.7994 14.5255 26.8031 14.5705 26.8031L14.5143 29.2523ZM15.3469 29.2485L15.2644 26.7994C15.3094 26.7994 15.3544 26.7956 15.3994 26.7956L15.5157 29.241C15.4594 29.2448 15.4032 29.2485 15.3469 29.2485ZM14.1805 29.241C14.1242 29.2373 14.068 29.2373 14.0117 29.2335L14.1542 26.7881C14.1992 26.7919 14.2442 26.7919 14.2892 26.7956L14.1805 29.241ZM15.6845 29.2335L15.542 26.7881L15.6807 26.7806L15.8495 29.2223C15.7932 29.226 15.737 29.2298 15.6845 29.2335ZM13.8467 29.2223C13.7904 29.2185 13.7342 29.2148 13.6779 29.211L13.8767 26.7694C13.9217 26.7731 13.9667 26.7769 14.0155 26.7806L13.8467 29.2223ZM16.0145 29.211L15.8158 26.7694C15.8608 26.7656 15.9058 26.7619 15.9545 26.7581L16.1796 29.196C16.1271 29.1998 16.0708 29.2073 16.0145 29.211ZM13.5129 29.196C13.4566 29.1923 13.4004 29.1848 13.3441 29.181L13.5991 26.7469C13.6441 26.7506 13.6891 26.7544 13.7379 26.7619L13.5129 29.196ZM16.3483 29.181L16.0933 26.7469C16.1383 26.7431 16.1833 26.7356 16.2321 26.7319L16.5171 29.166C16.4609 29.166 16.4046 29.1735 16.3483 29.181ZM13.1791 29.1623C13.1228 29.1548 13.0703 29.1473 13.014 29.1435L13.3253 26.7131L13.4641 26.7319L13.1791 29.1623ZM16.6784 29.1398L16.3708 26.7094C16.4159 26.7019 16.4609 26.6981 16.5059 26.6906L16.8472 29.1173C16.7909 29.1248 16.7346 29.1323 16.6784 29.1398ZM12.849 29.121C12.7928 29.1135 12.7402 29.106 12.684 29.0985L13.0515 26.6756L13.1903 26.6944L12.849 29.121ZM17.0122 29.0948L16.6446 26.6719C16.6896 26.6644 16.7347 26.6569 16.7797 26.6494L17.1772 29.0647C17.121 29.076 17.0685 29.0873 17.0122 29.0948ZM12.519 29.0685C12.4627 29.061 12.4102 29.0497 12.3539 29.0385L12.7815 26.6268C12.8265 26.6343 12.8715 26.6418 12.9165 26.6494L12.519 29.0685ZM17.3423 29.0385L16.9147 26.6268L17.0535 26.6006L17.5073 29.0085C17.451 29.0197 17.3985 29.031 17.3423 29.0385ZM12.1889 29.0122C12.1326 29.001 12.0764 28.9897 12.0239 28.9785L12.5077 26.5781C12.5527 26.5856 12.5977 26.5968 12.6427 26.6043L12.1889 29.0122ZM17.6723 28.9785L17.1847 26.5781L17.3235 26.5481L17.8336 28.9447C17.7811 28.956 17.7286 28.9672 17.6723 28.9785ZM11.8626 28.9447C11.8101 28.9335 11.7538 28.9222 11.7013 28.911L12.2377 26.5218L12.3727 26.5518L11.8626 28.9447ZM17.9986 28.9072L17.4585 26.5181C17.5035 26.5068 17.5485 26.4956 17.5935 26.4881L18.1599 28.8697C18.1074 28.881 18.0549 28.896 17.9986 28.9072ZM11.5325 28.8697C11.48 28.8585 11.4275 28.8435 11.3713 28.8322L11.9601 26.4543L12.0989 26.4881L11.5325 28.8697ZM18.3249 28.8285L17.7286 26.4543C17.7736 26.4431 17.8186 26.4318 17.8636 26.4206L18.4862 28.791C18.4337 28.8022 18.3774 28.8172 18.3249 28.8285ZM11.21 28.791C11.1537 28.776 11.1012 28.761 11.0487 28.7459L11.7013 26.3868C11.7463 26.3981 11.7876 26.4093 11.8326 26.4206L11.21 28.791ZM18.6475 28.7459L17.9949 26.3868C18.0399 26.3756 18.0849 26.3606 18.1299 26.3493L18.8087 28.7009C18.7562 28.7159 18.7037 28.7309 18.6475 28.7459ZM10.8874 28.7009C10.8349 28.6859 10.7787 28.6709 10.7262 28.6522L11.4313 26.308C11.4763 26.3231 11.5213 26.3343 11.5625 26.3456L10.8874 28.7009ZM18.97 28.6522L18.2612 26.308C18.3062 26.293 18.3512 26.2818 18.3962 26.2668L19.1313 28.6034C19.075 28.6184 19.0225 28.6372 18.97 28.6522ZM10.5649 28.6034C10.5124 28.5884 10.4561 28.5697 10.4036 28.5509L11.165 26.2218C11.21 26.2368 11.2513 26.2518 11.2963 26.263L10.5649 28.6034ZM19.2888 28.5509L18.5274 26.2218C18.5725 26.2068 18.6137 26.1918 18.6587 26.1768L19.4501 28.4947C19.3938 28.5172 19.3413 28.5359 19.2888 28.5509ZM10.2461 28.4984C10.1936 28.4797 10.1411 28.4609 10.0886 28.4422L10.9062 26.1318C10.9512 26.1468 10.9925 26.1618 11.0375 26.1768L10.2461 28.4984ZM19.6076 28.4422L18.79 26.1355C18.835 26.1205 18.8763 26.1055 18.9213 26.0868L19.7652 28.3859C19.7126 28.4046 19.6601 28.4234 19.6076 28.4422ZM9.92728 28.3896C9.87477 28.3709 9.82226 28.3521 9.76975 28.3296L10.6399 26.0418C10.6849 26.0568 10.7262 26.0755 10.7712 26.0905L9.92728 28.3896ZM19.9227 28.3296L19.0488 26.0418C19.0938 26.0268 19.135 26.008 19.1801 25.993L20.0802 28.2696C20.0239 28.2884 19.9714 28.3071 19.9227 28.3296ZM9.61598 28.2696C9.56347 28.2509 9.51096 28.2284 9.46221 28.2059L10.3849 25.9367C10.4299 25.9555 10.4711 25.9705 10.5161 25.9892L9.61598 28.2696ZM20.2302 28.2059L19.3076 25.9367C19.3488 25.918 19.3901 25.903 19.4313 25.8842L20.384 28.1421C20.3352 28.1646 20.2827 28.1834 20.2302 28.2059ZM9.30468 28.1421C9.25217 28.1196 9.19966 28.0971 9.1509 28.0746L10.1298 25.828C10.1711 25.8467 10.2161 25.8655 10.2573 25.8842L9.30468 28.1421ZM20.5378 28.0783L19.5626 25.8317C19.6039 25.813 19.6451 25.7942 19.6864 25.7755L20.6916 28.0108C20.639 28.0333 20.5903 28.0558 20.5378 28.0783ZM8.99713 28.0071C8.94462 27.9846 8.89586 27.9621 8.84335 27.9358L9.87477 25.7155C9.91603 25.7342 9.95729 25.753 10.0023 25.7717L8.99713 28.0071ZM20.8416 27.9396L19.8102 25.7192C19.8514 25.7004 19.8927 25.6817 19.9339 25.6592L20.9916 27.8683C20.9428 27.8908 20.8941 27.9171 20.8416 27.9396ZM8.69333 27.8683C8.64082 27.8458 8.59206 27.8195 8.53955 27.7933L9.62348 25.5992C9.66474 25.6179 9.70599 25.6404 9.74725 25.6592L8.69333 27.8683ZM21.1454 27.7933L20.0614 25.5954L20.1852 25.5317L21.2917 27.7145C21.2429 27.7445 21.1941 27.7708 21.1454 27.7933ZM8.38953 27.7183C8.34077 27.692 8.29201 27.6658 8.2395 27.6433L9.37219 25.4717C9.41345 25.4942 9.4547 25.5129 9.49596 25.5354L8.38953 27.7183ZM21.4417 27.6433L20.3052 25.4717C20.3465 25.4492 20.3878 25.4304 20.429 25.4079L21.588 27.5645C21.5392 27.5908 21.4904 27.617 21.4417 27.6433ZM8.09323 27.5645C8.04447 27.5382 7.99571 27.512 7.94695 27.4857L9.1284 25.3404L9.25217 25.4079L8.09323 27.5645ZM21.7342 27.4857L20.549 25.3404C20.5903 25.3179 20.6278 25.2954 20.669 25.2729L21.8805 27.4032C21.8317 27.4332 21.783 27.4595 21.7342 27.4857ZM7.80068 27.3995C7.75192 27.3732 7.70317 27.3432 7.65816 27.317L8.89211 25.2016L9.01213 25.2729L7.80068 27.3995ZM22.0268 27.3207L20.7928 25.2054C20.8341 25.1829 20.8716 25.1604 20.9091 25.1341L22.1693 27.2345C22.1205 27.2645 22.0718 27.2945 22.0268 27.3207ZM7.51189 27.2307C7.46313 27.2007 7.41812 27.1744 7.36936 27.1444L8.65582 25.0591C8.69708 25.0853 8.73459 25.1079 8.77584 25.1304L7.51189 27.2307ZM22.3081 27.1519L21.0291 25.0628C21.0666 25.0403 21.1079 25.0141 21.1454 24.9916L22.4543 27.0619C22.4056 27.0919 22.3568 27.1219 22.3081 27.1519ZM7.22684 27.0544C7.17808 27.0244 7.13307 26.9944 7.08432 26.9644L8.41954 24.9128C8.45704 24.9391 8.4983 24.9616 8.5358 24.9878L7.22684 27.0544ZM22.5931 26.9719L21.2616 24.9166C21.2992 24.8903 21.3404 24.8678 21.3779 24.8416L22.7356 26.8819C22.6869 26.9119 22.6419 26.9419 22.5931 26.9719ZM6.94554 26.8744C6.90053 26.8444 6.85178 26.8106 6.80677 26.7806L8.18699 24.759C8.2245 24.7853 8.26201 24.8116 8.30327 24.8378L6.94554 26.8744ZM22.8707 26.7881L21.4942 24.7628C21.5317 24.7365 21.5692 24.7103 21.6067 24.684L23.0094 26.6906C22.9644 26.7244 22.9157 26.7581 22.8707 26.7881ZM6.668 26.6831C6.62299 26.6531 6.57798 26.6193 6.53298 26.5856L7.96196 24.594L8.07448 24.6765L6.668 26.6831ZM23.1482 26.5968L21.7192 24.609L21.8317 24.5265L23.2795 26.4993C23.2345 26.5293 23.1895 26.5631 23.1482 26.5968ZM6.3942 26.4881C6.34919 26.4543 6.30794 26.4243 6.26293 26.3906L7.73317 24.4327L7.84569 24.519L6.3942 26.4881ZM23.4145 26.3981L21.9443 24.4402C21.9818 24.414 22.0155 24.384 22.053 24.3577L23.5495 26.2968C23.5045 26.3306 23.4595 26.3643 23.4145 26.3981ZM6.12791 26.2893C6.0829 26.2555 6.03789 26.2218 5.99663 26.1843L7.51938 24.264C7.55689 24.294 7.59065 24.3202 7.62816 24.3502L6.12791 26.2893ZM23.6808 26.1955L22.1618 24.2752L22.2706 24.1889L23.8083 26.0943C23.7671 26.1243 23.7221 26.158 23.6808 26.1955ZM5.86537 26.0793C5.82411 26.0455 5.7791 26.008 5.73784 25.9742L7.30185 24.0877L7.41062 24.1777L5.86537 26.0793ZM23.9396 25.9855L22.3793 24.0989C22.4131 24.0689 22.4506 24.0389 22.4844 24.0089L24.0671 25.8767C24.0259 25.9142 23.9808 25.948 23.9396 25.9855ZM5.61032 25.8655C5.56906 25.828 5.52781 25.7942 5.48655 25.7567L7.09181 23.9076L7.19683 23.9977L5.61032 25.8655ZM24.1909 25.768L22.5894 23.9152C22.6231 23.8851 22.6569 23.8551 22.6906 23.8251L24.3184 25.6554C24.2771 25.6967 24.2359 25.7342 24.1909 25.768ZM5.35528 25.6479C5.31403 25.6104 5.27277 25.5729 5.23151 25.5354L6.88178 23.7239L6.9868 23.8176L5.35528 25.6479ZM24.4422 25.5467L22.7919 23.7351L22.8932 23.6414L24.5622 25.4342C24.5247 25.4717 24.4834 25.5092 24.4422 25.5467ZM5.11149 25.4229C5.07023 25.3854 5.02897 25.3441 4.98772 25.3066L6.683 23.5363C6.71675 23.5663 6.75051 23.6001 6.78051 23.6301L5.11149 25.4229ZM24.6897 25.3179L22.9982 23.5438C23.0319 23.5138 23.0657 23.4801 23.0995 23.4463L24.8097 25.1979C24.7685 25.2429 24.7272 25.2804 24.6897 25.3179ZM4.8677 25.1904C4.82644 25.1529 4.78894 25.1116 4.75143 25.0741L6.48047 23.3413L6.58173 23.4388L4.8677 25.1904ZM24.926 25.0853L23.1932 23.3526L23.2907 23.2513L25.0385 24.9653C25.0048 25.0066 24.9673 25.0478 24.926 25.0853ZM4.63141 24.9541C4.5939 24.9128 4.5564 24.8753 4.51514 24.8341L6.28543 23.1425L6.38295 23.2438L4.63141 24.9541ZM25.1585 24.8491L23.3882 23.1538C23.4182 23.12 23.452 23.0863 23.482 23.0525L25.2711 24.7253C25.2373 24.7665 25.1998 24.8078 25.1585 24.8491ZM4.40262 24.714C4.36512 24.6728 4.32761 24.6315 4.2901 24.5903L6.10165 22.9437C6.13166 22.9775 6.16166 23.0113 6.19542 23.045L4.40262 24.714ZM25.3911 24.6015L23.5795 22.9512L23.6733 22.8462L25.4998 24.4777C25.4623 24.519 25.4286 24.5603 25.3911 24.6015ZM4.17759 24.4665C4.14008 24.4252 4.10257 24.3802 4.06507 24.339L5.91787 22.7375C5.94788 22.7712 5.97788 22.805 6.00789 22.8387L4.17759 24.4665ZM25.6124 24.354L23.7671 22.745C23.7971 22.7112 23.8271 22.6737 23.8571 22.6399L25.7249 24.2265C25.6836 24.2677 25.6499 24.3127 25.6124 24.354ZM3.9563 24.2115C3.91879 24.1702 3.88504 24.1252 3.84753 24.0839L5.73409 22.5237C5.7641 22.5574 5.7941 22.5949 5.82411 22.6287L3.9563 24.2115ZM25.8299 24.0989L23.9471 22.5349C23.9771 22.4974 24.0071 22.4637 24.0371 22.4262L25.9387 23.9677C25.8974 24.0127 25.8637 24.0539 25.8299 24.0989ZM3.74252 23.9564C3.70876 23.9152 3.675 23.8701 3.6375 23.8289L5.55781 22.3099L5.64408 22.4187L3.74252 23.9564ZM26.0362 23.8401L24.1196 22.3174C24.1496 22.2836 24.1759 22.2461 24.2021 22.2086L26.1412 23.7051C26.1074 23.7501 26.0737 23.7951 26.0362 23.8401ZM3.53623 23.6939C3.50247 23.6489 3.46872 23.6039 3.43496 23.5588L5.39278 22.0886C5.41904 22.1261 5.44904 22.1599 5.4753 22.1974L3.53623 23.6939ZM26.2462 23.5701L24.2884 22.0961L24.3709 21.9836L26.3437 23.4351C26.31 23.4838 26.2762 23.5288 26.2462 23.5701ZM3.33745 23.4276C3.30369 23.3826 3.27369 23.3376 3.23993 23.2925L5.22776 21.8636L5.31027 21.9761L3.33745 23.4276ZM26.4412 23.3038L24.4497 21.8748L24.5322 21.7623L26.5388 23.1688C26.505 23.2138 26.475 23.2588 26.4412 23.3038ZM3.14241 23.1538C3.10866 23.1088 3.07865 23.0638 3.04865 23.015L5.07399 21.6348C5.10024 21.6723 5.12649 21.7098 5.15275 21.7473L3.14241 23.1538ZM26.6363 23.03L24.6147 21.6498L24.6935 21.5335L26.73 22.8912C26.6963 22.9362 26.6663 22.9812 26.6363 23.03ZM2.95488 22.88C2.92488 22.8312 2.89112 22.7862 2.86112 22.7375L4.91645 21.4097C4.94271 21.4473 4.96522 21.4848 4.99147 21.5223L2.95488 22.88ZM26.8201 22.7487L24.7647 21.4135C24.791 21.376 24.8135 21.3347 24.8397 21.2972L26.9101 22.6062C26.8801 22.6549 26.8501 22.7037 26.8201 22.7487ZM2.7711 22.5987C2.7411 22.5499 2.71109 22.5049 2.68484 22.4562L4.77018 21.1735C4.79268 21.2147 4.81894 21.2522 4.8452 21.2897L2.7711 22.5987ZM27.0001 22.4674L24.9147 21.181C24.9373 21.1434 24.9635 21.1022 24.986 21.0609L27.0864 22.3211C27.0563 22.3736 27.0263 22.4187 27.0001 22.4674ZM2.59858 22.3174C2.56857 22.2686 2.54232 22.2199 2.51231 22.1711L4.62766 20.9372C4.65017 20.9747 4.67267 21.0159 4.69517 21.0534L2.59858 22.3174ZM27.1726 22.1824L25.061 20.9447C25.0835 20.9034 25.106 20.8659 25.1285 20.8246L27.2589 22.0361C27.2289 22.0849 27.1989 22.1336 27.1726 22.1824ZM2.4298 22.0286C2.40355 21.9798 2.37729 21.9311 2.34729 21.8861L4.48888 20.6971L4.5564 20.8171L2.4298 22.0286ZM27.3377 21.8898L25.196 20.7046C25.2185 20.6634 25.241 20.6221 25.2636 20.5809L27.4202 21.7398C27.3902 21.7923 27.3639 21.8411 27.3377 21.8898ZM2.26852 21.736C2.24227 21.6873 2.21601 21.6385 2.18976 21.5898L4.36137 20.4533C4.38387 20.4946 4.40262 20.5359 4.42512 20.5771L2.26852 21.736ZM27.4952 21.5935L25.3236 20.4608C25.3461 20.4196 25.3648 20.3783 25.3873 20.3371L27.5702 21.4472C27.5477 21.496 27.5214 21.5448 27.4952 21.5935ZM2.11475 21.4397C2.08849 21.391 2.06599 21.3422 2.03973 21.2897L4.23385 20.2058C4.2526 20.2471 4.2751 20.2883 4.29761 20.3296L2.11475 21.4397ZM27.6489 21.2935L25.4548 20.2095C25.4736 20.1683 25.4961 20.127 25.5148 20.0858L27.724 21.1434C27.6977 21.1922 27.6714 21.2447 27.6489 21.2935ZM1.96472 21.1397C1.94222 21.0909 1.91596 21.0422 1.89346 20.9897L4.11382 19.9545L4.17383 20.082L1.96472 21.1397ZM27.7915 20.9934L25.5711 19.9583C25.5899 19.917 25.6086 19.8757 25.6274 19.8345L27.859 20.8396C27.8402 20.8922 27.8177 20.9409 27.7915 20.9934ZM1.82595 20.8396C1.80345 20.7871 1.78094 20.7384 1.75844 20.6859L4.00506 19.7107C4.02381 19.752 4.04256 19.7932 4.06131 19.8345L1.82595 20.8396ZM27.9302 20.6859L25.6836 19.707C25.7024 19.6657 25.7211 19.6207 25.7399 19.5794L27.9978 20.5321C27.9753 20.5846 27.9527 20.6334 27.9302 20.6859ZM1.69093 20.5321C1.66842 20.4796 1.64967 20.4308 1.62716 20.3783L3.89629 19.4519C3.91505 19.4932 3.93005 19.5382 3.9488 19.5794L1.69093 20.5321ZM28.0615 20.3783L25.7961 19.4519C25.8149 19.4107 25.8299 19.3657 25.8487 19.3244L28.129 20.2208C28.1028 20.2733 28.084 20.3258 28.0615 20.3783ZM1.56716 20.2245C1.5484 20.172 1.5259 20.1195 1.50715 20.0708L3.79502 19.1969C3.81003 19.2419 3.82878 19.2831 3.84378 19.3282L1.56716 20.2245ZM28.1853 20.0633L25.8974 19.1931C25.9124 19.1481 25.9312 19.1069 25.9462 19.0619L28.2453 19.9057C28.2228 19.9583 28.204 20.0108 28.1853 20.0633ZM1.44714 19.9095C1.42838 19.857 1.40963 19.8045 1.39088 19.752L3.70126 18.9343C3.71626 18.9793 3.73126 19.0206 3.75001 19.0656L1.44714 19.9095ZM28.3016 19.7482L25.9912 18.9306C26.0062 18.8856 26.0212 18.8443 26.0362 18.7993L28.3541 19.5869C28.3391 19.6432 28.3203 19.6957 28.3016 19.7482ZM1.33462 19.5944C1.31586 19.5419 1.30086 19.4894 1.28211 19.4369L3.60749 18.6718C3.6225 18.7168 3.6375 18.7581 3.6525 18.8031L1.33462 19.5944ZM28.4103 19.4294L26.0812 18.668C26.0962 18.623 26.1112 18.5818 26.1224 18.5368L28.4591 19.2681C28.4441 19.3244 28.4253 19.3769 28.4103 19.4294ZM1.2296 19.2794C1.21085 19.2269 1.19585 19.1706 1.18084 19.1181L3.52498 18.4093C3.53998 18.4543 3.55123 18.4955 3.56624 18.5405L1.2296 19.2794ZM28.5116 19.1106L26.1675 18.4055C26.1825 18.3605 26.1937 18.3155 26.205 18.2742L28.5566 18.9531C28.5416 19.0018 28.5266 19.0544 28.5116 19.1106ZM1.13208 18.9568C1.11708 18.9043 1.10208 18.8518 1.08708 18.7993L3.44621 18.143L3.48372 18.278L1.13208 18.9568ZM28.6016 18.7881L26.2425 18.1355C26.2537 18.0904 26.265 18.0454 26.28 18.0004L28.6466 18.623C28.6316 18.6793 28.6166 18.7356 28.6016 18.7881ZM1.04582 18.6343C1.03082 18.5818 1.01582 18.5255 1.00456 18.4693L3.37871 17.8729C3.38996 17.9179 3.40121 17.9629 3.41246 18.0042L1.04582 18.6343ZM28.6879 18.4618L26.31 17.8692C26.3212 17.8242 26.3325 17.7791 26.3437 17.7341L28.7254 18.3005C28.7141 18.3567 28.7029 18.4093 28.6879 18.4618ZM0.963307 18.308C0.952055 18.2555 0.937053 18.1992 0.925801 18.1467L3.31495 17.6066C3.3262 17.6516 3.33745 17.6966 3.34495 17.7416L0.963307 18.308ZM28.7666 18.1392L26.3775 17.5991C26.3887 17.5541 26.3962 17.5091 26.4075 17.4641L28.8041 17.9742C28.7891 18.0304 28.7779 18.0829 28.7666 18.1392ZM0.888296 17.9817C0.877044 17.9292 0.86579 17.8729 0.854538 17.8204L3.25493 17.3366L3.28494 17.4716L0.888296 17.9817ZM28.8341 17.8129L26.4338 17.3291C26.4412 17.2841 26.4525 17.2391 26.46 17.194L28.8679 17.6479C28.8566 17.7041 28.8454 17.7566 28.8341 17.8129ZM0.824533 17.6554C0.813281 17.5991 0.805782 17.5466 0.79453 17.4903L3.20617 17.0628C3.21368 17.1078 3.22118 17.1528 3.23243 17.1978L0.824533 17.6554ZM28.8979 17.4828L26.4863 17.059L26.5088 16.9203L28.9242 17.3178C28.9167 17.3741 28.9054 17.4266 28.8979 17.4828ZM0.764524 17.3253C0.757023 17.2691 0.745771 17.2166 0.73827 17.1603L3.16117 16.7927C3.16867 16.8377 3.17617 16.8827 3.18367 16.9278L0.764524 17.3253ZM28.9504 17.1528L26.5313 16.7815C26.5388 16.7365 26.5463 16.6915 26.55 16.6465L28.9767 16.9878C28.9692 17.044 28.9579 17.0965 28.9504 17.1528ZM0.715765 16.9953C0.708263 16.939 0.700763 16.8827 0.693262 16.8302L3.12366 16.5189C3.13116 16.5639 3.13491 16.6089 3.14241 16.6577L0.715765 16.9953ZM28.9992 16.8227L26.5688 16.5114C26.5763 16.4664 26.58 16.4214 26.5838 16.3727L29.0179 16.6577C29.0104 16.7102 29.0029 16.7665 28.9992 16.8227ZM0.670759 16.6615C0.663258 16.6052 0.659506 16.5527 0.652005 16.4964L3.08616 16.2376L3.10116 16.3764L0.670759 16.6615ZM29.0367 16.4889L26.6025 16.2339C26.6063 16.1889 26.61 16.1439 26.6175 16.0951L29.0554 16.3202C29.0479 16.3764 29.0404 16.4327 29.0367 16.4889ZM0.637002 16.3277C0.633251 16.2714 0.62575 16.2189 0.621999 16.1626L3.06365 15.9601L3.07491 16.0989L0.637002 16.3277ZM29.0667 16.1589L26.625 15.9563C26.6288 15.9113 26.6325 15.8663 26.6363 15.8213L29.0779 15.9901C29.0742 16.0464 29.0704 16.1026 29.0667 16.1589ZM0.610748 15.9976C0.606997 15.9413 0.603247 15.8851 0.599496 15.8288L3.0449 15.6901C3.04865 15.7351 3.04865 15.7801 3.0524 15.8251L0.610748 15.9976ZM29.0892 15.8251L26.6438 15.6826C26.6475 15.6375 26.6475 15.5925 26.6513 15.5475L29.0967 15.66C29.0967 15.7126 29.0929 15.7688 29.0892 15.8251ZM0.588245 15.6638C0.584494 15.6075 0.584496 15.5513 0.580745 15.495L3.02989 15.4125C3.02989 15.4575 3.03365 15.5025 3.03365 15.5475L0.588245 15.6638ZM29.1042 15.4875L26.655 15.405L26.6588 15.2662L29.1079 15.3225C29.1079 15.3787 29.1079 15.4313 29.1042 15.4875ZM0.576994 15.33C0.576994 15.2737 0.573242 15.2175 0.573242 15.1612L3.0224 15.1312C3.0224 15.1762 3.0224 15.225 3.02615 15.27L0.576994 15.33ZM29.1117 15.1537L26.6625 15.1237C26.6625 15.0787 26.6625 15.0299 26.6625 14.9849V14.9699H29.1117V14.9849C29.1154 15.0449 29.1154 15.0975 29.1117 15.1537ZM0.573242 14.9962V14.9887C0.573242 14.9362 0.573242 14.8837 0.573242 14.8312L3.0224 14.8574V14.9887L0.573242 14.9962ZM26.6625 14.8349C26.6625 14.7899 26.6625 14.7411 26.6588 14.6961L29.1079 14.6399C29.1079 14.6961 29.1117 14.7524 29.1117 14.8087L26.6625 14.8349ZM3.02615 14.7149L0.576994 14.6624C0.576994 14.6061 0.580745 14.5499 0.580745 14.4936L3.02989 14.5799C3.02989 14.6249 3.02615 14.6699 3.02615 14.7149ZM26.6588 14.5574C26.6588 14.5124 26.655 14.4636 26.6513 14.4186L29.0967 14.3023C29.1004 14.3586 29.1004 14.4148 29.1042 14.4711L26.6588 14.5574ZM3.03365 14.4373L0.588245 14.3248C0.591996 14.2686 0.591994 14.2123 0.595745 14.156L3.04115 14.2948C3.04115 14.3473 3.0374 14.3923 3.03365 14.4373ZM26.6438 14.2798C26.64 14.2348 26.6363 14.1861 26.6363 14.141L29.0779 13.9685C29.0817 14.0248 29.0854 14.081 29.0892 14.1373L26.6438 14.2798ZM3.0524 14.1636L0.610748 13.9948C0.614498 13.9385 0.618249 13.8823 0.621999 13.826L3.06365 14.0248C3.05615 14.0698 3.05615 14.1148 3.0524 14.1636ZM26.625 14.0023C26.6213 13.9573 26.6175 13.9123 26.6138 13.8673L29.0517 13.6385C29.0554 13.6947 29.0629 13.751 29.0667 13.8072L26.625 14.0023ZM3.07491 13.886L0.637002 13.661C0.640753 13.6047 0.648254 13.5522 0.652005 13.4959L3.08991 13.7472L3.07491 13.886ZM26.5988 13.7247C26.595 13.6797 26.5875 13.6347 26.5838 13.5897L29.0142 13.3009C29.0217 13.3572 29.0254 13.4134 29.0329 13.4697L26.5988 13.7247ZM3.10116 13.6122L0.667008 13.3272C0.674509 13.2709 0.682011 13.2146 0.685762 13.1621L3.11616 13.4734C3.11241 13.5184 3.10866 13.5635 3.10116 13.6122ZM26.565 13.4509C26.5575 13.4059 26.5538 13.3609 26.5463 13.3122L28.9729 12.9709C28.9804 13.0271 28.9879 13.0834 28.9954 13.1359L26.565 13.4509ZM3.13867 13.3347L0.712016 12.9971C0.719517 12.9408 0.727018 12.8846 0.73827 12.8283L3.15742 13.1996C3.14992 13.2446 3.14242 13.2897 3.13867 13.3347ZM26.5275 13.1771C26.52 13.1321 26.5125 13.0871 26.505 13.0384L28.9204 12.6408C28.9279 12.6971 28.9392 12.7496 28.9467 12.8058L26.5275 13.1771ZM3.17992 13.0609L0.764524 12.6671C0.772026 12.6108 0.783278 12.5545 0.79453 12.4983L3.20617 12.9258C3.19492 12.9709 3.18742 13.0159 3.17992 13.0609ZM26.4825 12.9071L26.4563 12.7683L28.8641 12.3107C28.8754 12.367 28.8829 12.4195 28.8942 12.4758L26.4825 12.9071ZM3.22868 12.7871L0.820784 12.3333C0.832036 12.277 0.843287 12.2245 0.854538 12.1682L3.25493 12.6483C3.24368 12.6971 3.23618 12.7421 3.22868 12.7871ZM26.43 12.6333C26.4225 12.5883 26.4112 12.5433 26.4037 12.4983L28.7966 11.9844C28.8079 12.0407 28.8191 12.0932 28.8304 12.1495L26.43 12.6333ZM3.28119 12.517L0.884544 12.0069C0.895796 11.9544 0.907046 11.8982 0.918298 11.8457L3.30744 12.382L3.28119 12.517ZM26.3737 12.3633L26.3437 12.2282L28.7254 11.6619C28.7366 11.7144 28.7516 11.7707 28.7629 11.8232L26.3737 12.3633ZM3.3412 12.247L0.959555 11.6806C0.970807 11.6281 0.98581 11.5719 1.00081 11.5194L3.37871 12.112C3.3637 12.157 3.35245 12.202 3.3412 12.247ZM26.31 12.0932C26.2987 12.0482 26.2875 12.0032 26.2762 11.9582L28.6429 11.3318C28.6579 11.3843 28.6691 11.4406 28.6841 11.4931L26.31 12.0932ZM3.40871 11.9769L1.03832 11.3543C1.05332 11.2981 1.06832 11.2456 1.08333 11.1931L3.44246 11.8457C3.43121 11.8907 3.41996 11.9319 3.40871 11.9769ZM26.2387 11.8232C26.2275 11.7782 26.2125 11.7332 26.2012 11.6919L28.5528 11.0093C28.5678 11.0618 28.5828 11.118 28.5979 11.1706L26.2387 11.8232ZM3.48372 11.7106L1.13208 11.0318C1.14709 10.9793 1.16209 10.9268 1.18084 10.8705L3.52498 11.5756C3.50998 11.6206 3.49497 11.6656 3.48372 11.7106ZM26.16 11.5606C26.1449 11.5156 26.1337 11.4706 26.1187 11.4294L28.4553 10.6942C28.4703 10.7467 28.4891 10.7992 28.5041 10.8518L26.16 11.5606ZM3.56248 11.4444L1.22585 10.713C1.24085 10.6605 1.2596 10.608 1.27836 10.5555L3.60749 11.3131C3.59249 11.3581 3.57748 11.3993 3.56248 11.4444ZM26.0774 11.2943C26.0624 11.2493 26.0474 11.2081 26.0324 11.1631L28.3503 10.3717C28.3691 10.4242 28.3841 10.4767 28.4028 10.5292L26.0774 11.2943ZM3.64875 11.1818L1.33087 10.3942C1.34962 10.3417 1.36837 10.2892 1.38713 10.2329L3.6975 11.0505C3.67875 11.0918 3.66375 11.1368 3.64875 11.1818ZM25.9874 11.0318C25.9724 10.9868 25.9574 10.9455 25.9424 10.9005L28.2415 10.0529C28.2603 10.1054 28.2791 10.1579 28.2978 10.2104L25.9874 11.0318ZM3.74252 10.9193L1.44339 10.0754C1.46214 10.0229 1.48089 9.97036 1.5034 9.91785L3.79127 10.788C3.77252 10.833 3.75752 10.8743 3.74252 10.9193ZM25.8937 10.773C25.8787 10.7317 25.8599 10.6867 25.8449 10.6455L28.1215 9.74532C28.144 9.79783 28.1628 9.85034 28.1815 9.90285L25.8937 10.773ZM3.84003 10.6605L1.55965 9.76408C1.57841 9.71157 1.60091 9.65906 1.62342 9.6103L3.89254 10.533C3.87378 10.5742 3.85878 10.6155 3.84003 10.6605ZM25.7886 10.5142C25.7699 10.4729 25.7549 10.4279 25.7361 10.3867L27.994 9.43402C28.0165 9.48653 28.039 9.53529 28.0578 9.5878L25.7886 10.5142ZM3.94505 10.4017L1.68718 9.44903C1.70968 9.39652 1.73218 9.34401 1.75469 9.29525L4.00131 10.2742C3.98256 10.3192 3.9638 10.3604 3.94505 10.4017ZM25.6836 10.2592C25.6649 10.2179 25.6461 10.1766 25.6274 10.1354L27.859 9.13022C27.8815 9.18273 27.904 9.23149 27.9265 9.284L25.6836 10.2592ZM4.05757 10.1466L1.8222 9.14523C1.8447 9.09272 1.86721 9.04396 1.89346 8.99145L4.11382 10.0229C4.09507 10.0641 4.07632 10.1054 4.05757 10.1466ZM25.5711 10.0116C25.5524 9.97036 25.5336 9.9291 25.5111 9.88785L27.7202 8.83017C27.7427 8.87893 27.769 8.93144 27.7915 8.9802L25.5711 10.0116ZM4.17383 9.89535L1.96472 8.83768C1.98722 8.78892 2.01348 8.73641 2.03973 8.68765L4.23759 9.77158C4.21134 9.81284 4.19259 9.85409 4.17383 9.89535ZM25.4511 9.76033C25.4323 9.71907 25.4098 9.67781 25.3873 9.63656L27.5702 8.52637C27.5964 8.57513 27.6189 8.62389 27.6452 8.6764L25.4511 9.76033ZM4.29761 9.64406L2.11099 8.53763C2.13725 8.48887 2.1635 8.43636 2.18976 8.3876L4.36137 9.52029C4.33886 9.5653 4.31636 9.6028 4.29761 9.64406ZM25.3236 9.51654C25.3011 9.47528 25.2823 9.43402 25.2598 9.39652L27.4164 8.23383C27.4427 8.28258 27.4689 8.33134 27.4952 8.3801L25.3236 9.51654ZM4.42512 9.40027L2.26852 8.24133C2.29478 8.19257 2.32103 8.14381 2.34729 8.09505L4.49264 9.2765L4.42512 9.40027ZM25.196 9.27275L25.1285 9.15273L27.2589 7.94128C27.2851 7.99004 27.3114 8.03879 27.3414 8.0838L25.196 9.27275ZM4.5564 9.15648L2.42605 7.94503C2.4523 7.89627 2.48231 7.84751 2.50856 7.80251L4.62391 9.03646L4.5564 9.15648ZM25.0573 9.02896C25.0348 8.9877 25.0123 8.95019 24.986 8.91269L27.0864 7.65248C27.1164 7.70124 27.1426 7.75 27.1726 7.79875L25.0573 9.02896ZM4.69892 8.91644L2.59858 7.65623C2.62858 7.60747 2.65483 7.55871 2.68484 7.51371L4.77018 8.80017C4.74768 8.83767 4.72143 8.87893 4.69892 8.91644ZM24.9147 8.79267C24.8922 8.75516 24.866 8.71391 24.8435 8.6764L26.9138 7.36743C26.9438 7.41619 26.9738 7.4612 27.0038 7.50996L24.9147 8.79267ZM4.8452 8.68015L2.77486 7.37118C2.80486 7.32243 2.83487 7.27742 2.86487 7.22866L4.92021 8.56388C4.89395 8.60514 4.8677 8.64264 4.8452 8.68015ZM24.7685 8.56013C24.7422 8.52262 24.7197 8.48512 24.6935 8.44386L26.73 7.08614C26.76 7.13114 26.7901 7.1799 26.8238 7.22491L24.7685 8.56013ZM4.99522 8.44761L2.95488 7.09364C2.98489 7.04863 3.01864 6.99987 3.04865 6.95486L5.07023 8.33509C5.04773 8.3726 5.02147 8.41011 4.99522 8.44761ZM24.6147 8.33134L24.5359 8.21507L26.5425 6.81234C26.5725 6.85735 26.6063 6.90236 26.6363 6.94736L24.6147 8.33134ZM5.15275 8.21882L3.14617 6.81609C3.17992 6.77109 3.20993 6.72608 3.24368 6.68107L5.23526 8.11006C5.20525 8.14381 5.179 8.18132 5.15275 8.21882ZM24.4572 8.1063L24.3747 7.99379L26.3475 6.5423C26.3812 6.58731 26.4112 6.63231 26.445 6.67732L24.4572 8.1063ZM5.31402 7.99379L3.3412 6.5423C3.37495 6.49729 3.40871 6.45228 3.44246 6.40728L5.40029 7.88127C5.36653 7.91877 5.34028 7.95628 5.31402 7.99379ZM24.2921 7.88127C24.2659 7.84376 24.2359 7.80625 24.2096 7.7725L26.1487 6.276C26.1825 6.32101 26.2162 6.36602 26.25 6.40728L24.2921 7.88127ZM5.47905 7.7725L3.53998 6.276C3.57373 6.231 3.60749 6.18974 3.64125 6.14473L5.56156 7.66373C5.53531 7.69749 5.50905 7.73499 5.47905 7.7725ZM24.1234 7.65998C24.0971 7.62248 24.0671 7.58872 24.0371 7.55496L25.9387 6.01346C25.9724 6.05847 26.0099 6.09973 26.0437 6.14473L24.1234 7.65998ZM5.65158 7.55496L3.74626 6.01346C3.78002 5.96845 3.81753 5.9272 3.85128 5.88219L5.73409 7.44619C5.71159 7.4837 5.68158 7.51746 5.65158 7.55496ZM23.9471 7.44619C23.9171 7.41244 23.8871 7.37493 23.8571 7.34118L25.7249 5.75467C25.7624 5.79593 25.7961 5.84093 25.8336 5.88219L23.9471 7.44619ZM5.82786 7.34118L3.96005 5.75467C3.99756 5.71341 4.03131 5.67215 4.06882 5.6309L5.91787 7.23616L5.82786 7.34118ZM23.7708 7.23616C23.7408 7.20241 23.7108 7.1649 23.6808 7.13114L25.5111 5.50338C25.5486 5.54463 25.5861 5.58589 25.6199 5.62715L23.7708 7.23616ZM6.01164 7.13114L4.18134 5.50338C4.21884 5.46212 4.25635 5.42086 4.29386 5.37961L6.10165 7.02988C6.07165 7.06363 6.04165 7.09739 6.01164 7.13114ZM23.5833 7.02988C23.5533 6.99612 23.5195 6.96237 23.4895 6.92861L25.2786 5.25584C25.3161 5.29709 25.3536 5.33835 25.3911 5.37961L23.5833 7.02988ZM6.19917 6.92486L4.40637 5.25584C4.44388 5.21458 4.48514 5.17332 4.52264 5.13206L6.29294 6.82735C6.25918 6.8611 6.22918 6.8911 6.19917 6.92486ZM23.3957 6.82735L23.2982 6.72608L25.0498 5.0158C25.0873 5.05705 25.1248 5.09456 25.166 5.13582L23.3957 6.82735ZM6.39045 6.72608L4.63891 5.0158C4.67642 4.97454 4.71767 4.93703 4.75893 4.89578L6.48796 6.62856C6.45421 6.65857 6.42045 6.69232 6.39045 6.72608ZM23.2007 6.62481C23.167 6.59106 23.137 6.56105 23.1032 6.52729L24.8135 4.77576C24.8547 4.81701 24.8922 4.85452 24.9335 4.89578L23.2007 6.62481ZM6.58548 6.53105L4.8752 4.77951L4.99522 4.66699L6.6905 6.43728L6.58548 6.53105ZM23.0057 6.43353C22.9719 6.39977 22.9382 6.36977 22.9044 6.33976L24.5734 4.54697C24.6147 4.58448 24.656 4.62198 24.6935 4.66324L23.0057 6.43353ZM6.78427 6.33976L5.11524 4.54697C5.1565 4.50946 5.19775 4.47196 5.23901 4.43445L6.88553 6.246C6.85177 6.276 6.81802 6.30601 6.78427 6.33976ZM22.7994 6.24225C22.7656 6.21224 22.7319 6.18224 22.6981 6.15223L24.3259 4.32193C24.3672 4.35944 24.4084 4.39694 24.4534 4.43445L22.7994 6.24225ZM6.99055 6.15223L5.36278 4.32193C5.40404 4.28443 5.44529 4.24692 5.48655 4.21316L7.09181 6.06222C7.06181 6.09222 7.02431 6.12223 6.99055 6.15223ZM22.5931 6.05847C22.5594 6.02846 22.5219 5.99846 22.4881 5.96845L24.0709 4.10065C24.1121 4.13815 24.1571 4.17191 24.1984 4.20941L22.5931 6.05847ZM7.20058 5.96845L5.61407 4.10065C5.65533 4.06314 5.70034 4.02938 5.74534 3.99188L7.3056 5.87844C7.2681 5.9122 7.23434 5.9422 7.20058 5.96845ZM22.3793 5.87844C22.3456 5.84843 22.3081 5.81843 22.2743 5.79217L23.8158 3.88686C23.8608 3.92062 23.9021 3.95812 23.9471 3.99188L22.3793 5.87844ZM7.41437 5.79217L5.87286 3.88686C5.91412 3.8531 5.95913 3.8156 6.00414 3.78184L7.52314 5.70216C7.48563 5.73592 7.44812 5.76592 7.41437 5.79217ZM22.1655 5.70591C22.128 5.6759 22.0943 5.64965 22.0568 5.61965L23.5533 3.68058C23.5983 3.71433 23.6395 3.74809 23.6845 3.78184L22.1655 5.70591ZM7.6319 5.6234L6.13541 3.68433C6.18041 3.65057 6.22542 3.61682 6.26668 3.58306L7.74067 5.53713C7.70317 5.56714 7.66566 5.59339 7.6319 5.6234ZM21.948 5.53713C21.9105 5.51088 21.873 5.48087 21.8355 5.45462L23.287 3.48179C23.332 3.51555 23.377 3.54931 23.422 3.58306L21.948 5.53713ZM7.84944 5.45462L6.4017 3.48179C6.44671 3.44804 6.49172 3.41803 6.53672 3.38428L7.96571 5.3721L7.84944 5.45462ZM21.723 5.3721C21.6855 5.34585 21.648 5.3196 21.6105 5.29334L23.0132 3.28676C23.0582 3.32052 23.1032 3.35052 23.152 3.38428L21.723 5.3721ZM8.07448 5.29334L6.67175 3.28676C6.71675 3.25301 6.76176 3.223 6.81052 3.193L8.19075 5.21833C8.15324 5.24083 8.11199 5.26709 8.07448 5.29334ZM21.4942 5.21083C21.4567 5.18457 21.4192 5.15832 21.3817 5.13582L22.7356 3.09548C22.7844 3.12548 22.8294 3.15924 22.8782 3.18925L21.4942 5.21083ZM8.30702 5.13957L6.94929 3.10298C6.9943 3.07298 7.04306 3.04297 7.08807 3.00922L8.41954 5.06455C8.38203 5.08706 8.34452 5.11331 8.30702 5.13957ZM21.2654 5.0608C21.2279 5.03455 21.1866 5.01205 21.1491 4.98579L22.4581 2.91545C22.5069 2.94546 22.5519 2.97546 22.6006 3.00547L21.2654 5.0608ZM8.5358 4.98579L7.22684 2.91545C7.27559 2.88545 7.3206 2.85544 7.36936 2.82543L8.65207 4.91078C8.61457 4.93703 8.57706 4.96329 8.5358 4.98579ZM21.0291 4.91078C20.9916 4.88828 20.9503 4.86202 20.9128 4.83952L22.173 2.73917C22.2218 2.76918 22.2706 2.79543 22.3156 2.82543L21.0291 4.91078ZM8.77209 4.84327L7.51189 2.74292C7.56065 2.71292 7.6094 2.68666 7.65816 2.65666L8.89211 4.77201C8.85085 4.79451 8.81335 4.82077 8.77209 4.84327ZM20.7928 4.76825C20.7516 4.74575 20.7141 4.72325 20.6728 4.70074L21.8805 2.57039C21.9293 2.59665 21.978 2.62665 22.0268 2.65291L20.7928 4.76825ZM9.01213 4.70449L7.80068 2.57414C7.84944 2.54789 7.8982 2.51788 7.94695 2.49163L9.13215 4.63323C9.09089 4.65949 9.04964 4.68199 9.01213 4.70449ZM20.5528 4.63323C20.5115 4.61073 20.4703 4.58823 20.429 4.56572L21.588 2.40912C21.6367 2.43537 21.6855 2.46163 21.7342 2.48788L20.5528 4.63323ZM9.25217 4.56947L8.09323 2.41287C8.14199 2.38661 8.19074 2.36036 8.2395 2.33411L9.37594 4.50571C9.33468 4.52447 9.29343 4.54697 9.25217 4.56947ZM20.3052 4.50196C20.264 4.47946 20.2227 4.46071 20.1815 4.4382L21.2879 2.25159C21.3367 2.27785 21.3892 2.3041 21.4379 2.32661L20.3052 4.50196ZM9.49596 4.44195L8.38578 2.25909C8.43453 2.23284 8.48329 2.21033 8.5358 2.18408L9.61973 4.37819C9.57847 4.4007 9.53722 4.41945 9.49596 4.44195ZM20.0577 4.37444C20.0164 4.35569 19.9752 4.33318 19.9339 4.31443L20.9916 2.10532C21.0441 2.12782 21.0929 2.15408 21.1416 2.18033L20.0577 4.37444ZM9.7435 4.31818L8.68583 2.10907C8.73458 2.08657 8.78335 2.06031 8.83585 2.03781L9.87102 4.25817L9.7435 4.31818ZM19.8064 4.25442C19.7652 4.23567 19.7239 4.21692 19.6826 4.19816L20.6841 1.96279C20.7366 1.9853 20.7853 2.0078 20.8378 2.03406L19.8064 4.25442ZM9.99479 4.20191L8.98962 1.97029C9.04213 1.94779 9.09089 1.92529 9.1434 1.90278L10.1186 4.14941C10.0773 4.16441 10.0361 4.18316 9.99479 4.20191ZM19.5551 4.1419C19.5139 4.12315 19.4689 4.1044 19.4276 4.08564L20.3803 1.82777C20.4328 1.85028 20.4815 1.87278 20.534 1.89528L19.5551 4.1419ZM10.2498 4.09315L9.29718 1.83527C9.34969 1.81277 9.40219 1.79027 9.4547 1.77151L10.3774 4.04064C10.3324 4.05939 10.2911 4.07439 10.2498 4.09315ZM19.2963 4.03313C19.2551 4.01438 19.2101 3.99938 19.1651 3.98063L20.0614 1.70025C20.114 1.719 20.1665 1.74151 20.2152 1.76401L19.2963 4.03313ZM10.5049 3.98813L9.60473 1.7115C9.65724 1.69275 9.70974 1.67025 9.7585 1.65149L10.6324 3.93937C10.5911 3.95437 10.5461 3.97313 10.5049 3.98813ZM19.0413 3.93187C18.9963 3.91687 18.955 3.89811 18.91 3.88311L19.7539 1.58398C19.8064 1.60273 19.8589 1.62149 19.9114 1.64399L19.0413 3.93187ZM10.7637 3.89061L9.91978 1.59148C9.97229 1.57273 10.0248 1.55398 10.0773 1.53522L10.8949 3.84185C10.8499 3.85686 10.8049 3.87186 10.7637 3.89061ZM18.7787 3.83435C18.7337 3.81935 18.6925 3.80435 18.6475 3.78934L19.4351 1.47147C19.4876 1.49022 19.5401 1.50897 19.5964 1.52772L18.7787 3.83435ZM11.0225 3.79685L10.2311 1.47897C10.2836 1.46021 10.3361 1.44521 10.3886 1.42646L11.1537 3.75184C11.1125 3.76684 11.0675 3.78184 11.0225 3.79685ZM18.5162 3.74809C18.4712 3.73309 18.4262 3.71808 18.3812 3.70683L19.1125 1.3702C19.1651 1.3852 19.2176 1.40395 19.2701 1.42271L18.5162 3.74809ZM11.2888 3.71058L10.5536 1.37395C10.6061 1.35895 10.6587 1.34019 10.7112 1.32519L11.42 3.66932C11.375 3.68433 11.33 3.69558 11.2888 3.71058ZM18.2499 3.66558C18.2049 3.65057 18.1599 3.63932 18.1149 3.62807L18.7937 1.27643C18.8462 1.29143 18.8988 1.30644 18.955 1.32519L18.2499 3.66558ZM11.5513 3.63182L10.8724 1.28018C10.9249 1.26518 10.9775 1.25018 11.0337 1.23517L11.6863 3.59431C11.6413 3.60556 11.5963 3.61682 11.5513 3.63182ZM17.9836 3.58681C17.9386 3.57556 17.8936 3.56431 17.8486 3.5493L18.4712 1.17891C18.5237 1.19392 18.58 1.20892 18.6325 1.22017L17.9836 3.58681ZM11.8176 3.55681L11.1912 1.19017C11.2437 1.17517 11.3 1.16391 11.3525 1.14891L11.9526 3.52305C11.9076 3.5343 11.8626 3.54556 11.8176 3.55681ZM17.7173 3.51555C17.6723 3.5043 17.6273 3.49304 17.5823 3.48179L18.1449 1.10015C18.2011 1.1114 18.2537 1.12641 18.3099 1.14141L17.7173 3.51555ZM12.0876 3.4893L11.5213 1.10765L11.6826 1.07015L12.2302 3.45929L12.0876 3.4893ZM17.4473 3.45554L17.3085 3.42554L17.8186 1.02889C17.8711 1.04014 17.9273 1.05139 17.9799 1.06265L17.4473 3.45554ZM12.3577 3.42928L11.8438 1.03639C11.9001 1.02514 11.9526 1.01389 12.0089 1.00264L12.4927 3.40303C12.4477 3.41053 12.4027 3.41803 12.3577 3.42928ZM17.1735 3.39553C17.1285 3.38803 17.0835 3.37678 17.0385 3.36928L17.4923 0.961381C17.5485 0.972633 17.601 0.983883 17.6573 0.995135L17.1735 3.39553ZM12.6277 3.37303L12.1702 0.96513C12.2264 0.953878 12.2789 0.946379 12.3352 0.935127L12.7665 3.34677L12.6277 3.37303ZM16.9034 3.34302C16.8584 3.33552 16.8134 3.32802 16.7684 3.32052L17.1622 0.905121C17.2185 0.912622 17.271 0.923874 17.3273 0.931375L16.9034 3.34302ZM12.9015 3.32427L12.504 0.908873C12.5602 0.901371 12.6127 0.890117 12.669 0.882616L13.0365 3.30552C12.9915 3.30927 12.9465 3.31677 12.9015 3.32427ZM16.6296 3.29801C16.5846 3.29051 16.5396 3.28301 16.4946 3.27926L16.8322 0.852613C16.8884 0.860114 16.9447 0.867615 17.0009 0.878867L16.6296 3.29801ZM13.1753 3.28301L12.834 0.856361C12.8903 0.84886 12.9428 0.84136 12.999 0.833859L13.3141 3.26426L13.1753 3.28301ZM16.3558 3.26051C16.3108 3.25301 16.2658 3.24926 16.2208 3.24551L16.5021 0.811356C16.5584 0.818857 16.6146 0.826357 16.6709 0.830107L16.3558 3.26051ZM13.4491 3.24926L13.1641 0.815107C13.2203 0.807606 13.2766 0.803854 13.3291 0.796353L13.5841 3.2305C13.5429 3.238 13.4941 3.24176 13.4491 3.24926ZM16.0783 3.2305C16.0333 3.22675 15.9883 3.223 15.9395 3.2155L16.1646 0.777599C16.2208 0.781349 16.2771 0.788851 16.3296 0.792602L16.0783 3.2305ZM13.7267 3.21925L13.4979 0.78135C13.5541 0.7776 13.6104 0.770098 13.6666 0.766347L13.8654 3.208C13.8167 3.21175 13.7717 3.2155 13.7267 3.21925ZM15.8045 3.20425L15.6657 3.193L15.8345 0.751345C15.8908 0.755095 15.9433 0.758845 15.9995 0.762596L15.8045 3.20425ZM14.0042 3.19675L13.8317 0.755096C13.8879 0.751345 13.9442 0.747595 14.0005 0.743845L14.1392 3.18925C14.0942 3.18925 14.0492 3.193 14.0042 3.19675ZM15.527 3.1855C15.4819 3.18175 15.4332 3.18174 15.3882 3.17799L15.5007 0.732593C15.557 0.736344 15.6132 0.736342 15.6695 0.740093L15.527 3.1855ZM14.278 3.17799L14.1617 0.732593C14.218 0.728843 14.2742 0.728841 14.3305 0.72509L14.4168 3.17424C14.3718 3.17424 14.3268 3.17799 14.278 3.17799ZM15.2494 3.17424C15.2044 3.17424 15.1556 3.17049 15.1106 3.17049L15.1631 0.721342C15.2194 0.721342 15.2757 0.72509 15.3319 0.72509L15.2494 3.17424ZM14.5555 3.17049L14.4993 0.721342C14.5555 0.721342 14.6081 0.71759 14.6643 0.71759L14.6981 3.16674L14.5555 3.17049ZM14.9719 3.16674H14.8443L14.8331 0.71759H14.8443C14.8968 0.71759 14.9494 0.71759 14.9981 0.71759L14.9719 3.16674Z" fill="url(#paint0_linear)"/>
<defs>
<linearGradient id="paint0_linear" x1="14.8442" y1="29.2578" x2="14.8442" y2="0.717216" gradientUnits="userSpaceOnUse">
<stop stop-color="#C6C6C6"/>
<stop offset="0.00982918" stop-color="#BABABA"/>
<stop offset="0.0277" stop-color="#999999"/>
<stop offset="0.0517" stop-color="#646464"/>
<stop offset="0.0805" stop-color="#1C1C1C"/>
<stop offset="0.082" stop-color="#181818"/>
<stop offset="0.1649" stop-color="#181818"/>
<stop offset="0.1798" stop-color="#1F1F1F"/>
<stop offset="0.2014" stop-color="#323232"/>
<stop offset="0.2269" stop-color="#525252"/>
<stop offset="0.2548" stop-color="#7C7C7C"/>
<stop offset="0.3062" stop-color="#A3A3A3"/>
<stop offset="0.3992" stop-color="#E5E5E5"/>
<stop offset="0.443" stop-color="white"/>
<stop offset="0.4741" stop-color="#EAEAEA"/>
<stop offset="0.5303" stop-color="#CBCBCB"/>
<stop offset="0.5777" stop-color="#B8B8B8"/>
<stop offset="0.6105" stop-color="#B1B1B1"/>
<stop offset="0.6332" stop-color="#A5A5A5"/>
<stop offset="0.6746" stop-color="#848484"/>
<stop offset="0.7294" stop-color="#505050"/>
<stop offset="0.7815" stop-color="#181818"/>
<stop offset="0.8936" stop-color="#777777"/>
<stop offset="0.919" stop-color="#8D8D8D"/>
<stop offset="0.943" stop-color="#909090"/>
<stop offset="0.9629" stop-color="#9B9B9B"/>
<stop offset="0.9813" stop-color="#ACACAC"/>
<stop offset="0.9987" stop-color="#C4C4C4"/>
<stop offset="1" stop-color="#C6C6C6"/>
</linearGradient>
</defs>
</svg>
