<svg width="24" height="19" viewBox="0 0 24 19" fill="none" xmlns="http://www.w3.org/2000/svg">
<path opacity="0.3" d="M19.8811 2.51464C19.8811 2.51464 18.7691 1.17346 16.8244 1.23653C14.5221 1.31259 12.3838 2.71498 12.6296 6.31002C12.6296 6.31002 9.16132 7.36182 3.76511 2.25123C3.76511 2.25123 2.02907 5.07086 5.09879 7.72725C5.09879 7.72725 4.23636 7.9647 3.08522 7.32657C3.08522 7.32657 2.46867 9.70656 6.41944 11.5115C6.41944 11.5115 5.08575 11.8881 4.48224 11.5115C4.48224 11.5115 4.83429 14.0418 8.38271 14.6446C8.38271 14.6446 6.55914 16.4496 2.24329 16.3995C2.24329 16.3995 11.2177 20.9721 17.4391 15.0954C21.8816 10.8993 21.2651 5.29718 21.2651 5.29718C21.2651 5.29718 22.5727 4.89649 23.3531 3.48111C23.3531 3.48111 21.8686 3.94486 21.0136 3.86881C21.0136 3.86881 22.649 2.85226 22.7757 1.6502C22.7757 1.6502 21.3787 2.63893 19.8811 2.51464Z" fill="#555253"/>
<path d="M17.9718 1.56249C17.9718 1.56249 16.8598 0.221313 14.9151 0.284383C12.6128 0.360439 10.4745 1.76284 10.7203 5.35787C10.7203 5.35787 7.25202 6.40967 1.85581 1.29908C1.85581 1.29908 0.119772 4.11871 3.18949 6.77511C3.18949 6.77511 2.32706 7.01255 1.17592 6.37442C1.17592 6.37442 0.559373 8.75441 4.51014 10.5594C4.51014 10.5594 3.17645 10.9359 2.57294 10.5594C2.57294 10.5594 2.92499 13.0896 6.47341 13.6925C6.47341 13.6925 4.64984 15.4974 0.333984 15.4473C0.333984 15.4473 9.30843 20.02 15.5298 14.1433C19.9723 9.94719 19.3558 4.34503 19.3558 4.34503C19.3558 4.34503 20.6634 3.94434 21.4439 2.52896C21.4439 2.52896 19.9593 2.99272 19.1043 2.91666C19.1043 2.91666 20.7398 1.90011 20.8664 0.698053C20.8664 0.698053 19.4694 1.68863 17.9718 1.56249Z" fill="white"/>
</svg>
