<svg width="48" height="49" viewBox="0 0 48 49" fill="none" xmlns="http://www.w3.org/2000/svg">
<path d="M24 0.81665V27.7667H44C45.7601 27.7667 47.2 29.9716 47.2 32.6667V0.81665H24Z" fill="#54C9FD"/>
<path d="M47.2 31.0333L44.8 28.5834V0.81665H47.2V31.0333Z" fill="#33A9F8"/>
<path d="M20.7999 37.5666C19.0399 37.5666 17.5999 35.3617 17.5999 32.6666C17.5999 29.9716 19.0399 27.7666 20.7999 27.7666H24V0.81665H0.799927V48.1833H24V37.5666H20.7999Z" fill="#FFDD09"/>
<path d="M0.799927 48.1833H3.1999V0.81665H0.799927V48.1833Z" fill="white"/>
<path d="M47.2001 32.6666C47.2001 35.3616 45.7601 37.5667 44.0001 37.5667C42.24 37.5667 40.8 35.3617 40.8 32.6666C40.8 29.9717 42.24 27.7666 44.0001 27.7666C45.7601 27.7666 47.2001 29.9716 47.2001 32.6666Z" fill="#33A9F8"/>
<path d="M40.8001 32.6666C40.8001 29.9717 42.2401 27.7666 44.0002 27.7666H20.8001C19.0401 27.7666 17.6001 29.9716 17.6001 32.6666C17.6001 35.3616 19.0401 37.5667 20.8001 37.5667H44.0002C42.2401 37.5666 40.8001 35.3616 40.8001 32.6666Z" fill="#54C9FD"/>
<path d="M44 38.3834C41.7599 38.3834 40 35.8517 40 32.6667C40 29.4818 41.76 26.9501 44 26.9501C46.24 26.9501 48 29.4818 48 32.6667C48 35.8517 46.24 38.3834 44 38.3834ZM44 28.5833C42.72 28.5833 41.6 30.4617 41.6 32.6666C41.6 34.8716 42.72 36.7499 44 36.7499C45.28 36.7499 46.4 34.8716 46.4 32.6666C46.4001 30.4617 45.28 28.5833 44 28.5833Z" fill="black"/>
<path d="M44.0001 38.3834H20.8C18.56 38.3834 16.8 35.8517 16.8 32.6667C16.8 29.4818 18.5601 26.9501 20.8 26.9501H44.0001C44.4801 26.9501 44.8 27.2767 44.8 27.7667C44.8 28.2567 44.4801 28.5833 44.0001 28.5833C42.7201 28.5833 41.6001 30.4617 41.6001 32.6666C41.6001 34.8716 42.7201 36.7499 44.0001 36.7499C44.4801 36.7499 44.8 37.0766 44.8 37.5666C44.8001 38.0566 44.4801 38.3834 44.0001 38.3834ZM20.8 28.5833C19.52 28.5833 18.4001 30.4617 18.4001 32.6666C18.4001 34.8716 19.5201 36.7499 20.8 36.7499H41.2001C40.4801 35.6883 40.0001 34.3 40.0001 32.6666C40.0001 31.0333 40.4801 29.6449 41.2001 28.5833H20.8Z" fill="black"/>
<path d="M47.2001 33.4833C46.7201 33.4833 46.4001 33.1567 46.4001 32.6667C46.4001 30.4617 45.2801 28.5834 44.0001 28.5834H24C23.52 28.5834 23.2001 28.2567 23.2001 27.7667V0.816623C23.2001 0.32663 23.52 0 24 0H47.2001C47.6801 0 48 0.32663 48 0.816623V32.6666C48.0001 33.1567 47.6801 33.4833 47.2001 33.4833ZM24.8001 26.95H44.0001C44.8802 26.95 45.7602 27.3584 46.4001 28.0934V1.63334H24.8001V26.95Z" fill="black"/>
<path d="M24 49H0.799959C0.319964 49 0 48.6734 0 48.1834V0.816623C0 0.32663 0.319964 0 0.799959 0H24C24.48 0 24.8 0.32663 24.8 0.816623V27.7666C24.8 28.2566 24.48 28.5833 24 28.5833H20.8C19.5199 28.5833 18.4 30.4616 18.4 32.6666C18.4 34.8715 19.52 36.7499 20.8 36.7499H24C24.48 36.7499 24.8 37.0765 24.8 37.5665V48.1832C24.8001 48.6733 24.48 49 24 49ZM1.60001 47.3667H23.2V38.3833H20.8001C18.56 38.3833 16.8001 35.8516 16.8001 32.6667C16.8001 29.4817 18.5601 26.95 20.8001 26.95H23.2V1.63334H1.60001V47.3667Z" fill="black"/>
</svg>
