<svg width="48" height="37" viewBox="0 0 48 37" fill="none" xmlns="http://www.w3.org/2000/svg">
<path d="M44 28.5208C43.5582 28.5208 43.2 28.1757 43.2 27.75C43.2 26.4728 42.1255 25.4375 40.8 25.4375C40.3582 25.4375 40 25.0924 40 24.6667C40 24.241 40.3582 23.8958 40.8 23.8958C42.1255 23.8958 43.2 22.8605 43.2 21.5833C43.2 21.1576 43.5582 20.8125 44 20.8125C44.4418 20.8125 44.8 21.1576 44.8 21.5833C44.8 22.8605 45.8745 23.8958 47.2 23.8958C47.6418 23.8958 48 24.241 48 24.6667C48 25.0924 47.6418 25.4375 47.2 25.4375C45.8745 25.4375 44.8 26.4728 44.8 27.75C44.8 28.1757 44.4418 28.5208 44 28.5208ZM43.2 24.6667C43.5031 24.886 43.7724 25.1455 44 25.4375C44.2276 25.1455 44.4969 24.886 44.8 24.6667C44.4969 24.4474 44.2276 24.1879 44 23.8958C43.7724 24.1879 43.5031 24.4474 43.2 24.6667Z" fill="#87CEE9"/>
<path d="M36 34.6875C35.5582 34.6875 35.2 34.3423 35.2 33.9166C35.2 32.6395 34.1255 31.6041 32.8 31.6041C32.3582 31.6041 32 31.259 32 30.8333C32 30.4076 32.3582 30.0625 32.8 30.0625C34.1255 30.0625 35.2 29.0271 35.2 27.75C35.2 27.3243 35.5582 26.9791 36 26.9791C36.4418 26.9791 36.8 27.3243 36.8 27.75C36.8 29.0271 37.8745 30.0625 39.2 30.0625C39.6418 30.0625 40 30.4076 40 30.8333C40 31.259 39.6418 31.6041 39.2 31.6041C37.8745 31.6041 36.8 32.6395 36.8 33.9166C36.8 34.3423 36.4418 34.6875 36 34.6875ZM35.2 30.8333C35.5031 31.0526 35.7724 31.3121 36 31.6041C36.2276 31.3121 36.4969 31.0526 36.8 30.8333C36.4969 30.614 36.2276 30.3545 36 30.0625C35.7724 30.3545 35.5031 30.614 35.2 30.8333Z" fill="#32B1CC"/>
<path d="M12 10.7917C11.5582 10.7917 11.2 10.4466 11.2 10.0209C11.2 8.7437 10.1255 7.70837 8.8 7.70837C8.3582 7.70837 8 7.36323 8 6.93754C8 6.51185 8.3582 6.16671 8.8 6.16671C10.1255 6.16671 11.2 5.13138 11.2 3.85421C11.2 3.42851 11.5582 3.08337 12 3.08337C12.4418 3.08337 12.8 3.42851 12.8 3.85421C12.8 5.13138 13.8745 6.16671 15.2 6.16671C15.6418 6.16671 16 6.51185 16 6.93754C16 7.36323 15.6418 7.70837 15.2 7.70837C13.8745 7.70837 12.8 8.7437 12.8 10.0209C12.8 10.4466 12.4418 10.7917 12 10.7917ZM11.2 6.93754C11.5031 7.15684 11.7724 7.41632 12 7.70837C12.2276 7.41632 12.4969 7.15684 12.8 6.93754C12.4969 6.71824 12.2276 6.45876 12 6.16671C11.7724 6.45876 11.5031 6.71824 11.2 6.93754Z" fill="black"/>
<path d="M4 16.9583C3.5582 16.9583 3.2 16.6132 3.2 16.1875C3.2 14.9103 2.1255 13.875 0.8 13.875C0.3582 13.875 0 13.5299 0 13.1042C0 12.6785 0.3582 12.3333 0.8 12.3333C2.1255 12.3333 3.2 11.298 3.2 10.0208C3.2 9.59514 3.5582 9.25 4 9.25C4.4418 9.25 4.8 9.59514 4.8 10.0208C4.8 11.298 5.8745 12.3333 7.2 12.3333C7.6418 12.3333 8 12.6785 8 13.1042C8 13.5299 7.6418 13.875 7.2 13.875C5.8745 13.875 4.8 14.9103 4.8 16.1875C4.8 16.6132 4.4418 16.9583 4 16.9583ZM3.2 13.1042C3.5031 13.3235 3.7724 13.583 4 13.875C4.2276 13.583 4.4969 13.3235 4.8 13.1042C4.4969 12.8849 4.2276 12.6254 4 12.3333C3.7724 12.6254 3.5031 12.8849 3.2 13.1042Z" fill="#87CEE9"/>
<path d="M7.19995 0.770752H40.7999V36.2291H7.19995V0.770752Z" fill="#87CEE9"/>
<path d="M26.4 8.47996C25.9582 8.47987 25.6001 8.13472 25.6002 7.70894C25.6002 7.50457 25.6845 7.30858 25.8344 7.16415L33.0344 0.226649C33.3522 -0.0690622 33.8586 -0.0606795 34.1656 0.245534C34.465 0.544232 34.465 1.01781 34.1656 1.31661L26.9656 8.25411C26.8156 8.39864 26.6122 8.47996 26.4 8.47996Z" fill="#32B1CC"/>
<path d="M26.4 13.105C25.9582 13.1049 25.6001 12.7597 25.6002 12.3339C25.6002 12.1296 25.6845 11.9336 25.8344 11.7891L37.8344 0.226649C38.1522 -0.0690622 38.6586 -0.0606795 38.9656 0.245534C39.265 0.544232 39.265 1.01781 38.9656 1.31661L26.9656 12.8791C26.8156 13.0236 26.6122 13.105 26.4 13.105Z" fill="#32B1CC"/>
<path d="M21.6001 37C21.1583 36.9999 20.8002 36.6548 20.8003 36.229C20.8003 36.0246 20.8846 35.8287 21.0345 35.6842L28.2345 28.7467C28.5523 28.4509 29.0587 28.4594 29.3657 28.7656C29.6652 29.0643 29.6652 29.538 29.3657 29.8367L22.1657 36.7742C22.0157 36.9187 21.8123 37 21.6001 37Z" fill="#32B1CC"/>
<path d="M16.8 37C16.3582 36.9999 16.0001 36.6548 16.0002 36.229C16.0002 36.0246 16.0845 35.8287 16.2344 35.6842L28.2344 24.1217C28.5522 23.8259 29.0586 23.8344 29.3656 24.1406C29.6651 24.4393 29.6651 24.913 29.3656 25.2117L17.3656 36.7742C17.2156 36.9187 17.0122 37 16.8 37Z" fill="#32B1CC"/>
<path d="M47.2 23.8958C45.8745 23.8958 44.8 22.8605 44.8 21.5833C44.8 21.1576 44.4418 20.8125 44 20.8125C43.5582 20.8125 43.2 21.1576 43.2 21.5833C43.1958 22.5598 42.5555 23.4285 41.6 23.754V0.770833C41.6 0.345141 41.2418 0 40.8 0H7.2C6.7582 0 6.4 0.345141 6.4 0.770833V12.1915C5.4445 11.866 4.8042 10.9973 4.8 10.0208C4.8 9.59514 4.4418 9.25 4 9.25C3.5582 9.25 3.2 9.59514 3.2 10.0208C3.2 11.298 2.1255 12.3333 0.8 12.3333C0.3582 12.3333 0 12.6785 0 13.1042C0 13.5299 0.3582 13.875 0.8 13.875C2.1255 13.875 3.2 14.9103 3.2 16.1875C3.2 16.6132 3.5582 16.9583 4 16.9583C4.4418 16.9583 4.8 16.6132 4.8 16.1875C4.8042 15.211 5.4445 14.3423 6.4 14.0168V36.2292C6.4 36.6549 6.7582 37 7.2 37H40.8C41.2418 37 41.6 36.6549 41.6 36.2292V25.5793C42.5555 25.9048 43.1958 26.7735 43.2 27.75C43.2 28.1757 43.5582 28.5208 44 28.5208C44.4418 28.5208 44.8 28.1757 44.8 27.75C44.8 26.4728 45.8745 25.4375 47.2 25.4375C47.6418 25.4375 48 25.0924 48 24.6667C48 24.241 47.6418 23.8958 47.2 23.8958ZM4 13.875C3.7724 13.583 3.5031 13.3235 3.2 13.1042C3.5031 12.8849 3.7724 12.6254 4 12.3333C4.2276 12.6254 4.4969 12.8849 4.8 13.1042C4.4969 13.3235 4.2276 13.583 4 13.875ZM40 30.8333V35.4583H23.5312L29.3656 29.8366C29.6726 29.5304 29.6638 29.0425 29.346 28.7467C29.036 28.4581 28.5444 28.4581 28.2344 28.7467L21.2688 35.4583H18.7312L29.3656 25.2116C29.6726 24.9054 29.6638 24.4175 29.346 24.1217C29.036 23.8331 28.5444 23.8331 28.2344 24.1217L16.4688 35.4583H8V1.54167H31.6688L25.8344 7.16335C25.5166 7.45916 25.5078 7.9471 25.8148 8.25331C26.1218 8.55953 26.6282 8.56801 26.946 8.2722C26.9527 8.26603 26.9592 8.25967 26.9656 8.25331L33.9312 1.54167H36.4688L25.8344 11.7884C25.5166 12.0841 25.5078 12.5721 25.8148 12.8783C26.1218 13.1845 26.6282 13.193 26.946 12.8972C26.9527 12.891 26.9592 12.8847 26.9656 12.8783L38.7312 1.54167H40V30.8333ZM44 25.4375C43.7724 25.1455 43.5031 24.886 43.2 24.6667C43.5031 24.4474 43.7724 24.1879 44 23.8958C44.2276 24.1879 44.4969 24.4474 44.8 24.6667C44.4969 24.886 44.2276 25.1455 44 25.4375Z" fill="black"/>
<path d="M39.2 30.0625C37.8745 30.0625 36.8 29.0271 36.8 27.75C36.8 27.3243 36.4418 26.9791 36 26.9791C35.5582 26.9791 35.2 27.3243 35.2 27.75C35.2 29.0271 34.1255 30.0625 32.8 30.0625C32.3582 30.0625 32 30.4076 32 30.8333C32 31.259 32.3582 31.6041 32.8 31.6041C34.1255 31.6041 35.2 32.6395 35.2 33.9166C35.2 34.3423 35.5582 34.6875 36 34.6875C36.4418 34.6875 36.8 34.3423 36.8 33.9166C36.8 32.6395 37.8745 31.6041 39.2 31.6041C39.6418 31.6041 40 31.259 40 30.8333C40 30.4076 39.6418 30.0625 39.2 30.0625ZM36 31.6041C35.7724 31.3121 35.5031 31.0526 35.2 30.8333C35.5031 30.614 35.7724 30.3545 36 30.0625C36.2276 30.3545 36.4969 30.614 36.8 30.8333C36.4969 31.0526 36.2276 31.3121 36 31.6041Z" fill="black"/>
<path d="M8.8 7.70837C10.1255 7.70837 11.2 8.7437 11.2 10.0209C11.2 10.4466 11.5582 10.7917 12 10.7917C12.4418 10.7917 12.8 10.4466 12.8 10.0209C12.8 8.7437 13.8745 7.70837 15.2 7.70837C15.6418 7.70837 16 7.36323 16 6.93754C16 6.51185 15.6418 6.16671 15.2 6.16671C13.8745 6.16671 12.8 5.13138 12.8 3.85421C12.8 3.42851 12.4418 3.08337 12 3.08337C11.5582 3.08337 11.2 3.42851 11.2 3.85421C11.2 5.13138 10.1255 6.16671 8.8 6.16671C8.3582 6.16671 8 6.51185 8 6.93754C8 7.36323 8.3582 7.70837 8.8 7.70837ZM12 6.16671C12.2276 6.45876 12.4969 6.71824 12.8 6.93754C12.4969 7.15684 12.2276 7.41632 12 7.70837C11.7724 7.41632 11.5031 7.15684 11.2 6.93754C11.5031 6.71824 11.7724 6.45876 12 6.16671Z" fill="black"/>
</svg>
