<svg width="229" height="99" viewBox="0 0 229 99" fill="none" xmlns="http://www.w3.org/2000/svg">
<path opacity="0.28" d="M21.5411 28.4552L35.775 82.6609C36.5246 85.5123 40.0115 87.4925 43.891 87.2671L193.685 78.6068C197.309 78.3966 200.238 76.3176 200.699 73.6258L206.6 39.1844C207.152 35.9583 204.001 33.0386 199.664 32.7549L29.7381 21.6484C24.6508 21.3167 20.5586 24.715 21.5411 28.4552Z" fill="#4A980D"/>
<path d="M19.8948 31.9826L212.016 23.183C217.047 22.9525 220.945 26.4901 219.772 30.2278L204.685 78.4042C203.857 81.0504 200.699 82.8863 197.131 82.7977L30.5279 78.6346C27.1093 78.5485 24.1997 76.7152 23.4451 74.1728L13.0121 38.959C11.9967 35.5151 15.2709 32.1953 19.8948 31.9826Z" fill="#F27B29"/>
<path d="M18.2814 25.4797L32.5153 79.6855C33.2648 82.5369 36.7518 84.5171 40.6312 84.2917L190.425 75.6314C194.049 75.4212 196.979 73.3422 197.44 70.6504L203.34 36.209C203.892 32.9828 200.742 30.0631 196.404 29.7795L26.4783 18.673C21.391 18.3438 17.2989 21.7421 18.2814 25.4797Z" fill="#90C100"/>
<path d="M208.932 7.28028C208.932 10.633 202.472 16.2749 198.78 16.2749C195.088 16.2749 192.095 13.5578 192.095 10.2025C192.095 6.84978 195.088 4.13013 198.78 4.13013C202.472 4.13266 208.932 3.92755 208.932 7.28028Z" fill="#90C100"/>
<path d="M205.711 47.9511C205.465 45.6872 211.852 39.5617 214.344 39.3059C216.835 39.0527 219.056 40.681 219.302 42.9423C219.547 45.2061 218.646 47.3383 215.807 48.255C213.432 49.0248 205.959 50.2149 205.711 47.9511Z" fill="#90C100"/>
<path d="M9.23687 27.265C8.41389 28.8958 3.88619 30.1543 2.08827 29.306C0.292895 28.4577 -0.497174 26.4471 0.325814 24.8163C1.1488 23.1855 3.27338 22.5499 5.06876 23.4008C6.86667 24.2491 10.0599 25.6342 9.23687 27.265Z" fill="#F17A29"/>
<path d="M195.229 88.9891C197.093 87.4343 204.234 88.784 206.523 91.0478C208.813 93.3117 209.159 96.4086 207.296 97.9609C205.432 99.5132 202.067 98.9384 199.775 96.6745C197.486 94.4081 193.368 90.5414 195.229 88.9891Z" fill="#90C100"/>
<path d="M14.3775 93.1142C16.3774 93.1142 17.9986 91.4499 17.9986 89.3968C17.9986 87.3438 16.3774 85.6794 14.3775 85.6794C12.3776 85.6794 10.7563 87.3438 10.7563 89.3968C10.7563 91.4499 12.3776 93.1142 14.3775 93.1142Z" fill="#90C100"/>
<path d="M10.184 14.991C11.3183 14.991 12.2377 14.1555 12.2377 13.1248C12.2377 12.094 11.3183 11.2585 10.184 11.2585C9.04983 11.2585 8.13037 12.094 8.13037 13.1248C8.13037 14.1555 9.04983 14.991 10.184 14.991Z" fill="#F17A29"/>
<path d="M21.3818 82.9521C21.3818 83.7726 20.7335 84.4386 19.9333 84.4386C19.1331 84.4386 18.4849 83.7726 18.4849 82.9521C18.4849 82.1317 19.1331 81.4657 19.9333 81.4657C20.7335 81.4657 21.3818 82.1317 21.3818 82.9521Z" fill="#90C100"/>
<path d="M7.25857 63.7675C8.71551 63.364 9.60126 61.9705 9.23695 60.6551C8.87264 59.3397 7.39622 58.6004 5.93929 59.0039C4.48235 59.4074 3.5966 60.8009 3.96091 62.1163C4.32522 63.4317 5.80164 64.171 7.25857 63.7675Z" fill="#90C100"/>
<path d="M224.905 62.185C227.167 62.185 229 60.5207 229 58.4676C229 56.4146 227.167 54.7502 224.905 54.7502C222.644 54.7502 220.811 56.4146 220.811 58.4676C220.811 60.5207 222.644 62.185 224.905 62.185Z" fill="#F17A29"/>
<path d="M217.377 63.9855C218.282 63.9855 219.015 63.32 219.015 62.499C219.015 61.6781 218.282 61.0126 217.377 61.0126C216.472 61.0126 215.738 61.6781 215.738 62.499C215.738 63.32 216.472 63.9855 217.377 63.9855Z" fill="#F17A29"/>
<path d="M40.3816 8.26027C42.6094 8.26027 44.4155 6.41114 44.4155 4.13013C44.4155 1.84912 42.6094 0 40.3816 0C38.1537 0 36.3477 1.84912 36.3477 4.13013C36.3477 6.41114 38.1537 8.26027 40.3816 8.26027Z" fill="#F17A29"/>
<path d="M214.439 92.7622C215.688 92.7622 216.7 91.8427 216.7 90.7085C216.7 89.5743 215.688 88.6548 214.439 88.6548C213.19 88.6548 212.178 89.5743 212.178 90.7085C212.178 91.8427 213.19 92.7622 214.439 92.7622Z" fill="#90C100"/>
<path d="M221.748 22.4714C222.653 22.4714 223.386 21.8059 223.386 20.985C223.386 20.164 222.653 19.4985 221.748 19.4985C220.843 19.4985 220.109 20.164 220.109 20.985C220.109 21.8059 220.843 22.4714 221.748 22.4714Z" fill="#90C100"/>
<path d="M225.079 19.9948C226.436 19.9948 227.536 18.996 227.536 17.7639C227.536 16.5318 226.436 15.533 225.079 15.533C223.723 15.533 222.623 16.5318 222.623 17.7639C222.623 18.996 223.723 19.9948 225.079 19.9948Z" fill="#90C100"/>
</svg>
