<svg width="16" height="16" viewBox="0 0 16 16" fill="none" xmlns="http://www.w3.org/2000/svg">
<g clip-path="url(#clip0)">
<path d="M13.9578 1.18841H13.2448V0H12.0563V1.18841H4.21287V0H3.02446V1.18841H2.31142C1.32849 1.18841 0.528809 1.98808 0.528809 2.97101V13.429C0.528809 14.4119 1.32849 15.2116 2.31142 15.2116H13.9578C14.9407 15.2116 15.7404 14.4119 15.7404 13.429V2.97101C15.7404 1.98808 14.9407 1.18841 13.9578 1.18841ZM14.552 13.429C14.552 13.7566 14.2854 14.0232 13.9578 14.0232H2.31142C1.98377 14.0232 1.71721 13.7566 1.71721 13.429V5.58551H14.552V13.429ZM14.552 4.3971H1.71721V2.97101C1.71721 2.64337 1.98377 2.37681 2.31142 2.37681H3.02446V3.56522H4.21287V2.37681H12.0563V3.56522H13.2448V2.37681H13.9578C14.2854 2.37681 14.552 2.64337 14.552 2.97101V4.3971Z" fill="#58BC40"/>
<path d="M3.97521 6.83337H2.7868V8.02178H3.97521V6.83337Z" fill="#58BC40"/>
<path d="M6.35203 6.83337H5.16362V8.02178H6.35203V6.83337Z" fill="#58BC40"/>
<path d="M8.72881 6.83337H7.54041V8.02178H8.72881V6.83337Z" fill="#58BC40"/>
<path d="M11.1056 6.83337H9.91722V8.02178H11.1056V6.83337Z" fill="#58BC40"/>
<path d="M13.4824 6.83337H12.294V8.02178H13.4824V6.83337Z" fill="#58BC40"/>
<path d="M3.97521 9.21014H2.7868V10.3985H3.97521V9.21014Z" fill="#58BC40"/>
<path d="M6.35203 9.21014H5.16362V10.3985H6.35203V9.21014Z" fill="#58BC40"/>
<path d="M8.72881 9.21014H7.54041V10.3985H8.72881V9.21014Z" fill="#58BC40"/>
<path d="M11.1056 9.21014H9.91722V10.3985H11.1056V9.21014Z" fill="#58BC40"/>
<path d="M3.97521 11.587H2.7868V12.7754H3.97521V11.587Z" fill="#58BC40"/>
<path d="M6.35203 11.587H5.16362V12.7754H6.35203V11.587Z" fill="#58BC40"/>
<path d="M8.72881 11.587H7.54041V12.7754H8.72881V11.587Z" fill="#58BC40"/>
<path d="M11.1056 11.587H9.91722V12.7754H11.1056V11.587Z" fill="#58BC40"/>
<path d="M13.4824 9.21014H12.294V10.3985H13.4824V9.21014Z" fill="#58BC40"/>
</g>
<defs>
<clipPath id="clip0">
<rect width="15.2116" height="15.2116" fill="white" transform="translate(0.528809)"/>
</clipPath>
</defs>
</svg>
