<svg width="12" height="12" viewBox="0 0 12 12" fill="none" xmlns="http://www.w3.org/2000/svg">
<g clip-path="url(#clip0)">
<path d="M10.4469 0.924502H9.89217V0H8.96767V0.924502H2.86596V0H1.94145V0.924502H1.38675C0.622098 0.924502 0 1.5466 0 2.31126V10.4469C0 11.2115 0.622098 11.8336 1.38675 11.8336H10.4469C11.2115 11.8336 11.8336 11.2115 11.8336 10.4469V2.31126C11.8336 1.5466 11.2115 0.924502 10.4469 0.924502ZM10.9091 10.4469C10.9091 10.7018 10.7018 10.9091 10.4469 10.9091H1.38675C1.13187 10.9091 0.924502 10.7018 0.924502 10.4469V4.34516H10.9091V10.4469ZM10.9091 3.42066H0.924502V2.31126C0.924502 2.05637 1.13187 1.849 1.38675 1.849H1.94145V2.77351H2.86596V1.849H8.96767V2.77351H9.89217V1.849H10.4469C10.7018 1.849 10.9091 2.05637 10.9091 2.31126V3.42066Z" fill="black" fill-opacity="0.5"/>
<path d="M2.68109 5.31592H1.75659V6.24042H2.68109V5.31592Z" fill="black" fill-opacity="0.5"/>
<path d="M4.53009 5.31592H3.60559V6.24042H4.53009V5.31592Z" fill="black" fill-opacity="0.5"/>
<path d="M6.37909 5.31592H5.45459V6.24042H6.37909V5.31592Z" fill="black" fill-opacity="0.5"/>
<path d="M8.22809 5.31592H7.30359V6.24042H8.22809V5.31592Z" fill="black" fill-opacity="0.5"/>
<path d="M10.0771 5.31592H9.15259V6.24042H10.0771V5.31592Z" fill="black" fill-opacity="0.5"/>
<path d="M2.68109 7.16492H1.75659V8.08942H2.68109V7.16492Z" fill="black" fill-opacity="0.5"/>
<path d="M4.53009 7.16492H3.60559V8.08942H4.53009V7.16492Z" fill="black" fill-opacity="0.5"/>
<path d="M6.37909 7.16492H5.45459V8.08942H6.37909V7.16492Z" fill="black" fill-opacity="0.5"/>
<path d="M8.22809 7.16492H7.30359V8.08942H8.22809V7.16492Z" fill="black" fill-opacity="0.5"/>
<path d="M2.68109 9.01392H1.75659V9.93842H2.68109V9.01392Z" fill="black" fill-opacity="0.5"/>
<path d="M4.53009 9.01392H3.60559V9.93842H4.53009V9.01392Z" fill="black" fill-opacity="0.5"/>
<path d="M6.37909 9.01392H5.45459V9.93842H6.37909V9.01392Z" fill="black" fill-opacity="0.5"/>
<path d="M8.22809 9.01392H7.30359V9.93842H8.22809V9.01392Z" fill="black" fill-opacity="0.5"/>
<path d="M10.0771 7.16492H9.15259V8.08942H10.0771V7.16492Z" fill="black" fill-opacity="0.5"/>
</g>
<defs>
<clipPath id="clip0">
<rect width="11.8336" height="11.8336" fill="white"/>
</clipPath>
</defs>
</svg>
