<svg width="44" height="44" viewBox="0 0 44 44" fill="none" xmlns="http://www.w3.org/2000/svg">
<path d="M42.2599 28.188H0.832397V38.5H42.2599V28.188Z" fill="#F5A55B"/>
<path d="M30.3734 22.585V24.4983L32.6648 26.8366V37.6795L35.1905 43.1408L37.7162 37.6795V26.8366L40.0075 24.4983V22.585H30.3734Z" fill="#D7D7E6"/>
<path d="M4.48937 26.3942L20.9617 20.2754C21.7921 19.967 22.2201 19.0301 21.9179 18.1827L20.5101 14.2354C20.2079 13.388 19.2899 12.9511 18.4595 13.2596L1.98718 19.3784C1.15682 19.6868 0.728801 20.6237 1.03102 21.4712L2.43878 25.4184C2.741 26.2657 3.65901 26.7025 4.48937 26.3942Z" fill="#E09248"/>
<path d="M28.468 10.8184L20.3656 13.8279L22.0633 18.5886L30.1657 15.5791L28.468 10.8184Z" fill="#D7D7E6"/>
<path d="M25.2733 4.20224L24.5398 2.14558L26.9439 1.25261C30.2263 0.0333247 33.8559 1.76058 35.0505 5.11051L37.7759 12.7527L36.8442 13.4535L37.3883 14.9791L38.6526 15.211L39.8142 18.4683L33.2467 20.9079L32.0851 17.6506L32.9076 16.6435L32.3636 15.1179L30.1649 15.5799L28.4671 10.8192C29.5518 10.4163 30.1111 9.1922 29.7163 8.08524L28.9567 5.95545C28.4141 4.43306 26.7649 3.6482 25.2733 4.20224Z" fill="#878791"/>
<path d="M17.432 34.8053C17.2097 34.8053 16.9925 34.8973 16.8358 35.0571C16.6793 35.2169 16.59 35.4387 16.59 35.6647C16.59 35.8907 16.6793 36.1124 16.8358 36.2723C16.9933 36.4321 17.2097 36.524 17.432 36.524C17.6527 36.524 17.8699 36.4321 18.0274 36.2723C18.1839 36.1124 18.2733 35.8907 18.2733 35.6647C18.2733 35.4387 18.1839 35.2169 18.0274 35.0571C17.8699 34.8972 17.6535 34.8053 17.432 34.8053Z" fill="black"/>
<path d="M11.9472 34.8053H6.31985C5.85486 34.8053 5.47778 35.19 5.47778 35.6647C5.47778 36.1393 5.85486 36.524 6.31985 36.524H11.9473C12.4123 36.524 12.7893 36.1393 12.7893 35.6647C12.7893 35.19 12.4123 34.8053 11.9472 34.8053Z" fill="black"/>
<path d="M20.3381 32.485C20.3381 32.0104 19.961 31.6256 19.4961 31.6256H13.1521C12.6871 31.6256 12.3101 32.0104 12.3101 32.485C12.3101 32.9596 12.6871 33.3444 13.1521 33.3444H19.4961C19.9611 33.3444 20.3381 32.9595 20.3381 32.485Z" fill="black"/>
<path d="M42.26 27.3291H38.5582V27.1927L40.603 25.106C40.7608 24.9448 40.8496 24.7262 40.8496 24.4983V22.585C40.8496 22.1104 40.4725 21.7256 40.0075 21.7256H33.503C33.5136 21.7222 33.5243 21.7193 33.5348 21.7154L40.1024 19.2758C40.3122 19.1978 40.4831 19.038 40.5776 18.8314C40.6719 18.6248 40.682 18.3885 40.6057 18.1743L39.4439 14.917C39.3414 14.6295 39.0968 14.4193 38.8016 14.3652L38.014 14.2207L37.8509 13.7638L38.2756 13.4444C38.5763 13.2182 38.695 12.8169 38.5673 12.4587L35.8418 4.81656C35.1871 2.98068 33.871 1.51493 32.1359 0.689154C30.401 -0.136447 28.4547 -0.223244 26.6559 0.444919L24.2519 1.3379C23.8148 1.50023 23.5895 1.99334 23.7486 2.43927L24.4821 4.49593C24.6411 4.94185 25.1242 5.17165 25.5612 5.00957C26.6142 4.61847 27.7824 5.17457 28.1656 6.24896L28.9252 8.37884C29.0392 8.69861 29.0245 9.04451 28.8835 9.35277C28.7427 9.66111 28.4925 9.89512 28.1792 10.0115L20.5365 12.8503C20.3853 12.7268 20.2188 12.6207 20.0388 12.535C19.4476 12.2538 18.7845 12.2241 18.1716 12.4518L1.6992 18.5705C0.434 19.0405 -0.220789 20.4734 0.23982 21.7646L1.6475 25.7118C1.87056 26.3374 2.31913 26.8367 2.91017 27.1181C3.13542 27.2253 3.37112 27.295 3.61052 27.3288H0.842064C0.377076 27.3288 0 27.7136 0 28.1882V38.5002C0 38.9748 0.377076 39.3596 0.842064 39.3596H32.5107L34.429 43.5075C34.5681 43.8082 34.8647 44 35.1905 44C35.5163 44 35.813 43.8082 35.952 43.5074L37.8702 39.3596H42.26C42.725 39.3596 43.102 38.9748 43.102 38.5002V28.1885C43.102 27.7138 42.725 27.3291 42.26 27.3291ZM25.8094 3.19311L25.619 2.65918L27.2317 2.06003C28.6079 1.54879 30.0968 1.61513 31.4242 2.24686C32.7516 2.87858 33.7584 3.99989 34.2593 5.40437L36.7694 12.4423L36.3447 12.7616C36.044 12.9878 35.9253 13.3892 36.053 13.7474L36.5972 15.2729C36.6997 15.5605 36.9444 15.7707 37.2395 15.8248L38.0272 15.9693L38.7353 17.9547L33.7502 19.8064L33.0422 17.821L33.5546 17.1935C33.7466 16.9585 33.8017 16.6369 33.6991 16.3494L33.1549 14.8238C33.0121 14.4232 32.6025 14.19 32.1939 14.276L30.7077 14.5883L30.1447 13.0097L29.5048 11.2155C29.8905 10.9232 30.2013 10.536 30.4099 10.0792C30.741 9.35474 30.7757 8.54212 30.5077 7.79103L29.7481 5.66115C29.1463 3.97394 27.4855 2.98566 25.8094 3.19311ZM27.964 11.9206L29.0858 15.0662L22.5663 17.488L21.4445 14.3423L27.964 11.9206ZM3.23007 25.1243L2.89889 24.1957L6.49669 22.8593C6.93372 22.697 7.15906 22.2039 6.99999 21.7579C6.84092 21.312 6.35775 21.082 5.92089 21.2443L2.323 22.5807L1.82239 21.1772C1.6795 20.7764 1.88269 20.3317 2.27534 20.186L18.7478 14.0672C18.9381 13.9965 19.1438 14.0057 19.3273 14.093C19.5108 14.1803 19.65 14.3353 19.7192 14.5294L19.7256 14.5473L20.5376 16.8241L17.0273 18.1279C16.5903 18.2903 16.3649 18.7834 16.524 19.2293C16.6484 19.5784 16.9714 19.795 17.3153 19.795C17.4108 19.795 17.5082 19.7783 17.6032 19.743L21.1135 18.4391L21.1269 18.4767C21.1961 18.6709 21.1872 18.8808 21.1015 19.0681C21.016 19.2553 20.8641 19.3974 20.6739 19.468L4.20148 25.5865C4.01117 25.6572 3.80554 25.648 3.62197 25.5607C3.43848 25.4734 3.29929 25.3184 3.23007 25.1243ZM4.77745 27.2015L21.2498 21.0828C21.8628 20.8552 22.3521 20.3974 22.6277 19.7943C22.7116 19.6105 22.7723 19.42 22.8104 19.2262L30.3953 16.4088L31.8212 16.1092L31.9509 16.4729L31.4384 17.1003C31.2465 17.3353 31.1914 17.6569 31.294 17.9445L32.4557 21.2017C32.5481 21.4609 32.7501 21.6469 32.9889 21.7256H30.3733C29.9083 21.7256 29.5313 22.1104 29.5313 22.5849V24.4982C29.5313 24.7261 29.6201 24.9447 29.778 25.1059L31.8228 27.1926V27.329H11.2871C11.2869 27.329 11.2865 27.329 11.2863 27.329H4.26076C4.43506 27.3053 4.60819 27.2644 4.77745 27.2015ZM9.25377 29.0477L7.19712 31.1467C7.00294 31.3448 6.74493 31.4538 6.47042 31.4538H1.68404V29.0477L9.25377 29.0477ZM1.68404 33.1726H6.4705C7.19484 33.1726 7.87565 32.8847 8.38788 32.362L11.6354 29.0477H27.3432C26.9194 29.506 26.5686 30.0425 26.3152 30.6431L25.5189 32.5301C24.9356 33.9121 23.6061 34.8053 22.1316 34.8053H20.7161C20.2511 34.8053 19.8741 35.19 19.8741 35.6647C19.8741 36.1393 20.2511 36.524 20.7161 36.524H22.1316C24.2794 36.524 26.2161 35.2232 27.0656 33.21L27.8619 31.323C28.4452 29.941 29.7747 29.0478 31.2492 29.0478H31.8228V34.8054H28.3414C27.8764 34.8054 27.4994 35.1901 27.4994 35.6648C27.4994 36.1394 27.8764 36.5241 28.3414 36.5241H31.8228V37.6412H1.68404V33.1726ZM35.1905 41.1275L33.5068 37.4869V26.8367C33.5068 26.6088 33.4181 26.3901 33.2602 26.229L31.2154 24.1423V23.4442H39.1655V24.1423L37.1208 26.2291C36.9629 26.3902 36.8741 26.6088 36.8741 26.8367V37.4871L35.1905 41.1275ZM41.4179 37.6411H38.5582V29.0477H41.4179V37.6411Z" fill="black"/>
<path d="M9.28811 21.7675C9.50957 21.7675 9.72682 21.6755 9.88345 21.5157C10.04 21.3558 10.1302 21.1341 10.1302 20.9081C10.1302 20.6821 10.0401 20.4603 9.88345 20.3005C9.72682 20.1398 9.50957 20.0487 9.28811 20.0487C9.06665 20.0487 8.84939 20.1398 8.69277 20.3005C8.53623 20.4603 8.44604 20.6812 8.44604 20.9081C8.44604 21.1341 8.53615 21.3558 8.69277 21.5157C8.84939 21.6755 9.06665 21.7675 9.28811 21.7675Z" fill="black"/>
<path d="M12.389 18.9219C12.4846 18.9219 12.5818 18.9051 12.6769 18.8698L16.0575 17.6141C16.4945 17.4518 16.7199 16.9587 16.5608 16.5127C16.4017 16.0668 15.9186 15.8367 15.4817 15.9991L12.1011 17.2548C11.664 17.4171 11.4387 17.9102 11.5978 18.3562C11.7221 18.7052 12.045 18.9219 12.389 18.9219Z" fill="black"/>
</svg>
