<?xml version="1.0" encoding="utf-8"?>
<!-- Generator: Adobe Illustrator 23.1.0, SVG Export Plug-In . SVG Version: 6.00 Build 0)  -->
<svg version="1.1" id="Layer_1" xmlns="http://www.w3.org/2000/svg" xmlns:xlink="http://www.w3.org/1999/xlink" x="0px" y="0px"
	 viewBox="0 0 40 40" style="enable-background:new 0 0 40 40;" xml:space="preserve">
<style type="text/css">
	.st0{fill:#F17B28;}
	.st1{fill:#FFFFFF;}
	.st2{fill:#010101;}
</style>
<rect class="st0" width="40" height="40"/>
<rect x="2.22" y="2.52" class="st1" width="16.14" height="16.14"/>
<rect x="2.22" y="2.52" class="st1" width="16.14" height="16.14"/>
<rect x="21.64" y="2.52" transform="matrix(-1 -4.485136e-11 4.485136e-11 -1 59.413 21.1848)" class="st1" width="16.14" height="16.14"/>
<rect x="2.22" y="21.34" class="st1" width="16.14" height="16.14"/>
<rect x="21.64" y="21.34" transform="matrix(-1 4.485111e-11 -4.485111e-11 -1 59.413 58.8152)" class="st1" width="16.14" height="16.14"/>
<g>
	<path class="st2" d="M14.16,5.01c-0.07-0.07-0.18-0.07-0.26,0s-0.07,0.18,0,0.26c0.38,0.39,0.59,0.91,0.59,1.46v0.11h-0.25
		c-0.27-0.79-1.02-1.32-1.86-1.32h-0.44c-0.3,0-0.54,0.24-0.54,0.54v1.41c0,0.06-0.05,0.11-0.11,0.11H8.54
		c-0.06,0-0.11-0.05-0.11-0.11V4.74c0-0.06,0.05-0.11,0.11-0.11h3.87c0.3,0,0.6,0.06,0.87,0.19c0.09,0.04,0.2,0,0.24-0.09
		c0.04-0.09,0-0.2-0.09-0.24c-0.32-0.15-0.67-0.22-1.02-0.22H8.54c-0.26,0-0.47,0.21-0.47,0.47v0.32H7.41
		C7.27,4.88,7.05,4.77,6.8,4.77H6.11c-0.21,0-0.38,0.17-0.38,0.38v0.28c0,0.1,0.08,0.18,0.18,0.18S6.1,5.53,6.1,5.43V5.15
		c0-0.01,0.01-0.01,0.01-0.01H6.8c0.24,0,0.43,0.19,0.43,0.43v0.77c0,0.24-0.19,0.43-0.43,0.43H6.11C6.1,6.77,6.1,6.76,6.1,6.75
		V6.34c0-0.1-0.08-0.18-0.18-0.18S5.73,6.24,5.73,6.34v0.41c0,0.21,0.17,0.38,0.38,0.38H6.8c0.25,0,0.47-0.11,0.61-0.29h0.65v0.62
		c0,0.26,0.21,0.47,0.47,0.47h0.45v0.75c0,0.4-0.05,0.79-0.14,1.15c-0.11,0.42-0.17,0.91-0.17,1.42c0,0.16,0.01,0.31,0.02,0.47
		c0.01,0.24,0.38,0.21,0.36-0.03c-0.01-0.14-0.02-0.29-0.02-0.44c0-0.47,0.05-0.93,0.16-1.32c0.1-0.39,0.16-0.81,0.16-1.24V7.93
		h1.08v0.75c0,0.43,0.05,0.85,0.16,1.24c0.1,0.39,0.16,0.85,0.16,1.32s-0.05,0.93-0.16,1.32c-0.05,0.18-0.08,0.37-0.11,0.56H9.31
		c-0.03-0.19-0.06-0.38-0.11-0.56c-0.01-0.04-0.02-0.07-0.03-0.11c-0.02-0.1-0.12-0.16-0.22-0.14c-0.1,0.02-0.16,0.12-0.14,0.22
		c0.01,0.04,0.02,0.08,0.03,0.12c0.1,0.36,0.14,0.75,0.14,1.15v0.96c0,0.39-0.05,0.77-0.14,1.15l-0.1,0.4
		c-0.04,0.15-0.01,0.3,0.09,0.42c0.09,0.12,0.23,0.19,0.38,0.19h1.36c0.15,0,0.29-0.07,0.38-0.19c0.09-0.12,0.12-0.27,0.09-0.42
		l-0.1-0.4c-0.1-0.38-0.14-0.76-0.14-1.15v-0.96c0-0.4,0.05-0.79,0.14-1.15c0.11-0.42,0.17-0.91,0.17-1.42s-0.06-0.99-0.17-1.42
		c-0.1-0.36-0.14-0.75-0.14-1.15V7.93h0.49c0.26,0,0.47-0.21,0.47-0.47V6.05c0-0.1,0.08-0.18,0.18-0.18h0.44
		c0.7,0,1.31,0.45,1.53,1.11c0.04,0.13,0.16,0.21,0.29,0.21h0.35c0.17,0,0.3-0.14,0.3-0.3V6.72C14.85,6.08,14.61,5.47,14.16,5.01
		L14.16,5.01z M7.58,6.47c0.01-0.05,0.01-0.09,0.01-0.14V5.56c0-0.05,0-0.09-0.01-0.14h0.48v1.05H7.58z M10.67,16.51
		c-0.01,0.02-0.04,0.05-0.1,0.05H9.21C9.12,16.54,9.09,16.5,9.1,16.4L9.2,16c0.1-0.4,0.15-0.82,0.15-1.24v-0.96
		c0-0.11,0-0.21-0.01-0.32h1.1c-0.01,0.11-0.01,0.21-0.01,0.32v0.96c0,0.42,0.05,0.83,0.15,1.24l0.1,0.4
		C10.71,16.45,10.68,16.49,10.67,16.51z"/>
	<path class="st2" d="M8.94,5.95c0,0.32,0.4,0.55,0.92,0.55c0.53,0,0.92-0.24,0.92-0.55c0-0.32-0.4-0.55-0.92-0.55
		C9.33,5.4,8.94,5.63,8.94,5.95z M10.42,5.95c0,0.05-0.2,0.19-0.56,0.19S9.3,6,9.3,5.95c0-0.05,0.2-0.19,0.56-0.19
		S10.42,5.9,10.42,5.95z"/>
</g>
<g>
	<path class="st2" d="M27.29,6.45h1.1c0.11,0,0.2-0.09,0.2-0.2c0-0.11-0.09-0.2-0.2-0.2h-1.1c-0.11,0-0.2,0.09-0.2,0.2
		C27.09,6.36,27.18,6.45,27.29,6.45L27.29,6.45z"/>
	<path class="st2" d="M28.39,6.86h-1.1c-0.11,0-0.2,0.09-0.2,0.2c0,0.11,0.09,0.2,0.2,0.2h1.1c0.11,0,0.2-0.09,0.2-0.2
		S28.5,6.86,28.39,6.86L28.39,6.86z"/>
	<path class="st2" d="M28.39,7.68h-1.1c-0.11,0-0.2,0.09-0.2,0.2c0,0.11,0.09,0.2,0.2,0.2h1.1c0.11,0,0.2-0.09,0.2-0.2
		C28.59,7.77,28.5,7.68,28.39,7.68L28.39,7.68z"/>
	<path class="st2" d="M35.71,4.59h-5.8c-0.44,0-0.81,0.28-0.95,0.67h-2.98c-0.17,0-0.33,0.06-0.46,0.16L25.17,5.7
		c-0.12,0.09-0.19,0.22-0.22,0.37h-0.27c-0.26,0-0.47,0.21-0.47,0.47v0.33H22.9c-0.11,0-0.2,0.09-0.2,0.2c0,0.11,0.09,0.2,0.2,0.2
		h1.32v0.33c0,0.26,0.21,0.47,0.47,0.47h0.27c0.02,0.14,0.1,0.27,0.22,0.37l0.34,0.27c0.13,0.11,0.3,0.16,0.46,0.16h2.98
		c0.08,0.22,0.23,0.41,0.43,0.53V9.9c0,0.2,0.16,0.36,0.36,0.36h0.22c0.09,0.28,0.08,0.58-0.03,0.86c-0.04,0.1-0.03,0.21,0.03,0.3
		c0.06,0.09,0.16,0.14,0.27,0.14h0.64c0.02,0.18,0.18,0.32,0.36,0.32c0.16,0,0.31,0.11,0.36,0.26c0.11,0.36,0.27,0.7,0.48,1.01
		l0.42,0.63c0.14,0.2,0.18,0.44,0.17,0.68h-0.99c-0.44,0-0.86,0.21-1.12,0.57l-0.66,0.91c-0.09,0.13-0.11,0.29-0.03,0.43
		c0.07,0.14,0.21,0.23,0.37,0.23h3.06c0.11,0,0.2-0.09,0.2-0.2c0-0.11-0.09-0.2-0.2-0.2h-3.06c0,0-0.01,0-0.01-0.01
		c0-0.01,0-0.01,0-0.01l0.66-0.91c0.18-0.25,0.48-0.4,0.8-0.4h3.72c0.19,0,0.34,0.15,0.34,0.34v0.93c0,0.04-0.03,0.07-0.07,0.07
		h-1.46c-0.11,0-0.2,0.09-0.2,0.2c0,0.11,0.09,0.2,0.2,0.2h1.46c0.26,0,0.47-0.21,0.47-0.47v-0.93c0-0.38-0.29-0.69-0.66-0.73
		c0-0.28-0.01-0.56-0.07-0.83c-0.02-0.11-0.13-0.18-0.24-0.16c-0.11,0.02-0.18,0.13-0.16,0.24c0.05,0.25,0.06,0.5,0.06,0.75h-2.01
		c0.01-0.32-0.06-0.64-0.24-0.91l-0.42-0.63c-0.19-0.28-0.33-0.58-0.43-0.9c-0.1-0.31-0.37-0.53-0.7-0.54v-1.26
		c0-0.2-0.16-0.36-0.36-0.36h-1.12V9.53c0.04,0,0.08,0.01,0.12,0.01h3.93v1.48c0,0.28,0.08,0.55,0.24,0.79l0.42,0.63
		c0.11,0.16,0.2,0.32,0.28,0.5c0.05,0.1,0.17,0.15,0.27,0.1c0.1-0.05,0.15-0.17,0.1-0.27c-0.09-0.19-0.19-0.38-0.31-0.55l-0.42-0.63
		c-0.11-0.17-0.17-0.36-0.17-0.56V9.53h1.47c0.56,0,1.01-0.45,1.01-1.01V5.6C36.72,5.04,36.27,4.59,35.71,4.59L35.71,4.59z
		 M30.87,11.16h-0.52c0.1-0.29,0.11-0.6,0.04-0.9h0.48V11.16z M24.62,7.59V6.54c0-0.04,0.03-0.07,0.07-0.07h0.26v1.19h-0.26
		C24.65,7.66,24.62,7.63,24.62,7.59z M25.76,8.39l-0.34-0.27c-0.05-0.04-0.07-0.1-0.07-0.16V6.17c0-0.06,0.03-0.12,0.07-0.16
		l0.34-0.27c0.06-0.05,0.13-0.07,0.21-0.07h0.42v2.8h-0.42C25.9,8.46,25.82,8.43,25.76,8.39L25.76,8.39z M26.8,5.66h2.1v2.8h-2.1
		L26.8,5.66z M35.71,9.13h-4.44V8.22c0-0.11-0.09-0.2-0.2-0.2c-0.11,0-0.2,0.09-0.2,0.2v0.91h-0.01h-0.95c-0.33,0-0.6-0.27-0.6-0.6
		V5.6c0-0.33,0.27-0.6,0.6-0.6h0.95h0.01v2.3c0,0.11,0.09,0.2,0.2,0.2c0.11,0,0.2-0.09,0.2-0.2V5h4.44c0.33,0,0.6,0.27,0.6,0.6v0.44
		h-0.38c-0.11,0-0.2,0.09-0.2,0.2c0,0.11,0.09,0.2,0.2,0.2h0.38v0.42h-0.38c-0.11,0-0.2,0.09-0.2,0.2c0,0.11,0.09,0.2,0.2,0.2h0.38
		v0.42h-0.38c-0.11,0-0.2,0.09-0.2,0.2c0,0.11,0.09,0.2,0.2,0.2h0.38v0.44C36.32,8.86,36.04,9.13,35.71,9.13L35.71,9.13z"/>
	<path class="st2" d="M33.05,5.59h-0.75c-0.34,0-0.61,0.27-0.61,0.61c0,0.34,0.27,0.61,0.61,0.61h0.75c0.34,0,0.61-0.27,0.61-0.61
		C33.65,5.87,33.38,5.59,33.05,5.59z M33.05,6.41h-0.75c-0.11,0-0.21-0.09-0.21-0.21s0.09-0.21,0.21-0.21h0.75
		c0.11,0,0.21,0.09,0.21,0.21S33.16,6.41,33.05,6.41z"/>
	<path class="st2" d="M31.65,15.56c0,0.15,0.12,0.28,0.28,0.28s0.28-0.12,0.28-0.28c0-0.15-0.12-0.28-0.28-0.28
		S31.65,15.41,31.65,15.56z"/>
	<path class="st2" d="M32.61,15.56c0,0.15,0.12,0.28,0.28,0.28s0.28-0.12,0.28-0.28c0-0.15-0.12-0.28-0.28-0.28
		S32.61,15.41,32.61,15.56z"/>
	<path class="st2" d="M34.41,5.62c-0.33,0-0.59,0.27-0.59,0.59c0,0.33,0.27,0.59,0.59,0.59c0.33,0,0.59-0.27,0.59-0.59
		C35,5.89,34.73,5.62,34.41,5.62z M34.41,6.41c-0.11,0-0.19-0.09-0.19-0.19s0.09-0.19,0.19-0.19c0.11,0,0.19,0.09,0.19,0.19
		S34.51,6.41,34.41,6.41z"/>
</g>
<g>
	<path class="st2" d="M32.39,31.45c-0.02-0.09-0.11-0.15-0.21-0.13c-0.09,0.02-0.15,0.11-0.13,0.21c0.16,0.68,0.16,1.4-0.01,2.08
		l-0.26,1.08c-0.03,0.13-0.11,0.23-0.22,0.3c-0.22,0.14-0.54,0.06-0.67-0.16c-0.07-0.11-0.09-0.24-0.06-0.37l0.26-1.08
		c0.18-0.75,0.11-1.54-0.2-2.24l-0.11-0.25l0.16-0.76c0.06-0.28,0.25-0.5,0.5-0.6c-0.06,0.15-0.06,0.31,0,0.46
		c0,0,0.36,0.81,0.37,0.83c0.04,0.09,0.14,0.13,0.22,0.09c0.09-0.04,0.13-0.14,0.09-0.22c-0.01-0.03-0.37-0.83-0.37-0.83
		c-0.04-0.1-0.02-0.22,0.07-0.29l0.37-0.29c0.28-0.2,0.12-0.68-0.23-0.67h-0.51v-0.3c0-0.17-0.14-0.3-0.3-0.3h-0.14
		c0.03-0.12,0.05-0.24,0.05-0.37l0-1.3c0-0.14-0.02-0.28-0.06-0.42l-0.7-2.26c-0.04-0.14-0.17-0.23-0.31-0.23H29.4
		c-0.14,0-0.27,0.09-0.31,0.23l-0.7,2.26c-0.04,0.14-0.06,0.28-0.06,0.42l0,1.32c0,0.12,0.02,0.23,0.05,0.34h-0.14
		c-0.17,0-0.3,0.14-0.3,0.3v0.3h-0.51c-0.35-0.01-0.51,0.47-0.23,0.67l0.37,0.29c0.09,0.07,0.12,0.19,0.07,0.29l-0.34,0.76
		c-0.43,0.97-0.53,2.06-0.28,3.09l0.06,0.25c0.02,0.09,0.11,0.15,0.21,0.13c0.09-0.02,0.15-0.11,0.13-0.21l-0.06-0.25
		c-0.23-0.95-0.14-1.97,0.26-2.87l0.34-0.76c0.07-0.15,0.07-0.32,0-0.46c0.25,0.11,0.44,0.33,0.5,0.6l0.16,0.76l-0.11,0.25
		c-0.31,0.7-0.38,1.5-0.2,2.24l0.26,1.08c0.03,0.13,0.01,0.26-0.06,0.37c-0.21,0.37-0.81,0.27-0.89-0.14L27.6,34.6
		c-0.02-0.09-0.11-0.15-0.21-0.13c-0.09,0.02-0.15,0.11-0.13,0.21c0.04,0.25,0.18,0.48,0.4,0.61c0.38,0.24,0.92,0.11,1.14-0.28
		c0.12-0.19,0.15-0.41,0.1-0.63l-0.26-1.08c-0.16-0.67-0.1-1.39,0.18-2.03l0.47-1.06c0.17-0.39,0.27-0.8,0.3-1.23
		c0.08,0.01,0.15,0.01,0.23,0c0.03,0.42,0.13,0.84,0.3,1.23l0.47,1.06c0.28,0.63,0.35,1.35,0.18,2.03l-0.26,1.08
		c-0.05,0.22-0.02,0.44,0.1,0.63c0.23,0.39,0.76,0.52,1.14,0.28c0.19-0.12,0.32-0.3,0.37-0.51l0.26-1.08
		C32.56,32.96,32.57,32.18,32.39,31.45L32.39,31.45z M31.37,28.93h0.61c0.04,0,0.04,0.04,0.02,0.06l-0.14,0.11h-0.08
		c-0.56,0-1.05,0.39-1.16,0.94l-0.07,0.3l-0.12-0.27c-0.18-0.41-0.28-0.85-0.28-1.3v-0.45h0.98v0.36
		C31.13,28.82,31.24,28.93,31.37,28.93L31.37,28.93z M30.7,26c0.03,0.1,0.05,0.21,0.05,0.32v0.39c-0.2-0.23-0.47-0.39-0.77-0.45
		c0.21-0.1,0.35-0.31,0.35-0.55c0-0.28-0.19-0.52-0.44-0.59v-1.37H30L30.7,26z M29.71,25.43c0.15,0,0.27,0.12,0.27,0.27
		c0,0.15-0.12,0.27-0.27,0.27s-0.27-0.12-0.27-0.27C29.43,25.56,29.56,25.43,29.71,25.43L29.71,25.43z M27.63,29.11h-0.08
		l-0.14-0.11c-0.03-0.02-0.02-0.06,0.02-0.06h0.61c0.13,0,0.24-0.11,0.24-0.24v-0.36h0.98v0.45c0,0.45-0.09,0.89-0.28,1.3
		l-0.12,0.27l-0.07-0.3C28.68,29.5,28.19,29.11,27.63,29.11L27.63,29.11z M29.6,28.65v-0.36c0-0.07-0.02-0.13-0.06-0.18
		c0.05,0.02,0.11,0.03,0.17,0.03c0.06,0,0.12-0.01,0.17-0.03c-0.04,0.05-0.06,0.11-0.06,0.18v0.36
		C29.74,28.65,29.67,28.65,29.6,28.65z M29.53,27.61c0-0.1,0.08-0.18,0.18-0.18c0.1,0,0.18,0.08,0.18,0.18
		c0,0.1-0.08,0.18-0.18,0.18C29.61,27.79,29.53,27.71,29.53,27.61z M30.12,27.99c-0.02,0-0.04,0-0.05,0
		c0.1-0.09,0.16-0.23,0.16-0.38c0-0.29-0.23-0.52-0.52-0.52c-0.29,0-0.52,0.23-0.52,0.52c0,0.15,0.06,0.28,0.16,0.38
		c-0.02,0-0.04-0.01-0.05-0.01h-0.56c-0.05-0.12-0.07-0.24-0.07-0.37c0-0.32,0.15-0.62,0.4-0.82c0.07-0.06,0.09-0.17,0.03-0.24
		c-0.06-0.07-0.17-0.09-0.24-0.03c-0.07,0.05-0.13,0.12-0.19,0.18v-0.39c0-0.11,0.02-0.21,0.05-0.32l0.69-2.25h0.13v1.37
		c-0.26,0.07-0.44,0.31-0.44,0.59c0,0.29,0.2,0.54,0.48,0.6c-0.02,0.03-0.03,0.06-0.03,0.1c0,0.09,0.08,0.17,0.17,0.17
		c0.56,0,1.02,0.45,1.04,1.01c0,0.14-0.02,0.27-0.07,0.39H30.12z"/>
</g>
<g>
	<path class="st2" d="M9.86,28.68H9.82v-0.36c0-0.16-0.13-0.28-0.28-0.28H9.32v-1.21c0-0.12-0.08-0.22-0.18-0.26v-2.07
		c0-0.12-0.03-0.24-0.08-0.35l-0.31-0.61c-0.04-0.08-0.12-0.13-0.21-0.13c-0.09,0-0.17,0.05-0.21,0.13l-0.31,0.61
		c-0.06,0.11-0.08,0.23-0.08,0.35v2.07c-0.11,0.04-0.18,0.14-0.18,0.26v1.21H7.53c-0.16,0-0.28,0.13-0.28,0.28v0.36H7.2
		c-0.19,0-0.35,0.16-0.35,0.35v0.89c0,0.19,0.16,0.35,0.35,0.35h0.05v0.23c0,0.3-0.06,0.59-0.18,0.87l0,0.01
		c-0.19,0.43-0.25,0.9-0.19,1.36l0.33,2.33c0.03,0.19,0.2,0.34,0.39,0.34h0.66c0.09,0,0.17-0.08,0.17-0.17
		c0-0.09-0.08-0.17-0.17-0.17H7.61c-0.03,0-0.05-0.02-0.06-0.05l-0.09-0.62c0.21-0.06,0.37-0.21,0.45-0.41
		c0.1,0.25,0.35,0.43,0.64,0.43c0.29,0,0.53-0.18,0.63-0.43c0.07,0.18,0.22,0.32,0.41,0.39l-0.1,0.64c0,0.03-0.03,0.05-0.06,0.05
		H9.1c-0.09,0-0.17,0.08-0.17,0.17c0,0.09,0.08,0.17,0.17,0.17h0.34c0.2,0,0.36-0.15,0.39-0.34l0.35-2.33
		c0.07-0.47,0.01-0.94-0.18-1.38c-0.12-0.28-0.18-0.57-0.18-0.87v-0.23h0.05c0.19,0,0.35-0.16,0.35-0.35v-0.89
		C10.22,28.84,10.06,28.68,9.86,28.68L9.86,28.68z M8.27,25.62H8.8v0.92H8.27V25.62z M8.27,24.49c0-0.07,0.02-0.13,0.05-0.19
		l0.22-0.43l0.22,0.43c0.03,0.06,0.05,0.13,0.05,0.19v0.79H8.27V24.49z M8.09,26.88h0.9v1.15h-0.9L8.09,26.88z M7.62,33.74
		c0,0.14-0.08,0.26-0.21,0.31l-0.2-1.37c-0.02-0.16-0.03-0.32-0.01-0.48c0.21-0.05,0.42,0.12,0.41,0.34L7.62,33.74z M8.89,33.74
		c0,0.19-0.15,0.34-0.34,0.34c-0.19,0-0.34-0.15-0.34-0.34v-1.2c0-0.19,0.15-0.34,0.34-0.34c0.19,0,0.34,0.15,0.34,0.34V33.74z
		 M9.47,33.74v-1.2c0-0.21,0.18-0.37,0.39-0.34c0.01,0.16,0.01,0.33-0.02,0.49l-0.2,1.34C9.54,33.97,9.47,33.86,9.47,33.74
		L9.47,33.74z M9.69,31.5c0.05,0.12,0.09,0.23,0.12,0.35c-0.28,0-0.52,0.18-0.62,0.43c-0.1-0.25-0.35-0.43-0.63-0.43
		c-0.29,0-0.54,0.18-0.64,0.43c-0.1-0.25-0.35-0.43-0.64-0.43c0,0-0.01,0-0.01,0c0.03-0.12,0.07-0.23,0.12-0.35l0-0.01
		c0.14-0.32,0.21-0.66,0.21-1.01v-0.23h1.88v0.23C9.47,30.84,9.55,31.18,9.69,31.5L9.69,31.5z M9.88,29.92
		c0,0.01-0.01,0.01-0.01,0.01H7.2c-0.01,0-0.01-0.01-0.01-0.01v-0.89c0-0.01,0.01-0.01,0.01-0.01h0.67c0.09,0,0.17-0.08,0.17-0.17
		c0-0.09-0.08-0.17-0.17-0.17H7.59v-0.3h1.88v0.3H8.65c-0.09,0-0.17,0.08-0.17,0.17c0,0.09,0.08,0.17,0.17,0.17h1.21
		c0.01,0,0.01,0.01,0.01,0.01L9.88,29.92L9.88,29.92z"/>
	<path class="st2" d="M13.64,28.39c-0.07-0.06-0.17-0.07-0.25-0.03l-0.62,0.28c-0.07,0.03-0.14,0.08-0.2,0.13v-0.24
		c0-0.13-0.08-0.24-0.2-0.27v-0.34c0.12-0.04,0.2-0.14,0.2-0.27v-0.86c0-0.13-0.08-0.24-0.2-0.27v-0.68c0-0.16-0.13-0.28-0.28-0.28
		h-0.65c-0.16,0-0.28,0.13-0.28,0.28v0.68c-0.12,0.04-0.2,0.14-0.2,0.27v0.86c0,0.13,0.08,0.24,0.2,0.27v0.34
		c-0.12,0.04-0.2,0.14-0.2,0.27v0.86c0,0.16,0.13,0.28,0.28,0.28h0.61l-0.26,0.33c-0.04-0.02-0.09-0.02-0.14-0.02
		c-0.08,0.01-0.14,0.05-0.19,0.11l-0.53,0.68c-0.1,0.12-0.08,0.3,0.05,0.4l0.82,0.65c0.12,0.1,0.3,0.08,0.4-0.05l0.53-0.68
		c0.05-0.06,0.07-0.13,0.06-0.21c-0.01-0.05-0.02-0.09-0.05-0.13l0.9-1.14c0.07-0.09,0.13-0.21,0.15-0.33l0.13-0.67
		C13.75,28.53,13.71,28.44,13.64,28.39L13.64,28.39z M12.29,30.54l-0.42-0.33l0.45-0.58l0.42,0.33L12.29,30.54z M11.5,28.25v-0.32
		h0.53v0.32H11.5z M11.3,27.59v-0.75h0.93v0.75H11.3z M12.04,25.89v0.61H11.5v-0.61H12.04z M11.3,28.59h0.93v0.6l-0.11,0.15H11.3
		L11.3,28.59L11.3,28.59z M11.78,31.52l-0.73-0.58l0.46-0.59l0.73,0.58L11.78,31.52z M13.27,29.23c-0.01,0.07-0.04,0.13-0.08,0.18
		l-0.23,0.29l-0.42-0.33l0.23-0.29c0.04-0.05,0.09-0.09,0.16-0.12l0.44-0.2L13.27,29.23z"/>
</g>
</svg>
