<svg width="13" height="13" viewBox="0 0 13 13" fill="none" xmlns="http://www.w3.org/2000/svg">
<g clip-path="url(#clip0)">
<path d="M12.9499 4.41888L10.8749 0.699561C10.8051 0.574609 10.6732 0.497131 10.5301 0.497131H2.47008C2.32697 0.497131 2.19507 0.574556 2.12533 0.699561L0.0500272 4.41888C-0.0287657 4.5601 -0.0134493 4.73511 0.0886605 4.86054L6.1943 12.3573C6.19625 12.3597 6.19851 12.3618 6.20051 12.3641C6.20683 12.3716 6.21335 12.3788 6.22025 12.3857C6.22104 12.3865 6.22172 12.3874 6.22251 12.3882C6.2243 12.39 6.22614 12.3916 6.22799 12.3933C6.22862 12.3939 6.2293 12.3944 6.22993 12.395C6.23693 12.4016 6.24415 12.4079 6.25162 12.414C6.25504 12.4168 6.25851 12.4196 6.26204 12.4223C6.26967 12.4281 6.27757 12.4335 6.28562 12.4388C6.28941 12.4412 6.29315 12.4437 6.29699 12.4461C6.30378 12.4501 6.31083 12.4539 6.31789 12.4576C6.32078 12.4591 6.32357 12.4607 6.32652 12.4621C6.3292 12.4635 6.33183 12.4648 6.33452 12.466C6.34236 12.4697 6.35047 12.4728 6.35868 12.4759C6.36378 12.4779 6.36878 12.4801 6.37399 12.4819C6.37499 12.4822 6.37584 12.4827 6.37684 12.483C6.3772 12.4831 6.37757 12.4831 6.37794 12.4832C6.38141 12.4844 6.38515 12.485 6.38873 12.4861C6.40205 12.49 6.41557 12.4932 6.42926 12.4958C6.43494 12.4968 6.44058 12.4979 6.44631 12.4987C6.46258 12.5009 6.47905 12.5023 6.49568 12.5026C6.49721 12.5026 6.49874 12.5029 6.50031 12.5029H6.50037H6.50042C6.502 12.5029 6.50353 12.5026 6.50505 12.5026C6.52174 12.5023 6.53821 12.5009 6.55447 12.4987C6.56016 12.4979 6.56574 12.4968 6.57137 12.4958C6.58521 12.4933 6.59885 12.49 6.61221 12.486C6.61564 12.485 6.61921 12.4844 6.62264 12.4833C6.62306 12.4831 6.62348 12.4831 6.62385 12.483C6.6249 12.4827 6.62574 12.4822 6.62674 12.4818C6.6319 12.4801 6.63679 12.4779 6.64185 12.476C6.65006 12.4729 6.65827 12.4697 6.66616 12.4661C6.6689 12.4648 6.67164 12.4635 6.67432 12.4621C6.67711 12.4608 6.6798 12.4592 6.68248 12.4578C6.68964 12.4541 6.69674 12.4503 6.70359 12.4462C6.70748 12.4438 6.71127 12.4413 6.71517 12.4388C6.72317 12.4336 6.73106 12.4281 6.73854 12.4224C6.74212 12.4197 6.74559 12.4169 6.74901 12.4141C6.75659 12.408 6.7638 12.4016 6.7708 12.395C6.77149 12.3943 6.77222 12.3938 6.77291 12.3932C6.77449 12.3917 6.77617 12.3902 6.77775 12.3887C6.77864 12.3878 6.77943 12.3868 6.78033 12.3859C6.78738 12.3788 6.79406 12.3713 6.80049 12.3638C6.80238 12.3616 6.80449 12.3596 6.80633 12.3573L12.9113 4.86054C13.0134 4.73511 13.0287 4.5601 12.9499 4.41888ZM7.27924 1.28669L8.39729 4.21651H4.60318L5.7216 1.28669H7.27924ZM8.42482 5.00602L6.50037 10.8466L4.5757 5.00602H8.42482ZM3.74446 5.00602L5.45632 10.2009L1.2254 5.00602H3.74446ZM9.25607 5.00602H11.7747L7.54447 10.2008L9.25607 5.00602ZM11.9329 4.21651H9.24233L8.12428 1.28669H10.2984L11.9329 4.21651ZM2.70183 1.28669H4.87651L3.75814 4.21651H1.06707L2.70183 1.28669Z" fill="white"/>
</g>
<defs>
<clipPath id="clip0">
<rect width="13" height="13" fill="white"/>
</clipPath>
</defs>
</svg>
