<svg width="16" height="22" viewBox="0 0 16 22" fill="none" xmlns="http://www.w3.org/2000/svg">
<path d="M7.88457 0.0272217C3.51191 0.0272217 0 3.67861 0 8.14536C0 12.6121 7.88457 21.2975 7.88457 21.2975C7.88457 21.2975 15.7691 12.6476 15.7691 8.14536C15.7691 3.64316 12.2572 0.0272217 7.88457 0.0272217ZM7.88457 20.2339C7.16153 19.4186 5.81874 17.8233 4.47596 15.9444C1.99697 12.5058 0.688609 9.81153 0.688609 8.10991C0.688609 4.03312 3.92507 0.700779 7.88457 0.700779C11.8441 0.700779 15.0805 4.06857 15.0805 8.14536C15.0805 9.81153 13.7722 12.5412 11.2932 15.9799C9.9504 17.8233 8.60761 19.4186 7.88457 20.2339Z" fill="#969696"/>
<path d="M7.88449 3.92676C5.81867 3.92676 4.16602 5.62838 4.16602 7.75541C4.16602 9.88244 5.81867 11.5841 7.88449 11.5841C9.95031 11.5841 11.603 9.88244 11.603 7.75541C11.603 5.66383 9.95031 3.92676 7.88449 3.92676ZM10.0192 9.98879C9.46829 10.556 8.71082 10.9105 7.88449 10.9105C7.05816 10.9105 6.3007 10.556 5.74981 9.98879C5.19892 9.42158 4.85462 8.64167 4.85462 7.79086C4.85462 6.94005 5.19892 6.16014 5.74981 5.59293C6.3007 5.02572 7.05816 4.67122 7.88449 4.67122C8.71082 4.67122 9.46829 5.02572 10.0192 5.59293C10.5701 6.16014 10.9144 6.94005 10.9144 7.79086C10.9144 8.64167 10.5701 9.42158 10.0192 9.98879Z" fill="#969696"/>
</svg>
