<svg width="23" height="23" viewBox="0 0 23 23" fill="none" xmlns="http://www.w3.org/2000/svg">
<path d="M17.25 11.8594C16.3415 11.8594 15.4862 12.0876 14.7344 12.4861V10.5142C15.4862 10.9124 16.3415 11.1406 17.25 11.1406C20.2224 11.1406 22.6406 8.72239 22.6406 5.75C22.6406 2.77761 20.2224 0.359375 17.25 0.359375C15.143 0.359375 13.3195 1.5773 12.4333 3.34327L8.76803 0.642203C8.27209 0.277078 7.54041 0.276719 7.04447 0.642563L0.359375 5.56852V7.54688H1.07812V14.5719C0.623516 15.3622 0.359375 16.275 0.359375 17.25C0.359375 20.2224 2.77761 22.6406 5.75 22.6406C8.72239 22.6406 11.1406 20.2224 11.1406 17.25C11.1406 16.8809 11.1029 16.5205 11.0321 16.1719H11.9683C11.8971 16.5205 11.8594 16.8809 11.8594 17.25C11.8594 20.2224 14.2776 22.6406 17.25 22.6406C20.2224 22.6406 22.6406 20.2224 22.6406 17.25C22.6406 14.2776 20.2224 11.8594 17.25 11.8594ZM17.25 1.07812C19.826 1.07812 21.9219 3.174 21.9219 5.75C21.9219 8.326 19.826 10.4219 17.25 10.4219C14.674 10.4219 12.5781 8.326 12.5781 5.75C12.5781 3.174 14.674 1.07812 17.25 1.07812ZM11.8777 6.10938C11.8939 6.35303 11.9205 6.59417 11.9683 6.82812H8.26562V6.10938H11.8777ZM9.89791 2.36756L8.98438 3.46366V4.67188H9.70312V4.17522L10.6206 4.63378L10.9423 3.99086L9.91084 3.47516L10.4779 2.7945L12.148 4.025C12.001 4.45841 11.9097 4.91589 11.8781 5.39027H8.26562V1.1827C8.29042 1.19636 8.31881 1.20391 8.34181 1.2208L9.89791 2.36756ZM7.47069 1.22116C7.49369 1.20427 7.52172 1.19672 7.54688 1.18306V5.39062H1.81197L4.42966 3.46186L4.77537 4.2683L6.75769 4.66505L6.89892 3.96031L5.28748 3.63831L5.02406 3.02414L7.47069 1.22116ZM1.07812 6.10938H7.54688V6.82812H1.07812V6.10938ZM1.79688 7.54688H7.54688V12.1738C7.31328 12.0908 7.07502 12.0182 6.82812 11.9679V8.26562H2.51562V12.9476C2.25688 13.1427 2.01645 13.3598 1.79688 13.5973V7.54688ZM6.10938 11.8777C5.99006 11.8698 5.87147 11.8594 5.75 11.8594C4.8415 11.8594 3.98619 12.0876 3.23438 12.4861V8.98438H6.10938V11.8777ZM5.75 21.9219C3.174 21.9219 1.07812 19.826 1.07812 17.25C1.07812 14.674 3.174 12.5781 5.75 12.5781C8.326 12.5781 10.4219 14.674 10.4219 17.25C10.4219 19.826 8.326 21.9219 5.75 21.9219ZM10.8262 15.4531C10.3719 14.1737 9.45156 13.1147 8.26562 12.4861V7.54688H12.1738C12.3589 8.06761 12.6209 8.55097 12.9476 8.98438H8.98438V12.5781H13.2969V9.40269C13.5165 9.64023 13.7569 9.8573 14.0156 10.0524V12.9479C13.1779 13.579 12.5314 14.4469 12.1738 15.4531H10.8262ZM12.5781 9.70312V11.8594H9.70312V9.70312H12.5781ZM17.25 21.9219C14.674 21.9219 12.5781 19.826 12.5781 17.25C12.5781 14.674 14.674 12.5781 17.25 12.5781C19.826 12.5781 21.9219 14.674 21.9219 17.25C21.9219 19.826 19.826 21.9219 17.25 21.9219Z" fill="#969696"/>
<path d="M7.90625 14.0156H5.03125C4.56334 14.0156 4.16803 14.3171 4.01925 14.7344H2.51562V16.8119L5.39062 17.5307V18.3942C4.97339 18.543 4.67188 18.9383 4.67188 19.4062V20.125C4.67188 20.7194 5.15559 21.2031 5.75 21.2031C6.34441 21.2031 6.82812 20.7194 6.82812 20.125V19.4062C6.82812 18.9383 6.52661 18.543 6.10938 18.3942V16.969L3.23438 16.2502V15.4531H4.01925C4.16803 15.8704 4.56334 16.1719 5.03125 16.1719H7.90625C8.50066 16.1719 8.98438 15.6882 8.98438 15.0938C8.98438 14.4993 8.50066 14.0156 7.90625 14.0156ZM6.10938 20.125C6.10938 20.3234 5.94802 20.4844 5.75 20.4844C5.55198 20.4844 5.39062 20.3234 5.39062 20.125V19.4062C5.39062 19.2079 5.55198 19.0469 5.75 19.0469C5.94802 19.0469 6.10938 19.2079 6.10938 19.4062V20.125ZM7.90625 15.4531H5.03125C4.83323 15.4531 4.67188 15.2921 4.67188 15.0938C4.67188 14.8954 4.83323 14.7344 5.03125 14.7344H7.90625C8.10427 14.7344 8.26562 14.8954 8.26562 15.0938C8.26562 15.2921 8.10427 15.4531 7.90625 15.4531Z" fill="#969696"/>
<path d="M15.8125 6.82812C15.9987 6.82812 16.1848 6.80297 16.3685 6.7523L18.2846 8.66848C18.488 8.87225 18.759 8.98438 19.0469 8.98438C19.3347 8.98438 19.6057 8.87189 19.8091 8.66848C20.0129 8.46508 20.125 8.19411 20.125 7.90625C20.125 7.61839 20.0129 7.34742 19.8091 7.14402L17.8929 5.22783C17.9432 5.04419 17.9688 4.85839 17.9688 4.67188C17.9688 3.4827 17.0017 2.51562 15.8125 2.51562H15.6637L14.945 3.23438L15.7996 4.08897C15.7446 4.37683 15.5171 4.60395 15.23 4.65894L14.375 3.80434L13.6562 4.52309V4.67188C13.6562 5.86105 14.6233 6.82812 15.8125 6.82812ZM14.945 5.39062H15.0938C15.8865 5.39062 16.5312 4.74591 16.5312 3.95312V3.80434L15.9699 3.24264C16.6887 3.32134 17.25 3.93228 17.25 4.67188C17.25 4.84545 17.2155 5.02155 17.1479 5.19405L17.0617 5.41291L19.301 7.65181C19.3696 7.72081 19.4062 7.80886 19.4062 7.90625C19.4062 8.00364 19.3696 8.09169 19.301 8.16033C19.163 8.29797 18.9308 8.29797 18.7928 8.16033L16.5539 5.92142L16.335 6.00731C16.1618 6.07487 15.9861 6.10938 15.8125 6.10938C15.0729 6.10938 14.4623 5.54803 14.3836 4.82928L14.945 5.39062Z" fill="#969696"/>
<path d="M16.1672 15.0682L15.5318 15.3216L17.1012 16.8906L16.2711 17.7211C15.8718 17.5411 15.369 17.6065 15.0506 17.9253L14.3319 18.644C14.1278 18.8474 14.0156 19.1184 14.0156 19.4062C14.0156 19.6941 14.1278 19.9651 14.3315 20.1685C14.5349 20.3722 14.8059 20.4844 15.0938 20.4844C15.3816 20.4844 15.6526 20.3719 15.856 20.1685L16.5747 19.4497C16.7785 19.2463 16.8906 18.9754 16.8906 18.6875C16.8906 18.5243 16.8511 18.3687 16.7828 18.2257L17.6094 17.3991L19.178 18.9678L19.4321 18.3332C19.8918 17.1828 20.125 15.9721 20.125 14.7344V14.375H19.7656C18.5269 14.375 17.3161 14.6082 16.1672 15.0682ZM16.0666 18.9416L15.3478 19.6603C15.2098 19.798 14.9777 19.798 14.8397 19.6603C14.771 19.5917 14.7344 19.5036 14.7344 19.4062C14.7344 19.3089 14.771 19.2208 14.8397 19.1522L15.5584 18.4334C15.6274 18.3648 15.7151 18.3281 15.8125 18.3281C15.9099 18.3281 15.9976 18.3648 16.0666 18.4334C16.1352 18.5021 16.1719 18.5901 16.1719 18.6875C16.1719 18.7849 16.1352 18.8729 16.0666 18.9416ZM18.9085 17.6813L16.8187 15.5915C17.6518 15.3011 18.5168 15.1369 19.3991 15.1013C19.3631 15.9832 19.1989 16.8482 18.9085 17.6813Z" fill="#969696"/>
</svg>
