<svg width="48" height="44" viewBox="0 0 48 44" fill="none" xmlns="http://www.w3.org/2000/svg">
<path d="M47.0358 33.2693L30.0509 3.29471C28.756 1.24215 26.5038 0 23.9981 0C21.4925 0 19.2407 1.24215 17.9176 3.34846L0.989079 33.2152C-0.305845 35.3485 -0.334044 37.8869 0.932682 40.0203C2.19941 42.1537 4.47981 43.4229 7.04146 43.4229H40.9548C43.5169 43.4229 45.7969 42.1537 47.0636 40.0203C48.3307 37.8869 48.3025 35.3485 47.0358 33.2693Z" fill="#FFE17A"/>
<path d="M47.0635 40.0203C45.7968 42.1537 43.5168 43.4229 40.9547 43.4229H23.998V0C26.5037 0 28.7559 1.24215 30.0508 3.29471L47.0357 33.2693C48.3024 35.3485 48.3306 37.8869 47.0635 40.0203Z" fill="#FDBF00"/>
<path d="M25.4058 21.8195V13.718H21.38L14.1169 29.9209H22.5903V38.0223H26.7007L32.2748 21.8195H25.4058Z" fill="#575F64"/>
<path d="M32.2748 21.8195L26.7007 38.0223H23.998V13.718H25.4058V21.8195H32.2748Z" fill="#32393F"/>
</svg>
