<svg width="17" height="17" viewBox="0 0 17 17" fill="none" xmlns="http://www.w3.org/2000/svg">
<path d="M8.49996 13.26C12.9322 13.26 16.4396 8.89677 16.5865 8.71113L16.7535 8.49999L16.5865 8.28885C16.4396 8.10321 12.9322 3.73999 8.49996 3.73999C4.06772 3.73999 0.56028 8.10321 0.4134 8.28885L0.24646 8.49999L0.4134 8.71113C0.56028 8.89677 4.06772 13.26 8.49996 13.26ZM8.49996 4.41999C12.0679 4.41999 15.1198 7.63639 15.8746 8.49999C15.1208 9.36427 12.073 12.58 8.49996 12.58C4.932 12.58 1.88016 9.36359 1.12536 8.49999C1.87914 7.63571 4.9269 4.41999 8.49996 4.41999Z" fill="black" fill-opacity="0.5"/>
<path d="M8.49994 11.56C10.1874 11.56 11.5599 10.1871 11.5599 8.5C11.5599 6.81292 10.1874 5.44 8.49994 5.44C6.81252 5.44 5.43994 6.81292 5.43994 8.5C5.43994 10.1871 6.81252 11.56 8.49994 11.56ZM8.49994 6.12C9.812 6.12 10.8799 7.1876 10.8799 8.5C10.8799 9.8124 9.812 10.88 8.49994 10.88C7.18788 10.88 6.11994 9.8124 6.11994 8.5C6.11994 7.1876 7.18788 6.12 8.49994 6.12Z" fill="black" fill-opacity="0.5"/>
</svg>
