<svg width="12" height="20" viewBox="0 0 12 20" fill="none" xmlns="http://www.w3.org/2000/svg">
<path opacity="0.3" d="M11.2823 4.07741V1.1372C11.2823 1.1372 8.2647 1.10938 8.05981 1.10938C6.69632 1.10938 4.73491 2.65461 4.73491 4.4076C4.73491 6.3832 4.73491 7.55372 4.73491 7.55372H1.90735V10.8909H4.69579V19.1699H7.99461V10.8538H10.9097L11.2804 7.59268H8.03187C8.03187 7.59268 8.03187 5.58925 8.03187 5.19784C8.03187 4.62279 8.46587 4.06072 9.11968 4.06072C9.55554 4.06072 11.2823 4.07741 11.2823 4.07741Z" fill="#555253"/>
<path d="M9.37304 3.12536V0.187005C9.37304 0.187005 6.35549 0.15918 6.15059 0.15918C4.7871 0.15918 2.8257 1.70441 2.8257 3.45741C2.8257 5.43301 2.8257 6.60353 2.8257 6.60353H0V9.94071H2.78844V18.2197H6.08726V9.90361H9.00237L9.37304 6.64248H6.12451C6.12451 6.64248 6.12451 4.63906 6.12451 4.24765C6.12451 3.67259 6.55852 3.11052 7.21232 3.11052C7.64633 3.10866 9.37304 3.12536 9.37304 3.12536Z" fill="white"/>
</svg>
