<svg width="8" height="14" viewBox="0 0 8 14" fill="none" xmlns="http://www.w3.org/2000/svg">
<path opacity="0.3" d="M7.7572 2.79843V0.776823C7.7572 0.776823 5.68242 0.75769 5.54154 0.75769C4.60404 0.75769 3.25543 1.82015 3.25543 3.02546C3.25543 4.38383 3.25543 5.18864 3.25543 5.18864H1.31128V7.4832H3.22854V13.1756H5.49671V7.45769H7.50106L7.75592 5.21543H5.52233C5.52233 5.21543 5.52233 3.83793 5.52233 3.56881C5.52233 3.17341 5.82074 2.78695 6.27027 2.78695C6.56996 2.78695 7.7572 2.79843 7.7572 2.79843Z" fill="#555253"/>
<path d="M6.44464 2.14383V0.123502C6.44464 0.123502 4.36985 0.10437 4.22897 0.10437C3.29148 0.10437 1.94287 1.16683 1.94287 2.37214C1.94287 3.73051 1.94287 4.53532 1.94287 4.53532H0V6.82988H1.91726V12.5223H4.18543V6.80437H6.18977L6.44464 4.56211H4.21104C4.21104 4.56211 4.21104 3.18461 4.21104 2.91549C4.21104 2.52009 4.50945 2.13363 4.95899 2.13363C5.2574 2.13235 6.44464 2.14383 6.44464 2.14383Z" fill="#969696" fill-opacity="0.83"/>
</svg>
