<svg width="48" height="49" viewBox="0 0 48 49" fill="none" xmlns="http://www.w3.org/2000/svg">
<path d="M19.862 8.44829L27.3103 0H11.7517L19.2 8.44829H19.862Z" fill="#9E5A23"/>
<path d="M19.5311 27.0345L4.30347 11.4897L9.02069 6.75867L24.2483 22.3035L19.5311 27.0345Z" fill="#844414"/>
<path d="M19.5311 17.488L34.7588 1.94312L39.3932 6.75861L24.1657 22.3035L19.5311 17.488Z" fill="#9E5A23"/>
<path d="M19.5311 36.581L4.30347 21.0362L9.02069 16.2207L24.2483 31.7656L19.5311 36.581Z" fill="#9E5A23"/>
<path d="M19.5311 27.0346L34.7588 11.4897L39.476 16.3052L24.1657 31.8501L19.5311 27.0346Z" fill="#CE8D5B"/>
<path d="M19.5311 46.1276L4.30347 30.5828L9.02069 25.7673L24.1655 41.3966L19.5311 46.1276Z" fill="#CE8D5B"/>
<path d="M19.531 36.581L34.7586 21.0361L39.4758 25.8516L24.1655 41.3965L19.531 36.581Z" fill="#9E5A23"/>
<path d="M9.02069 44.9448L5.04822 49H12.9103L9.02069 44.9448Z" fill="#CE8D5B"/>
<path d="M9.02069 35.3983L4.30347 40.2138L12.9103 49H22.262L9.02069 35.3983Z" fill="#844414"/>
<path d="M26.069 49H35.4207L39.3931 44.9448L34.7587 40.2137L26.069 49Z" fill="#CE8D5B"/>
<path d="M43.3656 49L39.3932 44.9448L35.4208 49H43.3656Z" fill="#844414"/>
<path d="M19.531 7.94135L24.2482 12.7568L36.7448 0H27.3103L19.531 7.94135Z" fill="#844414"/>
<path d="M4.30334 1.94306L19.531 17.4879L24.2482 12.6724L11.8344 0H6.20684L4.30334 1.94306Z" fill="#CE8D5B"/>
<path d="M19.531 46.1276L22.262 49H26.1517L39.4758 35.3983L34.7586 30.6672L19.531 46.1276Z" fill="#844414"/>
<path d="M4.30341 1.94306L6.20691 0H0V6.33622L4.30341 1.94306Z" fill="#844414"/>
<path d="M0 15.8829L9.02072 6.75871L4.30341 1.94312L0 6.33627V15.8829Z" fill="#9E5A23"/>
<path d="M0 25.4293L9.02072 16.2206L4.3035 11.4052L0 15.8828V25.4293Z" fill="#CE8D5B"/>
<path d="M0 34.9758L9.02072 25.7672L4.3035 20.9517L0 25.4292V34.9758Z" fill="#844414"/>
<path d="M0 44.6069L9.02072 35.3983L4.3035 30.5828L0 34.9758V44.6069Z" fill="#9E5A23"/>
<path d="M4.30341 40.2137L0 44.6069V49H5.04825L9.02063 44.9448L4.30341 40.2137Z" fill="#844414"/>
<path d="M48 5.91378L42.2069 0H36.6621L34.7587 2.02757L48 15.5449V5.91378Z" fill="#CE8D5B"/>
<path d="M48 15.5449L39.3931 6.75867L34.7587 11.4897L48 25.007V15.5449Z" fill="#844414"/>
<path d="M48 25.0069L39.4759 16.2207L34.7587 21.0362L48 34.5534V25.0069Z" fill="#9E5A23"/>
<path d="M48 34.5534L39.4759 25.8517L34.7587 30.6672L48 44.1845V34.5534Z" fill="#CE8D5B"/>
<path d="M39.3931 35.3982L34.7587 40.2137L43.3656 48.9999H48V44.1844L39.3931 35.3982Z" fill="#9E5A23"/>
<path d="M42.2069 0L48 5.91378V0H42.2069Z" fill="#9E5A23"/>
</svg>
