<svg width="9" height="16" viewBox="0 0 9 16" fill="none" xmlns="http://www.w3.org/2000/svg">
<path d="M7.85957 0H1.03404C0.466266 0 0 0.467369 0 1.03799V14.3295C0 14.8994 0.46559 15.3675 1.03404 15.3675H7.85957C8.42735 15.3675 8.89362 14.9001 8.89362 14.3295V1.03799C8.89294 0.467369 8.42735 0 7.85957 0ZM3.35524 0.747925H5.5377C5.60808 0.747925 5.66357 0.803628 5.66357 0.874956C5.66357 0.943567 5.60808 0.999272 5.5377 0.999272H3.35524C3.28486 0.999272 3.22869 0.943567 3.22869 0.874956C3.22869 0.804307 3.28486 0.747925 3.35524 0.747925ZM4.44681 14.8485C4.16055 14.8485 3.93046 14.6168 3.93046 14.3295C3.93046 14.0421 4.16055 13.8112 4.44681 13.8112C4.73307 13.8112 4.96315 14.0428 4.96315 14.3295C4.96315 14.6168 4.73239 14.8485 4.44681 14.8485ZM8.1729 13.4464H0.719367V1.64666H8.1729V13.4464Z" fill="#969696"/>
</svg>
