<svg width="17" height="11" viewBox="0 0 17 11" fill="none" xmlns="http://www.w3.org/2000/svg">
<path d="M8.52197 6.59696H8.52511C8.65378 6.59696 8.78009 6.56128 8.88208 6.496L8.91033 6.47854C8.9166 6.47398 8.9221 6.47095 8.92994 6.46715L9.25319 6.20676L16.9827 0.0356799C16.9678 0.0144238 16.9396 0 16.9106 0H0.0902259C0.0698272 0 0.0502125 0.00683188 0.0345211 0.0197373L8.12184 6.46791C8.22383 6.5499 8.36898 6.59696 8.52197 6.59696ZM0.000785333 0.873775V10.0222L5.79403 5.49393L0.000785333 0.873775ZM11.2138 5.52505L17 10.0253V0.903381L11.2138 5.52505ZM9.37401 6.994C9.14256 7.17695 8.84129 7.27792 8.52354 7.27792C8.20579 7.27792 7.90451 7.17771 7.67464 6.99551L6.34715 5.93651L0 10.8968V10.9127C0 10.9598 0.0415819 11 0.0917942 11H16.9113C16.9584 11 17 10.9598 17 10.9127V10.8983L10.6583 5.96839L9.37401 6.994Z" fill="#969696"/>
</svg>
