<svg width="40" height="59" viewBox="0 0 40 59" fill="none" xmlns="http://www.w3.org/2000/svg">
<path d="M19.9784 0.942017C9.37013 0.942017 0.739258 9.57289 0.739258 20.1811C0.739258 23.3657 1.53546 26.5233 3.04908 29.3239L18.9263 58.0393C19.1377 58.4221 19.5404 58.6593 19.9784 58.6593C20.4163 58.6593 20.8191 58.4221 21.0305 58.0393L36.9136 29.3145C38.4213 26.5233 39.2175 23.3656 39.2175 20.181C39.2175 9.57289 30.5866 0.942017 19.9784 0.942017ZM19.9784 29.8007C14.6743 29.8007 10.3589 25.4853 10.3589 20.1811C10.3589 14.877 14.6743 10.5616 19.9784 10.5616C25.2825 10.5616 29.5979 14.877 29.5979 20.1811C29.5979 25.4853 25.2825 29.8007 19.9784 29.8007Z" fill="#58BC40"/>
</svg>
