<svg width="48" height="31" viewBox="0 0 48 31" fill="none" xmlns="http://www.w3.org/2000/svg">
<path d="M24.062 18.5914H24.0709C24.4342 18.5914 24.7908 18.4909 25.0788 18.3069L25.1586 18.2577C25.1763 18.2449 25.1918 18.2363 25.214 18.2256L26.1266 17.4918L47.9513 0.100552C47.9092 0.040649 47.8294 0 47.7475 0H0.254756C0.197159 0 0.141776 0.0192535 0.0974715 0.0556234L22.9323 18.2277C23.2202 18.4588 23.6301 18.5914 24.062 18.5914ZM0.00221741 2.46246V28.2444L16.3596 15.4829L0.00221741 2.46246ZM31.6625 15.5706L48 28.253V2.54589L31.6625 15.5706ZM26.4678 19.7104C25.8143 20.226 24.9636 20.5105 24.0665 20.5105C23.1693 20.5105 22.3186 20.2281 21.6696 19.7146L17.9214 16.7302L0 30.709V30.754C0 30.8866 0.117408 31 0.259184 31H47.7497C47.8826 31 48 30.8866 48 30.754V30.7133L30.0941 16.82L26.4678 19.7104Z" fill="#58BC40"/>
</svg>
