<svg width="32" height="56" viewBox="0 0 32 56" fill="none" xmlns="http://www.w3.org/2000/svg">
<path d="M28.1184 0.463745H3.83764C1.81785 0.463745 0.15918 2.12634 0.15918 4.15625V51.4387C0.15918 53.4661 1.81544 55.1311 3.83764 55.1311H28.1184C30.1382 55.1311 31.7969 53.4686 31.7969 51.4387V4.15625C31.7945 2.12634 30.1382 0.463745 28.1184 0.463745ZM12.0949 3.12437H19.8587C20.1091 3.12437 20.3065 3.32253 20.3065 3.57627C20.3065 3.82034 20.1091 4.0185 19.8587 4.0185H12.0949C11.8446 4.0185 11.6448 3.82034 11.6448 3.57627C11.6448 3.32495 11.8446 3.12437 12.0949 3.12437ZM15.978 53.2849C14.9597 53.2849 14.1412 52.4609 14.1412 51.4387C14.1412 50.4164 14.9597 49.5948 15.978 49.5948C16.9963 49.5948 17.8148 50.4189 17.8148 51.4387C17.8148 52.4609 16.9939 53.2849 15.978 53.2849ZM29.233 48.2971H2.71822V6.32148H29.233V48.2971Z" fill="#58BC40"/>
</svg>
