<svg width="28" height="28" viewBox="0 0 28 28" fill="none" xmlns="http://www.w3.org/2000/svg">
<path d="M25.8846 20.1369C21.9053 16.927 20.7921 18.505 18.987 20.3169C17.7259 21.5829 14.5371 18.9399 11.7817 16.174C9.02772 13.4081 6.39482 10.2071 7.65449 8.94114C9.45956 7.12917 11.0315 6.01169 7.83231 2.01727C4.63457 -1.97715 2.50224 1.09029 0.752456 2.84525C-1.2663 4.87171 0.646364 12.4226 8.08035 19.8879C15.5158 27.3518 23.0395 29.2702 25.0567 27.2453C26.808 25.4888 29.8638 23.3484 25.8846 20.1369ZM4.96779 4.18323C4.91399 4.20573 4.8348 4.23723 4.73468 4.27922C4.54491 4.35272 4.31778 4.43522 4.06525 4.54472C3.9472 4.60172 3.81571 4.66322 3.69467 4.73972C3.56915 4.81472 3.44513 4.90021 3.33306 5.00371C3.21053 5.10271 3.11639 5.23021 3.00582 5.36371C2.92363 5.5107 2.81903 5.6607 2.76225 5.8407C2.68006 6.01169 2.65018 6.20819 2.60087 6.40169C2.56201 6.59818 2.55604 6.80218 2.53213 7.00017C2.52914 7.40216 2.54558 7.78916 2.59638 8.11765C2.62328 8.45215 2.70845 8.73564 2.74133 8.93064C2.78167 9.12713 2.80558 9.23963 2.80558 9.23963C2.80558 9.23963 2.74581 9.14213 2.63972 8.97113C2.5396 8.79564 2.37075 8.56914 2.22132 8.24665C2.04948 7.93316 1.88959 7.54916 1.73718 7.11567C1.68338 6.89218 1.61016 6.65968 1.56833 6.41218C1.53993 6.16169 1.49212 5.90219 1.51155 5.6292C1.50258 5.3562 1.55936 5.08171 1.60867 4.80421C1.68936 4.53422 1.77453 4.26123 1.90454 4.01823C2.02408 3.77074 2.175 3.54574 2.32443 3.34924C2.47535 3.14675 2.63225 2.98175 2.77868 2.82875C3.07305 2.53926 3.32708 2.32626 3.47651 2.19727C3.56168 2.12527 3.59605 2.08777 3.6349 2.05327C3.66927 2.02177 3.68571 2.00527 3.68571 2.00527L5.04997 4.14873C5.05446 4.14723 5.02457 4.15923 4.96779 4.18323ZM25.4497 24.5378C25.3167 24.7058 25.106 24.9638 24.8206 25.2578C24.6682 25.4018 24.5128 25.5593 24.3171 25.7063C24.1348 25.8593 23.9121 25.9988 23.6865 26.1308C23.4534 26.2598 23.2053 26.3693 22.9438 26.4518C22.6853 26.5313 22.4164 26.5943 22.1519 26.6168L21.7589 26.6453L21.3778 26.6243C21.1268 26.6213 20.8937 26.5538 20.6696 26.5163C20.4454 26.4743 20.2422 26.3903 20.0465 26.3348C19.8522 26.2823 19.6774 26.1848 19.516 26.1218C19.1887 25.9913 18.9541 25.8413 18.7778 25.7468C18.6045 25.6508 18.5059 25.5953 18.5059 25.5953C18.5059 25.5953 18.6179 25.6133 18.8137 25.6433C19.0079 25.6688 19.2918 25.7303 19.6206 25.7378C19.7864 25.7408 19.9568 25.7708 20.1451 25.7528C20.3304 25.7378 20.5246 25.7468 20.7189 25.7123C20.9116 25.6733 21.1119 25.6628 21.2972 25.5923L21.5751 25.5068L21.8336 25.3853C22.5165 25.0538 22.8871 24.4688 23.1022 23.9813C23.2083 23.7294 23.2845 23.5074 23.3428 23.3334C23.4056 23.1504 23.4414 23.0454 23.4414 23.0454L25.6515 24.2888C25.6515 24.2888 25.5782 24.3788 25.4497 24.5378Z" fill="white"/>
</svg>
