<svg width="16" height="14" viewBox="0 0 16 14" fill="none" xmlns="http://www.w3.org/2000/svg">
<g opacity="0.3">
<path opacity="0.3" d="M11.0609 13.7465H6.10831C3.90032 13.7465 2.10474 11.9583 2.10474 9.75944V4.82596C2.10474 2.62706 3.90032 0.838867 6.10831 0.838867H11.0609C13.2689 0.838867 15.0645 2.62706 15.0645 4.82596V9.75817C15.0645 11.9583 13.2689 13.7465 11.0609 13.7465ZM6.10831 2.27759C4.69694 2.27759 3.5494 3.4204 3.5494 4.82596V9.75817C3.5494 11.1637 4.69694 12.3065 6.10831 12.3065H11.0609C12.4723 12.3065 13.6198 11.1637 13.6198 9.75817V4.82596C13.6198 3.4204 12.4723 2.27759 11.0609 2.27759H6.10831Z" fill="#555253"/>
<path opacity="0.3" d="M8.58395 10.5901C6.75762 10.5901 5.27197 9.11056 5.27197 7.29175C5.27197 5.47294 6.75762 3.99341 8.58395 3.99341C10.4103 3.99341 11.8959 5.47294 11.8959 7.29175C11.8972 9.11056 10.4116 10.5901 8.58395 10.5901ZM8.58395 5.288C7.47483 5.288 6.57192 6.1872 6.57192 7.29175C6.57192 8.3963 7.47483 9.2955 8.58395 9.2955C9.69306 9.2955 10.596 8.3963 10.596 7.29175C10.5973 6.1872 9.69434 5.288 8.58395 5.288Z" fill="#555253"/>
<path opacity="0.3" d="M12.6247 3.80079C12.6247 4.10945 12.3737 4.35816 12.0651 4.35816C11.7551 4.35816 11.5054 4.10817 11.5054 3.80079C11.5054 3.4934 11.7564 3.24341 12.0651 3.24341C12.3737 3.24341 12.6247 3.4934 12.6247 3.80079Z" fill="#555253"/>
</g>
<path d="M9.74815 13.0919H4.79556C2.58758 13.0919 0.791992 11.3037 0.791992 9.10485V4.17264C0.791992 1.97374 2.58758 0.185547 4.79556 0.185547H9.74815C11.9561 0.185547 13.7517 1.97374 13.7517 4.17264V9.10485C13.7517 11.3037 11.9561 13.0919 9.74815 13.0919ZM4.79556 1.62427C3.38419 1.62427 2.23666 2.76708 2.23666 4.17264V9.10485C2.23666 10.5104 3.38419 11.6532 4.79556 11.6532H9.74815C11.1595 11.6532 12.307 10.5104 12.307 9.10485V4.17264C12.307 2.76708 11.1595 1.62427 9.74815 1.62427H4.79556Z" fill="#969696" fill-opacity="0.83"/>
<path d="M7.27242 9.93677C5.4461 9.93677 3.96045 8.45724 3.96045 6.63843C3.96045 4.81962 5.4461 3.34009 7.27242 3.34009C9.09875 3.34009 10.5844 4.81962 10.5844 6.63843C10.5844 8.45724 9.09875 9.93677 7.27242 9.93677ZM7.27242 4.63468C6.16331 4.63468 5.26039 5.53388 5.26039 6.63843C5.26039 7.74298 6.16331 8.64218 7.27242 8.64218C8.38154 8.64218 9.28446 7.74298 9.28446 6.63843C9.28446 5.5326 8.38154 4.63468 7.27242 4.63468Z" fill="#969696" fill-opacity="0.83"/>
<path d="M10.7521 3.70472C11.0612 3.70472 11.3117 3.45517 11.3117 3.14734C11.3117 2.83951 11.0612 2.58997 10.7521 2.58997C10.443 2.58997 10.1924 2.83951 10.1924 3.14734C10.1924 3.45517 10.443 3.70472 10.7521 3.70472Z" fill="#969696" fill-opacity="0.83"/>
</svg>
