<svg width="21" height="20" viewBox="0 0 21 20" fill="none" xmlns="http://www.w3.org/2000/svg">
<g opacity="0.3">
<path opacity="0.3" d="M14.9942 20.0004H7.79115C4.57988 20.0004 1.96838 17.3996 1.96838 14.2016V7.02634C1.96838 3.82828 4.57988 1.22754 7.79115 1.22754H14.9942C18.2054 1.22754 20.8169 3.82828 20.8169 7.02634V14.1997C20.8169 17.3996 18.2054 20.0004 14.9942 20.0004ZM7.79115 3.32C5.73847 3.32 4.0695 4.9821 4.0695 7.02634V14.1997C4.0695 16.2439 5.73847 17.906 7.79115 17.906H14.9942C17.0468 17.906 18.7158 16.2439 18.7158 14.1997V7.02634C18.7158 4.9821 17.0468 3.32 14.9942 3.32H7.79115Z" fill="#555253"/>
<path opacity="0.3" d="M11.3919 15.4096C8.73567 15.4096 6.57495 13.2578 6.57495 10.6125C6.57495 7.96725 8.73567 5.81543 11.3919 5.81543C14.0481 5.81543 16.2088 7.96725 16.2088 10.6125C16.2106 13.2578 14.0499 15.4096 11.3919 15.4096ZM11.3919 7.69828C9.77878 7.69828 8.46558 9.00607 8.46558 10.6125C8.46558 12.219 9.77878 13.5268 11.3919 13.5268C13.005 13.5268 14.3182 12.219 14.3182 10.6125C14.32 9.00607 13.0068 7.69828 11.3919 7.69828Z" fill="#555253"/>
<path opacity="0.3" d="M17.2685 5.53525C17.2685 5.98417 16.9034 6.3459 16.4545 6.3459C16.0037 6.3459 15.6405 5.98232 15.6405 5.53525C15.6405 5.08819 16.0056 4.72461 16.4545 4.72461C16.9034 4.72461 17.2685 5.08819 17.2685 5.53525Z" fill="#555253"/>
</g>
<path d="M13.085 19.0483H5.88197C2.67069 19.0483 0.0592041 16.4476 0.0592041 13.2495V6.07614C0.0592041 2.87808 2.67069 0.277344 5.88197 0.277344H13.085C16.2962 0.277344 18.9077 2.87808 18.9077 6.07614V13.2495C18.9077 16.4476 16.2962 19.0483 13.085 19.0483ZM5.88197 2.36981C3.82928 2.36981 2.16032 4.03191 2.16032 6.07614V13.2495C2.16032 15.2937 3.82928 16.9559 5.88197 16.9559H13.085C15.1377 16.9559 16.8066 15.2937 16.8066 13.2495V6.07614C16.8066 4.03191 15.1377 2.36981 13.085 2.36981H5.88197Z" fill="white"/>
<path d="M9.48427 14.4594C6.82808 14.4594 4.66736 12.3076 4.66736 9.66232C4.66736 7.01706 6.82808 4.86523 9.48427 4.86523C12.1405 4.86523 14.3012 7.01706 14.3012 9.66232C14.3012 12.3076 12.1405 14.4594 9.48427 14.4594ZM9.48427 6.74808C7.87118 6.74808 6.55799 8.05587 6.55799 9.66232C6.55799 11.2688 7.87118 12.5766 9.48427 12.5766C11.0974 12.5766 12.4106 11.2688 12.4106 9.66232C12.4106 8.05402 11.0974 6.74808 9.48427 6.74808Z" fill="white"/>
<path d="M14.5452 5.3957C14.9948 5.3957 15.3592 5.03277 15.3592 4.58506C15.3592 4.13735 14.9948 3.77441 14.5452 3.77441C14.0956 3.77441 13.7312 4.13735 13.7312 4.58506C13.7312 5.03277 14.0956 5.3957 14.5452 5.3957Z" fill="white"/>
</svg>
