<svg width="8" height="11" viewBox="0 0 8 11" fill="none" xmlns="http://www.w3.org/2000/svg">
<path d="M3.68107 0C1.63961 0 0 1.73704 0 3.86197C0 5.9869 3.68107 10.1187 3.68107 10.1187C3.68107 10.1187 7.36215 6.00376 7.36215 3.86197C7.36215 1.72018 5.72254 0 3.68107 0ZM3.68107 9.61276C3.34351 9.22488 2.7166 8.46598 2.08969 7.57216C0.932324 5.9363 0.321491 4.6546 0.321491 3.8451C0.321491 1.90569 1.8325 0.320425 3.68107 0.320425C5.52965 0.320425 7.04066 1.92255 7.04066 3.86197C7.04066 4.6546 6.42982 5.95317 5.27245 7.58902C4.64555 8.46598 4.01864 9.22488 3.68107 9.61276Z" fill="#828385"/>
<path d="M3.68111 1.85498C2.71664 1.85498 1.94507 2.66448 1.94507 3.67635C1.94507 4.68822 2.71664 5.49772 3.68111 5.49772C4.64558 5.49772 5.41716 4.68822 5.41716 3.67635C5.41716 2.68134 4.64558 1.85498 3.68111 1.85498ZM4.67773 4.73882C4.42054 5.00865 4.0669 5.17729 3.68111 5.17729C3.29533 5.17729 2.94169 5.00865 2.6845 4.73882C2.4273 4.46898 2.26656 4.09796 2.26656 3.69322C2.26656 3.28847 2.4273 2.91745 2.6845 2.64761C2.94169 2.37778 3.29533 2.20914 3.68111 2.20914C4.0669 2.20914 4.42054 2.37778 4.67773 2.64761C4.93493 2.91745 5.09567 3.28847 5.09567 3.69322C5.09567 4.09796 4.93493 4.46898 4.67773 4.73882Z" fill="#828385"/>
</svg>
