<svg width="7" height="8" viewBox="0 0 7 8" fill="none" xmlns="http://www.w3.org/2000/svg">
<path d="M3.55216 0.344238C2.03658 0.344238 0.819336 1.63382 0.819336 3.21136C0.819336 4.7889 3.55216 7.85634 3.55216 7.85634C3.55216 7.85634 6.28498 4.80142 6.28498 3.21136C6.28498 1.6213 5.06774 0.344238 3.55216 0.344238ZM3.55216 7.48074C3.30155 7.19278 2.83614 6.62937 2.37072 5.9658C1.51149 4.75134 1.05801 3.79981 1.05801 3.19884C1.05801 1.75902 2.17978 0.582122 3.55216 0.582122C4.92454 0.582122 6.04631 1.77154 6.04631 3.21136C6.04631 3.79981 5.59283 4.76386 4.7336 5.97832C4.26818 6.62937 3.80277 7.19278 3.55216 7.48074Z" fill="black"/>
<path d="M3.55214 1.72144C2.83612 1.72144 2.26331 2.32241 2.26331 3.07362C2.26331 3.82483 2.83612 4.4258 3.55214 4.4258C4.26817 4.4258 4.84098 3.82483 4.84098 3.07362C4.84098 2.33493 4.26817 1.72144 3.55214 1.72144ZM4.29203 3.86239C4.10109 4.06271 3.83855 4.18792 3.55214 4.18792C3.26574 4.18792 3.00319 4.06271 2.81226 3.86239C2.62132 3.66207 2.50198 3.38662 2.50198 3.08614C2.50198 2.78565 2.62132 2.51021 2.81226 2.30989C3.00319 2.10956 3.26574 1.98436 3.55214 1.98436C3.83855 1.98436 4.10109 2.10956 4.29203 2.30989C4.48297 2.51021 4.60231 2.78565 4.60231 3.08614C4.60231 3.38662 4.48297 3.66207 4.29203 3.86239Z" fill="black"/>
</svg>
