<svg width="19" height="20" viewBox="0 0 19 20" fill="none" xmlns="http://www.w3.org/2000/svg">
<g clip-path="url(#clip0)">
<path d="M18.3719 18.1498L11.7694 11.5473C14.0885 8.71098 13.6691 4.53177 10.8329 2.21271C7.99665 -0.106362 3.8174 0.312948 1.49834 3.1492C-0.820733 5.98545 -0.401423 10.1647 2.43483 12.4838C4.87784 14.4813 8.38988 14.4813 10.8329 12.4838L17.4354 19.0863C17.6986 19.3404 18.1178 19.3331 18.3719 19.07C18.6198 18.8133 18.6198 18.4064 18.3719 18.1498ZM6.64446 12.6573C3.71957 12.654 1.34928 10.2837 1.34602 7.35883C1.34602 4.43258 3.71821 2.06039 6.64446 2.06039C9.5707 2.06039 11.9429 4.43258 11.9429 7.35883C11.9429 10.2851 9.5707 12.6573 6.64446 12.6573Z" fill="white"/>
</g>
<defs>
<clipPath id="clip0">
<rect width="18.5578" height="18.5578" fill="white" transform="translate(0 0.714294)"/>
</clipPath>
</defs>
</svg>
