<svg width="19" height="20" viewBox="0 0 19 20" fill="none" xmlns="http://www.w3.org/2000/svg">
<g clip-path="url(#clip0)">
<path d="M18.7734 18.1498L12.1708 11.5473C14.4899 8.71098 14.0706 4.53177 11.2343 2.21271C8.39808 -0.106362 4.21883 0.312948 1.89976 3.1492C-0.419304 5.98545 5.42402e-06 10.1647 2.83625 12.4838C5.27927 14.4813 8.79131 14.4813 11.2343 12.4838L17.8369 19.0863C18.1 19.3404 18.5193 19.3331 18.7734 19.07C19.0212 18.8133 19.0212 18.4064 18.7734 18.1498ZM7.04589 12.6573C4.121 12.654 1.75071 10.2837 1.74745 7.35883C1.74745 4.43258 4.11964 2.06039 7.04589 2.06039C9.97213 2.06039 12.3443 4.43258 12.3443 7.35883C12.3443 10.2851 9.97213 12.6573 7.04589 12.6573Z" fill="white"/>
</g>
<defs>
<clipPath id="clip0">
<rect width="18.5578" height="18.5578" fill="white" transform="translate(0.401367 0.714294)"/>
</clipPath>
</defs>
</svg>
