<svg width="31" height="21" viewBox="0 0 31 21" fill="none" xmlns="http://www.w3.org/2000/svg">
<path d="M15.5401 12.5942H15.5458C15.7804 12.5942 16.0108 12.5261 16.1967 12.4014L16.2482 12.3681C16.2597 12.3594 16.2697 12.3536 16.284 12.3464L16.8735 11.8493L30.9685 0.0681161C30.9413 0.0275364 30.8898 0 30.8369 0H0.16453C0.127332 0 0.0915639 0.0130427 0.0629503 0.0376804L14.8104 12.3478C14.9964 12.5043 15.2611 12.5942 15.5401 12.5942ZM0.00143208 1.66812V19.1333L10.5656 10.4884L0.00143208 1.66812ZM20.4487 10.5478L31 19.1391V1.72464L20.4487 10.5478ZM17.0938 13.3522C16.6717 13.7015 16.1223 13.8942 15.5429 13.8942C14.9635 13.8942 14.4141 13.7029 13.9949 13.3551L11.5742 11.3333L0 20.8029V20.8333C0 20.9232 0.0758258 21 0.167389 21H30.8383C30.9242 21 31 20.9232 31 20.8333V20.8058L19.4358 11.3942L17.0938 13.3522Z" fill="white"/>
</svg>
