<svg width="24" height="16" viewBox="0 0 24 16" fill="none" xmlns="http://www.w3.org/2000/svg">
<path d="M12.031 9.59558H12.0354C12.2171 9.59558 12.3954 9.54368 12.5394 9.44872L12.5793 9.42333C12.5881 9.4167 12.5959 9.41228 12.607 9.40676L13.0633 9.02802L23.9756 0.051898C23.9546 0.0209801 23.9147 0 23.8737 0H0.127378C0.0985796 0 0.0708882 0.00993728 0.0487357 0.0287089L11.4661 9.40787C11.6101 9.52712 11.815 9.59558 12.031 9.59558ZM0.00110871 1.27094V14.5778L8.1798 7.99117L0.00110871 1.27094ZM15.8313 8.03644L24 14.5822V1.31401L15.8313 8.03644ZM13.2339 10.1731C12.9071 10.4392 12.4818 10.5861 12.0332 10.5861C11.5846 10.5861 11.1593 10.4403 10.8348 10.1753L8.96068 8.63492L0 15.8498V15.873C0 15.9415 0.0587039 16 0.129592 16H23.8748C23.9413 16 24 15.9415 24 15.873V15.852L15.0471 8.6813L13.2339 10.1731Z" fill="white"/>
</svg>
