<svg width="48" height="48" viewBox="0 0 48 48" fill="none" xmlns="http://www.w3.org/2000/svg">
<path d="M7.86741 41.6108C7.33599 42.3468 7.10902 43.2595 7.23377 44.1587C7.35851 45.058 7.82536 45.8744 8.53707 46.438C9.24877 47.0016 10.1505 47.2689 11.0544 47.1843C11.9582 47.0996 12.7946 46.6695 13.3893 45.9836L19.4476 38.027L13.6857 32.7454L7.86741 41.6108Z" fill="#FEB784"/>
<path d="M43.0788 26.6111L36 25.5999V22.3999H28V25.5999L19.3684 27.4499C17.7226 27.8025 16.2819 28.7892 15.3584 30.1963L13.6853 32.7456L19.4472 38.0272L21.6 35.1999H23.2V47.9999H40.8V37.5999H47.2V31.3629C47.2 30.2075 46.7832 29.0908 46.0262 28.2179C45.2691 27.345 44.2226 26.7745 43.0788 26.6111Z" fill="#FEC9A3"/>
<path d="M32.603 25.5999C33.8051 25.5994 34.9827 25.2594 36 24.6189V22.3999H28V24.6189C29.0173 25.2594 30.1949 25.5994 31.397 25.5999H32.603Z" fill="#FEB784"/>
<path d="M43.0788 26.6113L36 25.6001C36 26.661 35.5786 27.6784 34.8284 28.4285C34.0783 29.1787 33.0609 29.6001 32 29.6001C30.9391 29.6001 29.9217 29.1787 29.1716 28.4285C28.4214 27.6784 28 26.661 28 25.6001L19.3684 27.4501C17.7226 27.8027 16.2819 28.7893 15.3584 30.1965L13.6853 32.7458L19.4472 38.0274L21.6 35.2001H23.2V48.0001H40.8V37.6001H47.2V31.3631C47.2 30.2077 46.7832 29.091 46.0262 28.2181C45.2691 27.3452 44.2226 26.7747 43.0788 26.6113Z" fill="#E0E0DE"/>
<path d="M40 11.2H39.2V16H40C40.6365 16 41.2469 15.7471 41.697 15.297C42.1471 14.8469 42.4 14.2365 42.4 13.6C42.4 12.9634 42.1471 12.353 41.697 11.9029C41.2469 11.4528 40.6365 11.2 40 11.2Z" fill="#FEB784"/>
<path d="M24.04 11.2H24C23.3635 11.2 22.753 11.4528 22.3029 11.9029C21.8528 12.353 21.6 12.9634 21.6 13.6C21.6 14.2365 21.8528 14.8469 22.3029 15.297C22.753 15.7471 23.3635 16 24 16H24.8V11.2H24.04Z" fill="#FEB784"/>
<path d="M39.2001 10.4V16C39.2002 17.0625 39.0699 18.1211 38.812 19.152C38.4658 20.5366 37.6667 21.7658 36.5417 22.6442C35.4167 23.5226 34.0304 23.9998 32.6031 24H31.3971C29.9697 24 28.5833 23.5228 27.4583 22.6444C26.3333 21.766 25.5342 20.5367 25.1881 19.152C24.9299 18.1212 24.7996 17.0626 24.8001 16V10.4C24.8003 8.51434 25.5401 6.70404 26.8606 5.35797C28.181 4.01189 29.9768 3.23743 31.8621 3.20095C31.9081 3.19995 31.9541 3.19995 32.0001 3.19995C33.9096 3.20011 35.7408 3.95873 37.091 5.30896C38.4413 6.65919 39.1999 8.49044 39.2001 10.4Z" fill="#FEC9A3"/>
<path d="M39.2 10.4C39.2 10.3574 39.1943 10.3161 39.1936 10.2736H24.8064C24.8057 10.3161 24.8 10.3574 24.8 10.4V13.2341C25.2976 13.5469 25.8932 13.6648 26.4724 13.5653L28.6664 13.2C30.7563 12.8517 32.8895 12.8517 34.9793 13.2L37.1733 13.5656C37.5345 13.6279 37.9051 13.6063 38.2565 13.5025C38.608 13.3986 38.9308 13.2153 39.2 12.9667V10.4Z" fill="#FEC093"/>
<path d="M39.2 10.4V16C39.2002 17.0625 39.0699 18.1211 38.812 19.152C38.4658 20.5366 37.6666 21.7658 36.5416 22.6442C35.4166 23.5226 34.0303 23.9998 32.603 24H31.859C33.0155 23.189 33.9594 22.1112 34.6106 20.8578C35.2619 19.6044 35.6013 18.2124 35.6 16.8V10.4C35.5987 8.9884 35.2586 7.59778 34.6081 6.34503C33.9576 5.09229 33.0159 4.01404 31.862 3.20095C31.908 3.19995 31.954 3.19995 32 3.19995C33.9095 3.20011 35.7408 3.95873 37.091 5.30896C38.4412 6.65919 39.1999 8.49044 39.2 10.4Z" fill="#FEC093"/>
<path d="M28.58 7.31565C30.8377 7.76725 33.1624 7.76725 35.42 7.31565L36 7.19995L39.2 10.9333V10.4C39.2 8.49039 38.4415 6.65904 37.0912 5.30878C35.741 3.95852 33.9096 3.19995 32 3.19995C30.0905 3.19995 28.2591 3.95852 26.9089 5.30878C25.5586 6.65904 24.8 8.49039 24.8 10.4V10.9331L28 7.19995L28.58 7.31565Z" fill="#7A432A"/>
<path d="M40.8 48H23.2V38.4V35.2H40.8V48Z" fill="#348FD9"/>
<path d="M24.8 48H40.8V35.2H38L24.8 48Z" fill="#3086CD"/>
<path d="M25.6 37.6001H27.2V39.2001H25.6V37.6001Z" fill="#62A9E6"/>
<path d="M36.8 37.6001H38.4V39.2001H36.8V37.6001Z" fill="#62A9E6"/>
<path d="M27.2 35.2001V25.7715L23.2 26.6287V35.2001H27.2Z" fill="#2D7DBF"/>
<path d="M40.8 35.2001V26.2858L36.8 25.7144V35.2001H40.8Z" fill="#2D7DBF"/>
<path d="M40.8 37.6001H47.2V48.0001H40.8V37.6001Z" fill="#FEC9A3"/>
<path d="M10.4 47.2C9.55126 47.2 8.73733 46.8628 8.13721 46.2627C7.53709 45.6626 7.19995 44.8486 7.19995 44V31.2H13.6V44C13.6 44.8486 13.2628 45.6626 12.6627 46.2627C12.0626 46.8628 11.2486 47.2 10.4 47.2Z" fill="#FEC9A3"/>
<path d="M9.59998 22.3999H14.4V36.7999H9.59998V22.3999Z" fill="#F98500"/>
<path d="M13.6 25.6001H8.79995C7.9163 25.6001 7.19995 26.3164 7.19995 27.2001V32.0001C7.19995 32.8838 7.9163 33.6001 8.79995 33.6001H13.6C14.4836 33.6001 15.2 32.8838 15.2 32.0001V27.2001C15.2 26.3164 14.4836 25.6001 13.6 25.6001Z" fill="#FEC9A3"/>
<path d="M13.6 25.6001H10.4C10.8244 25.6001 11.2313 25.7687 11.5314 26.0687C11.8315 26.3688 12 26.7758 12 27.2001V32.0001C12 32.4244 11.8315 32.8314 11.5314 33.1315C11.2313 33.4315 10.8244 33.6001 10.4 33.6001H13.6C14.0244 33.6001 14.4313 33.4315 14.7314 33.1315C15.0315 32.8314 15.2 32.4244 15.2 32.0001V27.2001C15.2 26.7758 15.0315 26.3688 14.7314 26.0687C14.4313 25.7687 14.0244 25.6001 13.6 25.6001Z" fill="#FEC093"/>
<path d="M4 8.80005H20V15.2H4V8.80005Z" fill="#E0E0DE"/>
<path d="M12.8 22.4H11.2V19.8938L1.3734 18.49C0.992845 18.434 0.644987 18.2434 0.392986 17.9527C0.140985 17.6621 0.00155025 17.2908 0 16.9062V12.8C0.000423581 12.3757 0.169131 11.969 0.469097 11.669C0.769063 11.3691 1.17578 11.2004 1.6 11.2H4V12.8H1.6V16.9062L11.4266 18.3102C11.8071 18.3661 12.155 18.5567 12.4069 18.8473C12.6589 19.1378 12.7984 19.5091 12.8 19.8938V22.4Z" fill="#C7C7C5"/>
<path d="M26.4 41.6001H37.6V48.0001H26.4V41.6001Z" fill="#62A9E6"/>
<path d="M40 9.57995C39.9985 9.93175 39.9207 10.279 39.7718 10.5978C39.6229 10.9165 39.4066 11.1991 39.1377 11.4261C38.8689 11.653 38.5539 11.8188 38.2147 11.912C37.8755 12.0052 37.52 12.0236 37.173 11.966L34.979 11.6C32.8894 11.2523 30.7566 11.2523 28.667 11.6L26.473 11.966C26.0487 12.0367 25.6132 11.9932 25.2113 11.8401C24.8093 11.687 24.4553 11.4297 24.1856 11.0947C23.9159 10.7596 23.7401 10.3588 23.6764 9.93342C23.6127 9.50803 23.6633 9.07334 23.823 8.67395H39.823C39.9392 8.96191 39.9993 9.26943 40 9.57995Z" fill="#348FD9"/>
<path d="M39.823 5.47371V8.67371H23.823V5.47371C23.823 4.20067 24.3287 2.97977 25.2289 2.07959C26.1291 1.17942 27.35 0.673706 28.623 0.673706H35.023C35.5389 0.67356 36.0515 0.756627 36.541 0.919706C36.63 0.949706 36.718 0.981706 36.804 1.01671C37.6952 1.37252 38.4593 1.9874 38.9975 2.78192C39.5356 3.57643 39.8232 4.51408 39.823 5.47371Z" fill="#3086CD"/>
<path d="M39.823 5.47372V8.67372H26.223C31.023 7.07372 34.382 4.27072 36.804 1.01672C37.6953 1.37253 38.4593 1.98742 38.9975 2.78194C39.5357 3.57645 39.8232 4.51409 39.823 5.47372Z" fill="#2D7DBF"/>
<path d="M40 9.57995C39.9985 9.93175 39.9207 10.279 39.7718 10.5978C39.6229 10.9165 39.4066 11.1991 39.1377 11.4261C38.8689 11.653 38.5539 11.8188 38.2147 11.912C37.8755 12.0052 37.5201 12.0236 37.173 11.966L34.979 11.6C34.2996 11.4867 33.6146 11.4103 32.927 11.371C34.611 10.662 35.993 9.78095 37.008 8.67395H39.823C39.9392 8.96191 39.9993 9.26943 40 9.57995Z" fill="#3086CD"/>
<path d="M40.8 37.6001H47.2V40.0001H40.8V37.6001Z" fill="#FEC093"/>
<path d="M4 15.2H20V9.55945C15.0147 11.8131 8.5554 12.8123 4 13.2526V15.2Z" fill="#D6D6D4"/>
<path d="M4 8.80005H14.4V11.2H4V8.80005Z" fill="#348FD9"/>
<path d="M13.6 8.80005V15.2C13.6 15.6244 13.7685 16.0314 14.0686 16.3314C14.3687 16.6315 14.7756 16.8 15.2 16.8C15.6243 16.8 16.0313 16.6315 16.3313 16.3314C16.6314 16.0314 16.8 15.6244 16.8 15.2V18.4C16.8 18.8244 16.9685 19.2314 17.2686 19.5314C17.5687 19.8315 17.9756 20 18.4 20C18.8243 20 19.2313 19.8315 19.5313 19.5314C19.8314 19.2314 20 18.8244 20 18.4V8.80005H13.6Z" fill="#348FD9"/>
<path d="M43.1928 25.816L36.8 24.9042V23.4442C38.1768 22.4458 39.1612 20.9975 39.5831 19.35C39.7957 18.5146 39.9274 17.6607 39.9762 16.8H40C40.7721 16.7995 41.518 16.5198 42.1001 16.0125C42.6822 15.5052 43.0613 14.8046 43.1674 14.0398C43.2736 13.275 43.0996 12.4976 42.6776 11.8511C42.2556 11.2045 41.614 10.7322 40.8712 10.5215C41.0333 9.90795 41.0085 9.25997 40.8 8.6606V5.6C40.8 4.11479 40.21 2.69041 39.1598 1.6402C38.1096 0.589998 36.6852 0 35.2 0H28.8C27.3148 0 25.8904 0.589998 24.8402 1.6402C23.79 2.69041 23.2 4.11479 23.2 5.6V8.6606C22.9915 9.25997 22.9667 9.90795 23.1288 10.5215C22.386 10.7322 21.7444 11.2045 21.3224 11.8511C20.9004 12.4976 20.7264 13.275 20.8326 14.0398C20.9387 14.8046 21.3178 15.5052 21.8999 16.0125C22.482 16.5198 23.2279 16.7995 24 16.8H24.0238C24.0723 17.6587 24.2035 18.5107 24.4154 19.3442C24.8233 20.9991 25.8114 22.4527 27.2 23.441V24.951L19.2009 26.666C18.0166 26.9229 16.9159 27.4735 16 28.2671V27.2C16.0001 26.8626 15.9289 26.529 15.791 26.221C15.6531 25.9131 15.4517 25.6378 15.2 25.4131V22.4C15.2 22.1878 15.1157 21.9843 14.9657 21.8343C14.8157 21.6843 14.6122 21.6 14.4 21.6H12.8V19.8938C12.7983 19.5091 12.6588 19.1378 12.4068 18.8472C12.1547 18.5566 11.8069 18.366 11.4263 18.31L1.6 16.9062V12.8H3.2V15.2C3.2 15.4122 3.28429 15.6157 3.43431 15.7657C3.58434 15.9157 3.78783 16 4 16H12.9376C13.1497 16.6001 13.5916 17.0913 14.1659 17.3656C14.7402 17.64 15.3999 17.675 16 17.4629V18.4C16 19.0365 16.2529 19.647 16.7029 20.0971C17.153 20.5471 17.7635 20.8 18.4 20.8C19.0365 20.8 19.647 20.5471 20.0971 20.0971C20.5471 19.647 20.8 19.0365 20.8 18.4V8.8C20.8 8.58783 20.7157 8.38434 20.5657 8.23431C20.4157 8.08429 20.2122 8 20 8H4C3.78783 8 3.58434 8.08429 3.43431 8.23431C3.28429 8.38434 3.2 8.58783 3.2 8.8V11.2H1.6C1.17581 11.2005 0.769134 11.3692 0.469184 11.6692C0.169235 11.9691 0.000502833 12.3758 0 12.8V16.9062C0.00166376 17.2909 0.141177 17.6622 0.39322 17.9528C0.645263 18.2434 0.993134 18.434 1.3737 18.49L11.2 19.8938V21.6H9.6C9.38783 21.6 9.18434 21.6843 9.03432 21.8343C8.88429 21.9843 8.8 22.1878 8.8 22.4V24.8C8.1637 24.8007 7.55367 25.0538 7.10373 25.5037C6.6538 25.9537 6.40071 26.5637 6.4 27.2V43.672C6.39799 44.7846 6.82574 45.855 7.59399 46.6598C8.36224 47.4646 9.41161 47.9415 10.5231 47.9912C10.5912 47.9943 10.6591 47.9958 10.7267 47.9958C11.3457 47.9963 11.9575 47.8641 12.5211 47.6081C13.0846 47.3521 13.5867 46.9782 13.9934 46.5116C14.0056 46.4976 14.0174 46.4832 14.0287 46.4684L20.0843 38.5084L21.9962 36H22.4V48H24V36H40V48H41.6V38.4H46.4V48H48V31.36C47.9921 30.0143 47.5032 28.7158 46.6216 27.699C45.74 26.6823 44.5238 26.0144 43.1928 25.816ZM4.8 9.6H19.2V18.4C19.2 18.6122 19.1157 18.8157 18.9657 18.9657C18.8157 19.1157 18.6122 19.2 18.4 19.2C18.1878 19.2 17.9843 19.1157 17.8343 18.9657C17.6843 18.8157 17.6 18.6122 17.6 18.4V15.2C17.6 14.9878 17.5157 14.7843 17.3657 14.6343C17.2157 14.4843 17.0122 14.4 16.8 14.4C16.5878 14.4 16.3843 14.4843 16.2343 14.6343C16.0843 14.7843 16 14.9878 16 15.2C16 15.4122 15.9157 15.6157 15.7657 15.7657C15.6157 15.9157 15.4122 16 15.2 16C14.9878 16 14.7843 15.9157 14.6343 15.7657C14.4843 15.6157 14.4 15.4122 14.4 15.2V11.2H12.8V14.4H4.8V9.6ZM31.4 24.8H32.6C33.4894 24.8007 34.3711 24.6355 35.2 24.3131V25.6C35.2 26.4487 34.8629 27.2626 34.2627 27.8627C33.6626 28.4629 32.8487 28.8 32 28.8C31.1513 28.8 30.3374 28.4629 29.7373 27.8627C29.1371 27.2626 28.8 26.4487 28.8 25.6V24.3131C29.6289 24.6355 30.5106 24.8007 31.4 24.8ZM32 30.4C32.7925 30.3997 33.5725 30.2031 34.2705 29.8278C34.9685 29.4525 35.5627 28.9102 36 28.2493V34.4H28V28.2493C28.4373 28.9102 29.0315 29.4525 29.7295 29.8278C30.4275 30.2031 31.2075 30.3997 32 30.4ZM35.2879 10.937C33.111 10.5734 30.889 10.5734 28.7121 10.937L26.518 11.3026C26.2769 11.3425 26.0299 11.3276 25.7953 11.259C25.5607 11.1903 25.3446 11.0698 25.163 10.9062C24.9814 10.7427 24.839 10.5403 24.7463 10.3142C24.6536 10.0881 24.613 9.84396 24.6275 9.6H39.3725C39.387 9.84396 39.3464 10.0881 39.2537 10.3142C39.161 10.5403 39.0186 10.7427 38.837 10.9062C38.6554 11.0698 38.4393 11.1903 38.2047 11.259C37.9701 11.3276 37.7231 11.3425 37.482 11.3026L35.2879 10.937ZM41.6 13.6C41.599 14.024 41.4301 14.4304 41.1303 14.7303C40.8304 15.0301 40.424 15.199 40 15.2V12.01C40.0032 12.0068 40.0066 12.0039 40.01 12.0008C40.4324 12.0038 40.8364 12.1736 41.1342 12.4731C41.432 12.7726 41.5994 13.1776 41.6 13.6ZM24.8 5.6C24.8 4.53913 25.2214 3.52172 25.9716 2.77157C26.7217 2.02143 27.7391 1.6 28.8 1.6H35.2C36.2609 1.6 37.2783 2.02143 38.0284 2.77157C38.7786 3.52172 39.2 4.53913 39.2 5.6V8H24.8V5.6ZM22.87 14.73C22.6464 14.5071 22.4938 14.2229 22.4316 13.9133C22.3693 13.6038 22.4001 13.2827 22.5202 12.9907C22.6402 12.6986 22.844 12.4486 23.106 12.2723C23.3679 12.096 23.6762 12.0013 23.992 12L24 12.0082V15.2C23.5762 15.1982 23.1701 15.0293 22.87 14.73ZM25.9673 18.9534C25.722 17.9881 25.5986 16.9959 25.6 16V12.8617C26.2167 13.1 27.27 12.7993 27.27 12.7993C27.1998 12.996 27.1822 13.2076 27.2188 13.4133C27.2555 13.6189 27.3452 13.8114 27.479 13.9717C27.6129 14.132 27.7863 14.2547 27.9821 14.3274C28.1778 14.4002 28.3892 14.4206 28.5953 14.3867C28.8014 14.3527 28.995 14.2656 29.1571 14.1338C29.3192 14.0021 29.4441 13.8303 29.5194 13.6355C29.5947 13.4407 29.6179 13.2296 29.5867 13.0231C29.5554 12.8166 29.4708 12.6218 29.3412 12.458C31.1042 12.1999 32.8954 12.1999 34.6584 12.458C34.5285 12.6218 34.4437 12.8167 34.4123 13.0234C34.3808 13.2301 34.4039 13.4414 34.4792 13.6364C34.5546 13.8314 34.6795 14.0034 34.8417 14.1353C35.0039 14.2672 35.1977 14.3545 35.404 14.3885C35.6103 14.4225 35.8219 14.402 36.0178 14.3291C36.2138 14.2562 36.3873 14.1334 36.5212 13.9729C36.6551 13.8124 36.7448 13.6196 36.7813 13.4138C36.8179 13.208 36.8 12.9961 36.7296 12.7993C37.287 12.8922 37.8246 12.9771 38.3896 12.8643C38.4502 13.9043 38.4001 14.9585 38.4001 16C38.4015 16.9968 38.278 17.9898 38.0325 18.9559C37.4072 21.4 35.1505 23.2 32.6 23.2H31.4C30.1513 23.1966 28.9393 22.7773 27.9554 22.0084C26.9716 21.2394 26.2719 20.1646 25.967 18.9537L25.9673 18.9534ZM10.4 34.4H13.6V36H10.4V34.4ZM10.4 23.2H13.6V24.8H10.4V23.2ZM8 27.2C8.00024 26.9879 8.0846 26.7846 8.23458 26.6346C8.38456 26.4846 8.5879 26.4002 8.8 26.4H13.6C13.8121 26.4002 14.0154 26.4846 14.1654 26.6346C14.3154 26.7846 14.3998 26.9879 14.4 27.2V32C14.3998 32.2121 14.3154 32.4154 14.1654 32.5654C14.0154 32.7154 13.8121 32.7998 13.6 32.8H8.8C8.5879 32.7998 8.38456 32.7154 8.23458 32.5654C8.0846 32.4154 8.00024 32.2121 8 32V27.2ZM8 43.672V34.262C8.25684 34.3533 8.52741 34.4 8.8 34.4V36.8C8.8 37.0122 8.88429 37.2157 9.03432 37.3657C9.18434 37.5157 9.38783 37.6 9.6 37.6H12.8V44C12.8011 44.6093 12.5695 45.1961 12.1524 45.6404C11.7353 46.0846 11.1643 46.3528 10.5561 46.39C9.89244 46.3547 9.26565 46.0737 8.7977 45.6018C8.54377 45.3488 8.34251 45.048 8.20559 44.7168C8.06867 44.3855 7.99879 44.0304 8 43.672ZM14.4 43.3378V37.6C14.6122 37.6 14.8157 37.5157 14.9657 37.3657C15.1157 37.2157 15.2 37.0122 15.2 36.8V35.2177L18.3692 38.1208L14.4 43.3378ZM21.6 34.4C21.4768 34.4 21.3553 34.4284 21.245 34.4831C21.1346 34.5377 21.0383 34.6171 20.9637 34.7151L19.3425 36.8425L15.5625 33.3796C15.8476 32.9761 16.0005 32.4941 16 32V30.6756L16.0286 30.6313C16.8394 29.4044 18.0975 28.5429 19.5346 28.2305L22.4 27.62V34.4H21.6ZM24 34.4V27.2776L26.4 26.761V34.4H24ZM37.6 34.4V26.6367L40 26.9795V34.4H37.6ZM46.4 36.8H41.6V27.2054L42.9646 27.4C43.9155 27.5417 44.7844 28.0187 45.4144 28.7449C46.0444 29.4711 46.394 30.3986 46.4 31.36V36.8Z" fill="black"/>
<path d="M25.6 37.6001H27.2V39.2001H25.6V37.6001Z" fill="black"/>
<path d="M36.8 37.6001H38.4V39.2001H36.8V37.6001Z" fill="black"/>
<path d="M25.6 47.2C25.6 47.4122 25.6843 47.6157 25.8343 47.7657C25.9843 47.9158 26.1878 48 26.4 48H37.6C37.8121 48 38.0156 47.9158 38.1657 47.7657C38.3157 47.6157 38.4 47.4122 38.4 47.2V41.6C38.4 41.3879 38.3157 41.1844 38.1657 41.0344C38.0156 40.8843 37.8121 40.8 37.6 40.8H26.4C26.1878 40.8 25.9843 40.8843 25.8343 41.0344C25.6843 41.1844 25.6 41.3879 25.6 41.6V47.2ZM27.2 42.4H36.8V46.4H27.2V42.4Z" fill="black"/>
<path d="M34.8 17.4931L34.0008 16.1071C33.1889 16.5672 32.2705 16.8061 31.3373 16.8001H30.4V18.4001H31.3373C32.5511 18.406 33.7451 18.0933 34.8 17.4931Z" fill="black"/>
</svg>
