<svg width="22" height="23" viewBox="0 0 22 23" fill="none" xmlns="http://www.w3.org/2000/svg">
<path d="M20.4581 15.8693C17.313 13.3323 16.4332 14.5795 15.0065 16.0116C14.0098 17.0122 11.4895 14.9233 9.31172 12.7372C7.13513 10.5511 5.05419 8.02125 6.04978 7.02067C7.47644 5.58857 8.71886 4.70537 6.19032 1.54834C3.66297 -1.60868 1.97767 0.815695 0.594709 2.20275C-1.00083 3.80437 0.510859 9.77225 6.38637 15.6726C12.2631 21.5717 18.2094 23.0879 19.8038 21.4875C21.1879 20.0993 23.6031 18.4075 20.4581 15.8693ZM3.92633 3.26022C3.88381 3.27801 3.82122 3.3029 3.74209 3.3361C3.5921 3.39419 3.41259 3.45939 3.213 3.54593C3.1197 3.59098 3.01577 3.63959 2.92011 3.70005C2.82091 3.75933 2.72288 3.8269 2.63431 3.9087C2.53747 3.98694 2.46306 4.08771 2.37567 4.19322C2.31071 4.3094 2.22804 4.42795 2.18316 4.57022C2.11821 4.70537 2.09459 4.86067 2.05561 5.0136C2.02491 5.1689 2.02018 5.33013 2.00129 5.48662C1.99893 5.80434 2.01192 6.1102 2.05207 6.36983C2.07333 6.6342 2.14065 6.85826 2.16663 7.01237C2.19852 7.16768 2.21741 7.25659 2.21741 7.25659C2.21741 7.25659 2.17017 7.17953 2.08632 7.04438C2.00719 6.90568 1.87374 6.72667 1.75564 6.47178C1.61982 6.22401 1.49345 5.92052 1.37299 5.5779C1.33048 5.40126 1.27261 5.21751 1.23954 5.0219C1.2171 4.82392 1.17931 4.61882 1.19466 4.40306C1.18758 4.18729 1.23245 3.97035 1.27143 3.75103C1.3352 3.53763 1.40252 3.32187 1.50526 3.12982C1.59974 2.93421 1.71903 2.75638 1.83713 2.60108C1.95641 2.44103 2.08042 2.31063 2.19615 2.18971C2.42881 1.9609 2.62958 1.79256 2.74769 1.6906C2.815 1.6337 2.84217 1.60406 2.87287 1.57679C2.90003 1.5519 2.91303 1.53886 2.91303 1.53886L3.99128 3.23296C3.99483 3.23177 3.97121 3.24126 3.92633 3.26022ZM20.1144 19.3476C20.0093 19.4804 19.8427 19.6843 19.6172 19.9167C19.4967 20.0305 19.3739 20.155 19.2192 20.2712C19.0751 20.3921 18.8991 20.5023 18.7208 20.6067C18.5366 20.7086 18.3405 20.7952 18.1338 20.8604C17.9295 20.9232 17.7169 20.973 17.5079 20.9908L17.1973 21.0133L16.8961 20.9967C16.6977 20.9943 16.5135 20.941 16.3363 20.9113C16.1592 20.8781 15.9986 20.8118 15.8439 20.7679C15.6903 20.7264 15.5522 20.6493 15.4246 20.5995C15.166 20.4964 14.9806 20.3779 14.8412 20.3032C14.7042 20.2273 14.6262 20.1834 14.6262 20.1834C14.6262 20.1834 14.7148 20.1977 14.8695 20.2214C15.0231 20.2415 15.2475 20.2901 15.5073 20.2961C15.6384 20.2984 15.773 20.3221 15.9218 20.3079C16.0683 20.2961 16.2218 20.3032 16.3753 20.2759C16.5277 20.2451 16.6859 20.2368 16.8324 20.1811L17.052 20.1135L17.2563 20.0175C17.7961 19.7555 18.089 19.2931 18.259 18.9078C18.3429 18.7087 18.4031 18.5332 18.4492 18.3957C18.4988 18.251 18.5271 18.1681 18.5271 18.1681L20.2738 19.1508C20.2738 19.1508 20.2159 19.222 20.1144 19.3476Z" fill="white"/>
</svg>
