<svg width="20" height="34" viewBox="0 0 20 34" fill="none" xmlns="http://www.w3.org/2000/svg">
<path d="M17.6848 0H3.01788C1.79783 0 0.795898 1.0043 0.795898 2.23047V30.7916C0.795898 32.0163 1.79637 33.0221 3.01788 33.0221H17.6848C18.9048 33.0221 19.9068 32.0178 19.9068 30.7916V2.23047C19.9053 1.0043 18.9048 0 17.6848 0ZM8.00574 1.60716H12.6955C12.8467 1.60716 12.966 1.72686 12.966 1.88013C12.966 2.02756 12.8467 2.14726 12.6955 2.14726H8.00574C7.8545 2.14726 7.73381 2.02756 7.73381 1.88013C7.73381 1.72832 7.8545 1.60716 8.00574 1.60716ZM10.3513 31.9068C9.73621 31.9068 9.24179 31.4091 9.24179 30.7916C9.24179 30.1741 9.73621 29.6778 10.3513 29.6778C10.9665 29.6778 11.4609 30.1756 11.4609 30.7916C11.4609 31.4091 10.965 31.9068 10.3513 31.9068ZM18.3581 28.8939H2.34169V3.53839H18.3581V28.8939Z" fill="white"/>
</svg>
