<svg width="16" height="27" viewBox="0 0 16 27" fill="none" xmlns="http://www.w3.org/2000/svg">
<path d="M13.3482 0H1.75616C0.79188 0 0 0.793752 0 1.76287V24.3364C0 25.3043 0.790731 26.0992 1.75616 26.0992H13.3482C14.3125 26.0992 15.1044 25.3055 15.1044 24.3364V1.76287C15.1033 0.793752 14.3125 0 13.3482 0ZM5.69835 1.27023H9.40492C9.52445 1.27023 9.61869 1.36484 9.61869 1.48598C9.61869 1.6025 9.52445 1.69711 9.40492 1.69711H5.69835C5.57882 1.69711 5.48343 1.6025 5.48343 1.48598C5.48343 1.36599 5.57882 1.27023 5.69835 1.27023ZM7.55221 25.2178C7.06605 25.2178 6.67527 24.8244 6.67527 24.3364C6.67527 23.8483 7.06605 23.4561 7.55221 23.4561C8.03837 23.4561 8.42914 23.8495 8.42914 24.3364C8.42914 24.8244 8.03722 25.2178 7.55221 25.2178ZM13.8804 22.8365H1.22173V2.79659H13.8804V22.8365Z" fill="white"/>
</svg>
