<svg width="48" height="49" viewBox="0 0 48 49" fill="none" xmlns="http://www.w3.org/2000/svg">
<path d="M32 37H36.8V46H32V37Z" fill="#FF9201"/>
<path d="M36.8 19H47.2V28H36.8V19Z" fill="#FF9201"/>
<path d="M0 19H30.2578V37.6666H31.8933V40.7777C31.8902 41.3239 32.0608 41.8492 32.3675 42.2382C32.6742 42.6271 33.092 42.8479 33.5289 42.8519C34.4027 42.8597 35.2383 43.3012 35.8517 44.0791C36.4651 44.857 36.8063 45.9077 36.8 47H0V19Z" fill="#D9D9D9"/>
<path d="M36.8 37H48V47H36.8V37Z" fill="#D47A05"/>
<path d="M0.800049 1H11.2V9.99999H0.800049V1Z" fill="#FF9201"/>
<path d="M11.2 1H24V9.99999H11.2V1Z" fill="#D47A05"/>
<path d="M24 1H36.8V9.99999H24V1Z" fill="#FF9201"/>
<path d="M36.8 1H47.2V9.99999H36.8V1Z" fill="#D47A05"/>
<path d="M30.4 28H43.2V37H30.4V28Z" fill="#FF9201"/>
<path d="M43.2001 28H47.2001V37H43.2001V28Z" fill="#D47A05"/>
<path d="M24 19H36.8V28H24V19Z" fill="#D47A05"/>
<path d="M4.80005 10H17.6V19H4.80005V10Z" fill="#D47A05"/>
<path d="M17.6 10H30.4V19H17.6V10Z" fill="#FF9201"/>
<path d="M30.4 10H43.2V19H30.4V10Z" fill="#D47A05"/>
<path d="M0.800049 10H4.80005V19H0.800049V10Z" fill="#FF9201"/>
<path d="M43.2 10H47.2V19H43.2V10Z" fill="#FF9201"/>
<path d="M36.8 0H0V19C0 19.2652 0.0842854 19.5196 0.234315 19.7071C0.384344 19.8946 0.587827 20 0.8 20H36V27H30.4C30.1878 27 29.9843 27.1053 29.8343 27.2929C29.6843 27.4804 29.6 27.7348 29.6 28V37C29.6 37.2652 29.6843 37.5195 29.8343 37.7071C29.9843 37.8946 30.1878 38 30.4 38H31.2V46C31.2 46.2652 31.2843 46.5195 31.4343 46.7071C31.5843 46.8946 31.7878 47 32 47H37.6V38H48V0H36.8ZM44 11H46.4V18H44V11ZM46.4 8.99999H37.6V2H46.4V8.99999ZM36 8.99999H24.8V2H36V8.99999ZM23.2 8.99999H12V2H23.2V8.99999ZM1.6 2H10.4V8.99999H1.6V2ZM1.6 11H4V18H1.6V11ZM5.6 11H16.8V18H5.6V11ZM18.4 11H29.6V18H18.4V11ZM31.2 11H42.4V18H31.2V11ZM37.6 20H46.4V27H37.6V20ZM31.2 29H42.4V36H31.2V29ZM36 45H32.8V38H36V45ZM46.4 36H44V29H46.4V36Z" fill="#D9D9D9"/>
<path d="M19.2 16C18.5635 16 17.9531 16.3161 17.503 16.8787C17.0529 17.4413 16.8 18.2043 16.8 19C16.8 19.7956 17.0529 20.5587 17.503 21.1213C17.9531 21.6839 18.5635 22 19.2 22H15.2C14.5635 22 13.9531 22.3161 13.503 22.8787C13.0529 23.4413 12.8 24.2043 12.8 25C12.8 25.7956 13.0529 26.5587 13.503 27.1213C13.9531 27.6839 14.5635 28 15.2 28H16.947C16.8137 28.4515 16.7701 28.9366 16.82 29.4138C16.8698 29.891 17.0117 30.3459 17.2333 30.7394C17.455 31.133 17.7498 31.4533 18.0923 31.6728C18.4349 31.8924 18.8151 32.0047 19.2 32H29.6V16H19.2Z" fill="#C3C3C3"/>
<path d="M20.8 16C20.1635 16 19.5531 16.3161 19.103 16.8787C18.6529 17.4413 18.4 18.2043 18.4 19C18.4 19.7956 18.6529 20.5587 19.103 21.1213C19.5531 21.6839 20.1635 22 20.8 22H16.8C16.1635 22 15.5531 22.3161 15.103 22.8787C14.6529 23.4413 14.4 24.2043 14.4 25C14.4 25.7956 14.6529 26.5587 15.103 27.1213C15.5531 27.6839 16.1635 28 16.8 28H18.547C18.4137 28.4515 18.3701 28.9366 18.4199 29.4138C18.4698 29.891 18.6117 30.3459 18.8333 30.7394C19.0549 31.133 19.3497 31.4533 19.6923 31.6728C20.0349 31.8924 20.415 32.0047 20.8 32H30.4V16H20.8Z" fill="#EBEBEB"/>
<path d="M26.4 29H23.2C22.9879 29 22.7844 28.8946 22.6343 28.7071C22.4843 28.5196 22.4 28.2652 22.4 28C22.4 27.7348 22.4843 27.4804 22.6343 27.2929C22.7844 27.1054 22.9879 27 23.2 27H26.4C26.6122 27 26.8157 27.1054 26.9657 27.2929C27.1157 27.4804 27.2 27.7348 27.2 28C27.2 28.2652 27.1157 28.5196 26.9657 28.7071C26.8157 28.8946 26.6122 29 26.4 29Z" fill="#F8F8F8"/>
<path d="M20 29H17.7469C17.5347 29 17.3312 28.8946 17.1812 28.7071C17.0312 28.5196 16.9469 28.2652 16.9469 28C16.9469 27.7348 17.0312 27.4804 17.1812 27.2929C17.3312 27.1054 17.5347 27 17.7469 27H20C20.2122 27 20.4157 27.1054 20.5657 27.2929C20.7157 27.4804 20.8 27.7348 20.8 28C20.8 28.2652 20.7157 28.5196 20.5657 28.7071C20.4157 28.8946 20.2122 29 20 29Z" fill="#F8F8F8"/>
<path d="M25.6 23H23.2C22.9879 23 22.7844 22.8946 22.6343 22.7071C22.4843 22.5196 22.4 22.2652 22.4 22C22.4 21.7348 22.4843 21.4804 22.6343 21.2929C22.7844 21.1054 22.9879 21 23.2 21H25.6C25.8122 21 26.0157 21.1054 26.1657 21.2929C26.3157 21.4804 26.4 21.7348 26.4 22C26.4 22.2652 26.3157 22.5196 26.1657 22.7071C26.0157 22.8946 25.8122 23 25.6 23Z" fill="#F8F8F8"/>
<path d="M30.4 16L24.8 27L28.8 35H32L36 27L30.4 16Z" fill="#B9B9B9"/>
<path d="M31.2 17.5714L26.4 27L30.4 35H32L36 27L31.2 17.5714Z" fill="#A8A8A8"/>
<path d="M30.4 48C29.9757 48 29.5687 47.7893 29.2687 47.4142C28.9686 47.0391 28.8 46.5304 28.8 46V40H32V46C32 46.5304 31.8315 47.0391 31.5314 47.4142C31.2314 47.7893 30.8244 48 30.4 48Z" fill="#8E7760"/>
<path d="M30.8 47.9292C31.1428 47.8194 31.4467 47.5704 31.6639 47.2211C31.8811 46.8719 31.9993 46.4424 32 46V40H29.6V46C29.6006 46.4424 29.7188 46.8719 29.936 47.2211C30.1533 47.5704 30.4572 47.8194 30.8 47.9292Z" fill="#74624F"/>
<path d="M32 40H28.8V34C28.8 33.4696 28.9686 32.9609 29.2687 32.5858C29.5687 32.2107 29.9757 32 30.4 32C30.8244 32 31.2314 32.2107 31.5314 32.5858C31.8315 32.9609 32 33.4696 32 34V40Z" fill="#CDCDCD"/>
<path d="M30.8 32.0707C30.4572 32.1805 30.1533 32.4296 29.936 32.7788C29.7188 33.128 29.6006 33.5576 29.6 33.9999V39.9999H32V33.9999C31.9993 33.5576 31.8811 33.128 31.6639 32.7788C31.4467 32.4296 31.1428 32.1805 30.8 32.0707Z" fill="#B9B9B9"/>
<path d="M47.2 0H0.8C0.587827 0 0.384344 0.105357 0.234315 0.292893C0.0842854 0.480429 0 0.734783 0 0.999999V46C0 46.2652 0.0842854 46.5195 0.234315 46.7071C0.384344 46.8946 0.587827 47 0.8 47H28.1475C28.3105 47.5843 28.6149 48.0907 29.0186 48.4491C29.4222 48.8075 29.905 49 30.4 49C30.8951 49 31.3779 48.8075 31.7815 48.4491C32.1852 48.0907 32.4896 47.5843 32.6526 47H47.2C47.4122 47 47.6157 46.8946 47.7657 46.7071C47.9157 46.5195 48 46.2652 48 46V0.999999C48 0.734783 47.9157 0.480429 47.7657 0.292893C47.6157 0.105357 47.4122 0 47.2 0ZM32.8 36V35.2865L35.9435 29H42.4V36H32.8ZM36 42.025C35.3109 41.365 34.4681 41.0051 33.6 41C33.3879 40.9996 33.1846 40.8941 33.0346 40.7067C32.8847 40.5192 32.8003 40.2651 32.8 40V38H36V42.025ZM20 29C20.2122 29 20.4157 28.8946 20.5657 28.7071C20.7157 28.5195 20.8 28.2652 20.8 28C20.8 27.7348 20.7157 27.4804 20.5657 27.2929C20.4157 27.1053 20.2122 27 20 27H16C15.5757 27 15.1687 26.7893 14.8686 26.4142C14.5686 26.0391 14.4 25.5304 14.4 25C14.4 24.4695 14.5686 23.9608 14.8686 23.5858C15.1687 23.2107 15.5757 23 16 23H20C20.2122 23 20.4157 22.8946 20.5657 22.7071C20.7157 22.5195 20.8 22.2652 20.8 22C20.8 21.7348 20.7157 21.4804 20.5657 21.2929C20.4157 21.1053 20.2122 21 20 21C19.5757 21 19.1687 20.7893 18.8686 20.4142C18.5686 20.0391 18.4 19.5304 18.4 19C18.4 18.4695 18.5686 17.9608 18.8686 17.5858C19.1687 17.2107 19.5757 17 20 17H28.9425L26.3993 21.9955C26.3983 21.7312 26.3137 21.4781 26.164 21.2916C26.0142 21.105 25.8114 21.0002 25.6 21H23.2C22.9878 21 22.7843 21.1053 22.6343 21.2929C22.4843 21.4804 22.4 21.7348 22.4 22C22.4 22.2652 22.4843 22.5195 22.6343 22.7071C22.7843 22.8946 22.9878 23 23.2 23H25.6C25.7181 22.998 25.8343 22.9627 25.94 22.8969L24.125 26.4625C24.0432 26.6231 23.9999 26.8096 24 27H23.2C22.9878 27 22.7843 27.1053 22.6343 27.2929C22.4843 27.4804 22.4 27.7348 22.4 28C22.4 28.2652 22.4843 28.5195 22.6343 28.7071C22.7843 28.8946 22.9878 29 23.2 29H24.8565L25.8565 31H20C19.5758 30.9994 19.1691 30.7886 18.8691 30.4136C18.5691 30.0386 18.4004 29.5302 18.4 29H20ZM1.6 18V11H4V18H1.6ZM5.6 11H16.8V18H5.6V11ZM29.6 11V15H20C19.4365 15.004 18.8841 15.1961 18.4 15.5565V11H29.6ZM42.4 11V18H32.3666L31.2 15.7084V11H42.4ZM46.4 11V18H44V11H46.4ZM46.4 27H37.6V20H46.4V27ZM28.4083 32.3286L25.7469 27.0028L29.6 19.4339V31.1838C29.1151 31.3965 28.6975 31.7977 28.4083 32.3286ZM36 25.1375L33.3847 20H36V25.1375ZM32.3923 32.3301C32.1031 31.7986 31.6852 31.397 31.2 31.1842V19.4342L35.0555 27.0073L32.3923 32.3301ZM29.6 34C29.6 33.7347 29.6843 33.4804 29.8343 33.2929C29.9843 33.1053 30.1878 33 30.4 33C30.6122 33 30.8157 33.1053 30.9657 33.2929C31.1157 33.4804 31.2 33.7347 31.2 34V39H29.6V34ZM44 29H46.4V36H44V29ZM46.4 8.99999H37.6V2H46.4V8.99999ZM36 8.99999H24.8V2H36V8.99999ZM23.2 8.99999H12V2H23.2V8.99999ZM1.6 2H10.4V8.99999H1.6V2ZM1.6 20H16.9038C16.9754 20.3503 17.0849 20.6867 17.2293 21H16C15.1513 21 14.3374 21.4214 13.7373 22.1716C13.1371 22.9217 12.8 23.9391 12.8 25C12.8 26.0608 13.1371 27.0783 13.7373 27.8284C14.3374 28.5785 15.1513 29 16 29H16.8C16.801 30.0605 17.1384 31.0772 17.7383 31.8271C18.3382 32.577 19.1516 32.9988 20 33H26.8566L28 35.2866V45H1.6V20ZM30.4 47C30.1879 46.9996 29.9846 46.8941 29.8346 46.7067C29.6847 46.5192 29.6003 46.2651 29.6 46V41H31.2V46C31.1997 46.2651 31.1153 46.5192 30.9654 46.7067C30.8154 46.8941 30.6121 46.9996 30.4 47ZM32.8 45V42.8156C33.0562 42.9342 33.3268 42.9966 33.6 43C34.2347 43.0003 34.8436 43.3137 35.2945 43.8721C35.5477 44.1914 35.7416 44.5765 35.8625 45H32.8ZM46.4 45H37.6V38H46.4V45Z" fill="black"/>
</svg>
