<svg width="62" height="49" viewBox="0 0 62 49" fill="none" xmlns="http://www.w3.org/2000/svg">
<path d="M0.908325 41.0093L10.8475 6.14644C11.1413 5.11505 11.584 4.18886 12.163 3.486C13.2519 2.16543 14.6341 1.37524 16.1378 1.37524H45.8613C47.366 1.37524 48.7482 2.16543 49.8371 3.486C50.416 4.18886 50.8593 5.11505 51.153 6.14644L61.0922 41.0093C59.3222 37.6853 56.6094 35.5603 53.5683 35.5603C50.5286 35.5603 47.8158 37.6853 46.0462 41.0093C44.2762 37.6853 41.5634 35.5603 38.5223 35.5603C35.4827 35.5603 32.7699 37.6853 31.0003 41.0093C29.2302 37.6853 26.5174 35.5603 23.4763 35.5603C20.4367 35.5603 17.7239 37.6853 15.9543 41.0093C14.1842 37.6853 11.4714 35.5603 8.43037 35.5603C5.39118 35.5603 2.67838 37.6853 0.908325 41.0093Z" fill="#EA6789"/>
<path d="M51.153 6.14644C50.8587 5.11505 50.416 4.18886 49.837 3.486C48.7481 2.16543 47.3659 1.37524 45.8612 1.37524C45.3182 1.37524 44.7908 1.47831 44.2875 1.67228C45.6394 2.19335 46.8182 3.36861 47.6672 4.96331L56.5994 36.2946C58.3841 37.1857 59.9384 38.8427 61.0922 41.0093L51.153 6.14644Z" fill="#C7416A"/>
<path d="M0.908325 41.0093C2.67838 37.6854 5.39071 35.5603 8.43037 35.5603C11.4714 35.5603 14.1842 37.6854 15.9543 41.0093C17.7244 37.6854 20.4367 35.5603 23.4763 35.5603C26.5174 35.5603 29.2302 37.6854 31.0003 41.0093C32.7699 37.6854 35.4827 35.5603 38.5223 35.5603C41.5634 35.5603 44.2762 37.6854 46.0462 41.0093C47.8158 37.6854 50.5286 35.5603 53.5683 35.5603C56.6094 35.5603 59.3222 37.6854 61.0922 41.0093V46.0017C61.0922 46.7089 60.534 47.0746 60.1944 46.59C58.4655 44.1214 56.1335 42.609 53.5683 42.609C50.7457 42.609 48.2051 44.4413 46.4393 47.3645C46.2298 47.7123 45.8627 47.7123 45.6527 47.3645C43.8869 44.4413 41.3463 42.609 38.5223 42.609C35.6998 42.609 33.1592 44.4413 31.3934 47.3645C31.1838 47.7123 30.8167 47.7123 30.6067 47.3645C28.8409 44.4413 26.3003 42.609 23.4763 42.609C20.6538 42.609 18.1132 44.4413 16.3479 47.3645C16.1378 47.7123 15.7708 47.7123 15.5607 47.3645C13.7949 44.4413 11.2543 42.609 8.43037 42.609C5.86657 42.609 3.53503 44.1214 1.80565 46.59C1.46602 47.0746 0.908325 46.7081 0.908325 46.0017V41.0093Z" fill="#EAB875"/>
<path d="M61.9289 40.4761C61.9285 40.474 61.928 40.4725 61.9275 40.4704C61.927 40.469 61.9266 40.4668 61.9261 40.4654L51.9869 5.60183C51.625 4.3328 51.0782 3.23055 50.4051 2.41459C49.1227 0.858544 47.5088 0.00107356 45.8612 0.00107356H40.4319C40.4087 0.000357853 40.386 0.000357853 40.3628 0.00107356H31.0281C31.0191 0.00107356 31.0097 0.000357851 31.0002 0.000357851C30.9908 0.000357851 30.9813 0.00107356 30.9723 0.00107356H21.6386C21.6149 -0.000357853 21.5908 -0.000357853 21.5676 0.00107356H17.2357C16.7343 0.00107356 16.3275 0.61662 16.3275 1.37532C16.3275 2.13473 16.7343 2.74956 17.2357 2.74956H20.4797L18.8421 14.2352C17.361 12.4358 15.5025 11.4374 13.5442 11.4374C12.2997 11.4374 11.0915 11.8446 9.99507 12.6062L11.6809 6.69192C11.9269 5.82944 12.293 5.08864 12.7396 4.54824C12.7396 4.54824 13.5153 3.73014 13.941 3.4467C14.3999 3.14036 14.608 2.32941 14.4056 1.63442C14.2031 0.94014 13.6667 0.625925 13.2079 0.931551C12.6402 1.31018 12.1057 1.79904 11.619 2.38524C11.618 2.38596 11.6067 2.40027 11.6062 2.40099C10.9274 3.22124 10.3763 4.32851 10.013 5.60326L3.61444 28.0471C3.60593 28.075 3.59789 28.1029 3.59079 28.1315L0.0743262 40.4654C0.0738532 40.4668 0.0733802 40.469 0.0729071 40.4704C0.0724341 40.4725 0.0719611 40.474 0.0714881 40.4761C0.0218206 40.6543 -0.00135772 40.8404 6.13573e-05 41.0244V46.0024C6.13573e-05 46.8742 0.342058 47.6601 0.8709 48.0058C1.3988 48.3501 2.01089 48.1876 2.42904 47.59C4.05767 45.2645 6.18912 43.984 8.43078 43.984C10.882 43.984 13.2367 45.5544 14.8904 48.2914C15.1619 48.7416 15.5498 49 15.9542 49C16.3587 49 16.7466 48.7416 17.0181 48.2921C18.6718 45.5544 21.026 43.984 23.4768 43.984C25.928 43.984 28.2827 45.5544 29.9364 48.2914C30.2079 48.7416 30.5958 49 31.0002 49C31.4046 49 31.7925 48.7416 32.064 48.2921C33.7177 45.5544 36.072 43.984 38.5223 43.984C40.9739 43.984 43.3287 45.5544 44.9824 48.2914C45.2539 48.7416 45.6418 49 46.0462 49C46.4506 49 46.8385 48.7416 47.11 48.2921C48.3063 46.3116 49.845 44.9431 51.5612 44.3333C52.0493 44.1601 52.3521 43.4207 52.2376 42.6813C52.1231 41.9427 51.6345 41.4846 51.1459 41.6578C49.2027 42.3478 47.4478 43.843 46.0462 45.996C44.0675 42.9634 41.3481 41.2355 38.5223 41.2355C35.6973 41.2355 32.9789 42.9634 31.0002 45.9967C29.0216 42.9634 26.3026 41.2355 23.4768 41.2355C20.6518 41.2355 17.9329 42.9634 15.9542 45.9967C13.9761 42.9634 11.2566 41.2355 8.43078 41.2355C6.00606 41.2355 3.68776 42.4766 1.81648 44.7542V41.5075C5.40248 35.2354 11.8474 35.4873 15.2471 41.8718C15.2598 41.8876 15.4443 42.287 15.8213 42.3693C16.1619 42.4416 16.4755 42.2326 16.6704 41.8554C18.3407 38.7282 20.8207 36.9353 23.4768 36.9353C25.9904 36.9353 28.3574 38.3897 30.3105 41.904C30.3233 41.9269 30.3342 41.9448 30.346 41.9627C30.3678 41.9978 30.3971 42.0386 30.4193 42.0658C30.5783 42.2662 30.7926 42.3936 31.0253 42.3836C31.2452 42.3729 31.4439 42.249 31.5991 42.0429C31.6104 42.0279 31.6237 42.01 31.6345 41.9935C31.6497 41.9706 31.6601 41.9549 31.6738 41.9312C31.6861 41.9105 31.6932 41.8983 31.706 41.874C31.7064 41.8733 31.7069 41.8725 31.7074 41.8718C33.3781 38.7347 35.862 36.9353 38.5223 36.9353C43.0789 36.9353 45.4573 42.0565 45.445 42.04C46.1739 43.0099 46.8877 41.6943 46.7382 41.8997C50.6298 34.9949 56.8496 35.6791 60.1839 41.5075V44.7534C58.7251 42.977 56.9953 41.8282 55.1339 41.4095C54.6387 41.2999 54.1761 41.816 54.1023 42.5668C54.0285 43.3176 54.3709 44.0169 54.8671 44.1286C56.6367 44.5258 58.2635 45.7233 59.5714 47.5893C59.9895 48.1869 60.6012 48.3501 61.1291 48.0058C61.6584 47.6601 61.9999 46.8742 61.9999 46.0024V41.0244C62.0018 40.8404 61.9786 40.6543 61.9289 40.4761ZM15.4273 38.1893C12.0769 33.6979 7.16497 32.9056 3.26251 36.2217L5.21232 29.3827C6.66876 26.9663 8.7496 25.5842 10.9435 25.5842C13.1539 25.5842 15.2239 26.9649 16.6813 29.392L15.4273 38.1893ZM17.1311 26.237C15.424 24.0525 13.2443 22.8357 10.9435 22.8357C9.43028 22.8357 7.95965 23.3704 6.64275 24.3645L8.59492 17.5169C9.84181 15.3976 11.6379 14.1858 13.5442 14.1858C15.4079 14.1858 17.1548 15.3332 18.3974 17.353L17.1311 26.237ZM30.092 37.7019C28.2344 35.4394 25.9171 34.1861 23.4763 34.1861C21.2876 34.1861 19.1973 35.1946 17.4495 37.0355L18.5275 29.4764C19.9872 26.9971 22.079 25.5842 24.314 25.5842C26.5448 25.5842 28.6327 26.9906 30.092 29.4585V37.7019ZM30.092 25.7417C28.4525 23.8692 26.4346 22.8357 24.314 22.8357C22.4517 22.8357 20.6689 23.633 19.1519 25.096L20.2327 17.5119C21.4806 15.3933 23.2691 14.1851 25.1811 14.1851C27.0736 14.1851 28.8456 15.3683 30.092 17.4475V25.7417ZM30.092 13.7922C28.68 12.2726 26.9719 11.4374 25.1811 11.4374C23.6258 11.4374 22.1338 12.0672 20.8439 13.2282L22.3377 2.74956H30.092V13.7922ZM45.8612 2.74956C47.1152 2.74956 48.2935 3.37513 49.2689 4.55826C49.7112 5.09508 50.0745 5.8323 50.319 6.69049L52.0054 12.6062C50.9084 11.8446 49.6998 11.4374 48.4548 11.4374C46.4975 11.4374 44.6389 12.4358 43.1584 14.2352L41.5208 2.74956H45.8612ZM31.9084 2.74956H39.6627L41.1565 13.2282C39.8661 12.0672 38.3732 11.4374 36.8179 11.4374C35.0271 11.4374 33.3199 12.2726 31.9084 13.7922V2.74956ZM31.9084 17.4475C33.1544 15.3683 34.9258 14.1858 36.8179 14.1858C38.7304 14.1858 40.5194 15.3933 41.7672 17.5119L42.8485 25.096C41.3311 23.633 39.5478 22.8357 37.6845 22.8357C35.5644 22.8357 33.5475 23.8692 31.9084 25.7417V17.4475ZM38.5223 34.1861C36.0824 34.1861 33.7655 35.4394 31.9084 37.7019V29.4593C33.3677 26.9906 35.4547 25.5842 37.685 25.5842C39.921 25.5842 42.0132 26.9971 43.4729 29.4764L44.5505 37.0362C42.8027 35.1953 40.7124 34.1861 38.5223 34.1861ZM43.6025 17.353C44.8456 15.3332 46.5916 14.1858 48.4548 14.1858C50.3621 14.1858 52.1586 15.3976 53.4055 17.5169L55.3577 24.3645C54.0403 23.3704 52.5697 22.8357 51.0555 22.8357C48.7552 22.8357 46.576 24.0525 44.8693 26.237L43.6025 17.353ZM46.5731 38.1893L45.3191 29.392C46.7761 26.9649 48.846 25.5842 51.0555 25.5842C53.2504 25.5842 55.3312 26.9663 56.7881 29.3827L58.7384 36.2217C54.9074 32.9679 49.9912 33.6063 46.5731 38.1893Z" fill="black"/>
</svg>
