<svg width="17" height="17" viewBox="0 0 17 17" fill="none" xmlns="http://www.w3.org/2000/svg">
<path d="M8.50002 13.26C12.9323 13.26 16.4397 8.89677 16.5866 8.71113L16.7535 8.49999L16.5866 8.28885C16.4397 8.10321 12.9323 3.73999 8.50002 3.73999C4.06778 3.73999 0.560341 8.10321 0.413461 8.28885L0.246521 8.49999L0.413461 8.71113C0.560341 8.89677 4.06778 13.26 8.50002 13.26ZM8.50002 4.41999C12.068 4.41999 15.1198 7.63639 15.8746 8.49999C15.1208 9.36427 12.0731 12.58 8.50002 12.58C4.93206 12.58 1.88022 9.36359 1.12542 8.49999C1.8792 7.63571 4.92696 4.41999 8.50002 4.41999Z" fill="black" fill-opacity="0.5"/>
<path d="M8.5 11.56C10.1874 11.56 11.56 10.1871 11.56 8.5C11.56 6.81292 10.1874 5.44 8.5 5.44C6.81258 5.44 5.44 6.81292 5.44 8.5C5.44 10.1871 6.81258 11.56 8.5 11.56ZM8.5 6.12C9.81206 6.12 10.88 7.1876 10.88 8.5C10.88 9.8124 9.81206 10.88 8.5 10.88C7.18794 10.88 6.12 9.8124 6.12 8.5C6.12 7.1876 7.18794 6.12 8.5 6.12Z" fill="black" fill-opacity="0.5"/>
</svg>
