<svg width="48" height="49" viewBox="0 0 48 49" fill="none" xmlns="http://www.w3.org/2000/svg">
<path d="M18.0666 10.5059H12.6301C12.4081 10.5059 12.228 10.6809 12.228 10.8968V15.0402C12.228 15.2561 12.4081 15.4311 12.6301 15.4311H18.0666C18.2886 15.4311 18.4687 15.2561 18.4687 15.0402V10.8968C18.4687 10.6809 18.2886 10.5059 18.0666 10.5059Z" fill="#CCDFED"/>
<path d="M29.752 41.6059H10.4735C10.2271 41.6059 10.0273 41.4117 10.0273 41.1722V13.7582C10.0273 13.5186 10.2271 13.3245 10.4735 13.3245H29.7519C29.9983 13.3245 30.198 13.5186 30.198 13.7582V41.1722C30.198 41.4117 29.9983 41.6059 29.752 41.6059Z" fill="#E1EFFB"/>
<path d="M26.8701 30.7175H12.5358C12.4672 30.7175 12.4116 30.6634 12.4116 30.5967V28.4832C12.4116 28.4165 12.4672 28.3624 12.5358 28.3624H26.8701C26.9387 28.3624 26.9943 28.4165 26.9943 28.4832V30.5967C26.9942 30.6634 26.9387 30.7175 26.8701 30.7175Z" fill="#21D8DE"/>
<path d="M26.8701 24.9931H12.5358C12.4672 24.9931 12.4116 24.9391 12.4116 24.8723V22.7588C12.4116 22.6921 12.4672 22.6381 12.5358 22.6381H26.8701C26.9387 22.6381 26.9943 22.6921 26.9943 22.7588V24.8723C26.9942 24.9391 26.9387 24.9931 26.8701 24.9931Z" fill="#21D8DE"/>
<path d="M26.8701 19.2688H12.5358C12.4672 19.2688 12.4116 19.2147 12.4116 19.148V17.0345C12.4116 16.9678 12.4672 16.9137 12.5358 16.9137H26.8701C26.9387 16.9137 26.9943 16.9678 26.9943 17.0345V19.148C26.9942 19.2147 26.9387 19.2688 26.8701 19.2688Z" fill="#21D8DE"/>
<path d="M18.0666 10.5059H12.6301C12.4081 10.5059 12.228 10.6809 12.228 10.8968V15.0402C12.228 15.2561 12.4081 15.4311 12.6301 15.4311H18.0666C18.2886 15.4311 18.4687 15.2561 18.4687 15.0402V10.8968C18.4687 10.6809 18.2886 10.5059 18.0666 10.5059Z" fill="#CCDFED"/>
<path d="M29.752 41.6059H10.4735C10.2271 41.6059 10.0273 41.4117 10.0273 41.1722V13.7582C10.0273 13.5186 10.2271 13.3245 10.4735 13.3245H29.7519C29.9983 13.3245 30.198 13.5186 30.198 13.7582V41.1722C30.198 41.4117 29.9983 41.6059 29.752 41.6059Z" fill="#E1EFFB"/>
<path d="M26.8701 30.7175H12.5358C12.4672 30.7175 12.4116 30.6634 12.4116 30.5967V28.4832C12.4116 28.4165 12.4672 28.3624 12.5358 28.3624H26.8701C26.9387 28.3624 26.9943 28.4165 26.9943 28.4832V30.5967C26.9942 30.6634 26.9387 30.7175 26.8701 30.7175Z" fill="#21D8DE"/>
<path d="M26.8701 24.9931H12.5358C12.4672 24.9931 12.4116 24.9391 12.4116 24.8723V22.7588C12.4116 22.6921 12.4672 22.6381 12.5358 22.6381H26.8701C26.9387 22.6381 26.9943 22.6921 26.9943 22.7588V24.8723C26.9942 24.9391 26.9387 24.9931 26.8701 24.9931Z" fill="#21D8DE"/>
<path d="M26.8701 19.2688H12.5358C12.4672 19.2688 12.4116 19.2147 12.4116 19.148V17.0345C12.4116 16.9678 12.4672 16.9137 12.5358 16.9137H26.8701C26.9387 16.9137 26.9943 16.9678 26.9943 17.0345V19.148C26.9942 19.2147 26.9387 19.2688 26.8701 19.2688Z" fill="#21D8DE"/>
<path d="M26.8701 36.442H12.5358C12.4672 36.442 12.4116 36.3879 12.4116 36.3212V34.2077C12.4116 34.141 12.4672 34.0869 12.5358 34.0869H26.8701C26.9387 34.0869 26.9943 34.141 26.9943 34.2077V36.3212C26.9942 36.388 26.9387 36.442 26.8701 36.442Z" fill="#61AFF6"/>
<path d="M40.6435 1.33167H21.3875V41.6055H40.6435V1.33167Z" fill="#CCDFED"/>
<path d="M40.6436 1.33167H36.2288V41.6055H40.6436V1.33167Z" fill="#B0C8D6"/>
<path d="M41.5066 0.700073H20.3016C20.1772 0.700073 20.0762 0.798169 20.0762 0.919233V2.71415C20.0762 2.83511 20.1771 2.93331 20.3016 2.93331H41.5067C41.6312 2.93331 41.7322 2.83521 41.7322 2.71415V0.919138C41.7321 0.798169 41.6312 0.700073 41.5066 0.700073Z" fill="#E1EFFB"/>
<path d="M26.8025 9.89079H23.972C23.8661 9.89079 23.7803 9.80734 23.7803 9.70436V6.40213C23.7803 6.29915 23.8661 6.2157 23.972 6.2157H26.8025C26.9085 6.2157 26.9943 6.29915 26.9943 6.40213V9.70436C26.9942 9.80734 26.9084 9.89079 26.8025 9.89079Z" fill="#61AFF6"/>
<path d="M32.4304 9.89079H29.5998C29.4939 9.89079 29.4081 9.80734 29.4081 9.70436V6.40213C29.4081 6.29915 29.4939 6.2157 29.5998 6.2157H32.4304C32.5363 6.2157 32.6221 6.29915 32.6221 6.40213V9.70436C32.622 9.80734 32.5362 9.89079 32.4304 9.89079Z" fill="#61AFF6"/>
<path d="M38.0582 9.89079H35.2276C35.1217 9.89079 35.0359 9.80734 35.0359 9.70436V6.40213C35.0359 6.29915 35.1217 6.2157 35.2276 6.2157H38.0582C38.1641 6.2157 38.2499 6.29915 38.2499 6.40213V9.70436C38.2499 9.80734 38.1641 9.89079 38.0582 9.89079Z" fill="#61AFF6"/>
<path d="M26.8025 18.0912H23.972C23.8661 18.0912 23.7803 18.0078 23.7803 17.9048V14.6026C23.7803 14.4996 23.8661 14.4161 23.972 14.4161H26.8025C26.9085 14.4161 26.9943 14.4996 26.9943 14.6026V17.9048C26.9942 18.0078 26.9084 18.0912 26.8025 18.0912Z" fill="#61AFF6"/>
<path d="M32.4305 18.0912H29.6C29.494 18.0912 29.4082 18.0078 29.4082 17.9048V14.6026C29.4082 14.4996 29.494 14.4161 29.6 14.4161H32.4305C32.5364 14.4161 32.6222 14.4996 32.6222 14.6026V17.9048C32.6221 18.0078 32.5363 18.0912 32.4305 18.0912Z" fill="#61AFF6"/>
<path d="M38.0582 18.0912H35.2276C35.1217 18.0912 35.0359 18.0078 35.0359 17.9048V14.6026C35.0359 14.4996 35.1217 14.4161 35.2276 14.4161H38.0582C38.1641 14.4161 38.2499 14.4996 38.2499 14.6026V17.9048C38.2499 18.0078 38.1641 18.0912 38.0582 18.0912Z" fill="#61AFF6"/>
<path d="M26.8025 26.2917H23.972C23.8661 26.2917 23.7803 26.2082 23.7803 26.1052V22.803C23.7803 22.7 23.8661 22.6166 23.972 22.6166H26.8025C26.9085 22.6166 26.9943 22.7 26.9943 22.803V26.1052C26.9942 26.2082 26.9084 26.2917 26.8025 26.2917Z" fill="#61AFF6"/>
<path d="M32.4305 26.2917H29.6C29.494 26.2917 29.4082 26.2082 29.4082 26.1052V22.803C29.4082 22.7 29.494 22.6166 29.6 22.6166H32.4305C32.5364 22.6166 32.6222 22.7 32.6222 22.803V26.1052C32.6221 26.2082 32.5363 26.2917 32.4305 26.2917Z" fill="#61AFF6"/>
<path d="M38.0582 26.2917H35.2276C35.1217 26.2917 35.0359 26.2082 35.0359 26.1052V22.803C35.0359 22.7 35.1217 22.6166 35.2276 22.6166H38.0582C38.1641 22.6166 38.2499 22.7 38.2499 22.803V26.1052C38.2499 26.2082 38.1641 26.2917 38.0582 26.2917Z" fill="#61AFF6"/>
<path d="M32.4305 34.4921H29.6C29.494 34.4921 29.4082 34.4087 29.4082 34.3057V31.0034C29.4082 30.9005 29.494 30.817 29.6 30.817H32.4305C32.5364 30.817 32.6222 30.9005 32.6222 31.0034V34.3057C32.6221 34.4087 32.5363 34.4921 32.4305 34.4921Z" fill="#61AFF6"/>
<path d="M26.8025 34.4921H23.972C23.8661 34.4921 23.7803 34.4087 23.7803 34.3057V31.0034C23.7803 30.9005 23.8661 30.817 23.972 30.817H26.8025C26.9085 30.817 26.9943 30.9005 26.9943 31.0034V34.3057C26.9942 34.4087 26.9084 34.4921 26.8025 34.4921Z" fill="#61AFF6"/>
<path d="M38.0582 34.4921H35.2276C35.1217 34.4921 35.0359 34.4087 35.0359 34.3057V31.0034C35.0359 30.9005 35.1217 30.817 35.2276 30.817H38.0582C38.1641 30.817 38.2499 30.9005 38.2499 31.0034V34.3057C38.2499 34.4087 38.1641 34.4921 38.0582 34.4921Z" fill="#61AFF6"/>
<path d="M43.7432 33.0397L34.1327 39.293L31.2685 39.1367L31.1564 38.0406C30.9896 36.4091 29.6974 35.0997 28.0276 34.8699L20.3536 34.0108C18.5833 33.7673 16.8789 33.1906 15.3356 32.3129C13.2287 31.1146 10.8317 30.483 8.39077 30.483H2.85779V42.7619L17.4809 48.1457C18.0335 48.2974 18.614 48.3429 19.1812 48.2557C19.1846 48.2552 19.188 48.2546 19.1914 48.2541L33.9134 46.191C35.0476 46.0149 36.1137 45.5505 37.0038 44.8447L46.5188 36.5246C47.3727 35.7874 47.531 34.5484 46.8886 33.6304C46.1856 32.626 44.7803 32.3622 43.7432 33.0397Z" fill="#FED9A8"/>
<path d="M47.014 33.8344L37.6092 41.5313C36.7191 42.237 35.2395 42.7014 34.1054 42.8775L19.1913 43.914C19.1879 43.9145 19.1845 43.915 19.1811 43.9155C18.6139 44.0026 18.0334 43.9573 17.4808 43.8056L2.85779 38.4218V42.7619L17.4809 48.1457C17.7572 48.2215 18.0405 48.2708 18.3256 48.2902C18.3969 48.2951 18.4682 48.2981 18.5397 48.2991C18.754 48.3024 18.9685 48.2883 19.1812 48.2556C19.1846 48.2551 19.188 48.2545 19.1914 48.254L33.9134 46.1909C34.2679 46.1358 34.6156 46.0527 34.9535 45.9428C35.021 45.9208 35.0882 45.8978 35.155 45.8737C35.4887 45.7532 35.8118 45.6062 36.1211 45.4342C36.1829 45.3999 36.2443 45.3645 36.305 45.3281C36.5478 45.1825 36.7813 45.0212 37.0039 44.8448L46.5189 36.5247C47.311 35.8405 47.5033 34.7251 47.014 33.8344Z" fill="#F4C892"/>
<path d="M4.72247 46.9327H2.53336C1.53187 46.9327 0.719971 46.1433 0.719971 45.1696V29.4192C0.719971 28.4455 1.53187 27.6561 2.53336 27.6561H4.72247C5.72396 27.6561 6.53585 28.4455 6.53585 29.4192V45.1697C6.53595 46.1433 5.72405 46.9327 4.72247 46.9327Z" fill="#2D5871"/>
<path d="M41.5066 0.700073H37.3171V2.93321H41.5066C41.631 2.93321 41.732 2.83511 41.732 2.71405V0.919138C41.732 0.798169 41.6311 0.700073 41.5066 0.700073Z" fill="#CCDFED"/>
<path d="M4.72254 27.656H3.62793V46.9326H4.72254C5.72402 46.9326 6.53592 46.1433 6.53592 45.1696V29.4191C6.53602 28.4454 5.72412 27.656 4.72254 27.656Z" fill="#1D4859"/>
<path d="M23.972 10.5908H26.8025C27.3053 10.5908 27.7143 10.1931 27.7143 9.70426V6.40212C27.7143 5.91337 27.3053 5.51562 26.8025 5.51562H23.972C23.4693 5.51562 23.0603 5.91327 23.0603 6.40212V9.70436C23.0602 10.1931 23.4692 10.5908 23.972 10.5908ZM24.5002 6.91567H26.2742V9.19072H24.5002V6.91567Z" fill="black"/>
<path d="M29.5999 10.5908H32.4305C32.9332 10.5908 33.3422 10.1931 33.3422 9.70426V6.40212C33.3422 5.91337 32.9332 5.51562 32.4305 5.51562H29.5999C29.0972 5.51562 28.6882 5.91327 28.6882 6.40212V9.70436C28.6882 10.1931 29.0971 10.5908 29.5999 10.5908ZM30.1282 6.91567H31.9021V9.19072H30.1282V6.91567Z" fill="black"/>
<path d="M35.2278 10.5908H38.0583C38.561 10.5908 38.9701 10.1931 38.9701 9.70426V6.40212C38.9701 5.91337 38.5611 5.51562 38.0583 5.51562H35.2278C34.725 5.51562 34.316 5.91327 34.316 6.40212V9.70436C34.316 10.1931 34.725 10.5908 35.2278 10.5908ZM35.7561 6.91567H37.5301V9.19072H35.7561V6.91567Z" fill="black"/>
<path d="M23.972 18.7912H26.8025C27.3053 18.7912 27.7143 18.3935 27.7143 17.9047V14.6024C27.7143 14.1137 27.3053 13.7159 26.8025 13.7159H23.972C23.4693 13.7159 23.0603 14.1136 23.0603 14.6024V17.9047C23.0602 18.3935 23.4692 18.7912 23.972 18.7912ZM24.5002 15.1162H26.2742V17.3912H24.5002V15.1162Z" fill="black"/>
<path d="M29.5999 18.7912H32.4305C32.9332 18.7912 33.3422 18.3935 33.3422 17.9047V14.6024C33.3422 14.1137 32.9332 13.7159 32.4305 13.7159H29.5999C29.0972 13.7159 28.6882 14.1136 28.6882 14.6024V17.9047C28.6882 18.3935 29.0971 18.7912 29.5999 18.7912ZM30.1282 15.1162H31.9021V17.3912H30.1282V15.1162Z" fill="black"/>
<path d="M35.2278 18.7912H38.0583C38.561 18.7912 38.9701 18.3935 38.9701 17.9047V14.6024C38.9701 14.1137 38.5611 13.7159 38.0583 13.7159H35.2278C34.725 13.7159 34.316 14.1136 34.316 14.6024V17.9047C34.316 18.3935 34.725 18.7912 35.2278 18.7912ZM35.7561 15.1162H37.5301V17.3912H35.7561V15.1162Z" fill="black"/>
<path d="M23.972 26.9917H26.8025C27.3053 26.9917 27.7143 26.5941 27.7143 26.1052V22.803C27.7143 22.3142 27.3053 21.9165 26.8025 21.9165H23.972C23.4693 21.9165 23.0603 22.3142 23.0603 22.803V26.1052C23.0602 26.594 23.4692 26.9917 23.972 26.9917ZM24.5002 23.3166H26.2742V25.5917H24.5002V23.3166Z" fill="black"/>
<path d="M29.5999 26.9917H32.4305C32.9332 26.9917 33.3422 26.5941 33.3422 26.1052V22.803C33.3422 22.3142 32.9332 21.9165 32.4305 21.9165H29.5999C29.0972 21.9165 28.6882 22.3142 28.6882 22.803V26.1052C28.6882 26.594 29.0971 26.9917 29.5999 26.9917ZM30.1282 23.3166H31.9021V25.5917H30.1282V23.3166Z" fill="black"/>
<path d="M35.2278 26.9917H38.0583C38.561 26.9917 38.9701 26.5941 38.9701 26.1052V22.803C38.9701 22.3142 38.5611 21.9165 38.0583 21.9165H35.2278C34.725 21.9165 34.316 22.3142 34.316 22.803V26.1052C34.316 26.594 34.725 26.9917 35.2278 26.9917ZM35.7561 23.3166H37.5301V25.5917H35.7561V23.3166Z" fill="black"/>
<path d="M35.2278 35.1922H38.0583C38.561 35.1922 38.9701 34.7946 38.9701 34.3057V31.0035C38.9701 30.5147 38.5611 30.1171 38.0583 30.1171H35.2278C34.725 30.1171 34.316 30.5147 34.316 31.0035V34.3057C34.316 34.7945 34.725 35.1922 35.2278 35.1922ZM35.7561 31.5171H37.5301V33.7921H35.7561V31.5171Z" fill="black"/>
<path d="M47.4839 33.2365C46.5612 31.9181 44.7031 31.5691 43.3428 32.4579L41.3631 33.746V3.63318H41.5066C42.028 3.63318 42.452 3.22089 42.452 2.71404V0.919133C42.452 0.412289 42.028 0 41.5066 0H36.9089C36.5112 0 36.1889 0.313428 36.1889 0.699973C36.1889 1.08652 36.5113 1.39995 36.9089 1.39995H41.012V2.23304H40.6431H21.3871H20.7961V1.39995H32.4002C32.7978 1.39995 33.1201 1.08652 33.1201 0.699973C33.1201 0.313428 32.7978 0 32.4002 0H20.3016C19.7803 0 19.3562 0.412289 19.3562 0.919133V2.71404C19.3562 3.22089 19.7803 3.63318 20.3016 3.63318H20.6672V12.6246H19.1888V10.8968C19.1888 10.2952 18.6854 9.80574 18.0667 9.80574H12.6303C12.0115 9.80574 11.5081 10.2952 11.5081 10.8968V12.6245H10.4736C9.83059 12.6245 9.3075 13.1331 9.3075 13.7582V29.8119C9.00274 29.7931 8.6971 29.7829 8.39077 29.7829H7.256V29.419C7.256 28.0609 6.11956 26.956 4.72256 26.956H2.53344C1.13654 26.956 0 28.0609 0 29.419V39.4152C0 39.8019 0.322377 40.1152 0.71996 40.1152C1.11754 40.1152 1.43992 39.8018 1.43992 39.4152V29.419C1.43992 28.833 1.93042 28.3561 2.53334 28.3561H4.72246C5.32538 28.3561 5.81588 28.833 5.81588 29.419V30.483V44.1161V45.1696C5.81588 45.7557 5.32538 46.2326 4.72246 46.2326H2.53344C1.93052 46.2326 1.44002 45.7557 1.44002 45.1696V43.7961C1.44002 43.4095 1.11764 43.0962 0.720058 43.0962C0.322476 43.0962 9.84756e-05 43.4096 9.84756e-05 43.7961V45.1696C9.84756e-05 46.5277 1.13654 47.6326 2.53354 47.6326H4.72265C6.11956 47.6326 7.2561 46.5276 7.2561 45.1696V45.1297L17.226 48.8003C17.2455 48.8074 17.2652 48.8138 17.2853 48.8193C17.7234 48.9396 18.1612 49 18.5951 49C18.831 49 19.0656 48.9821 19.2985 48.9464C19.2987 48.9464 19.2992 48.9463 19.2999 48.9462L34.0162 46.8838C34.0198 46.8833 34.0234 46.8828 34.027 46.8822C35.285 46.6869 36.4716 46.17 37.4589 45.3872C37.4678 45.3801 37.4767 45.3728 37.4852 45.3652L46.9969 37.0479C48.1178 36.0801 48.3272 34.4416 47.4839 33.2365ZM22.1072 30.7175V28.3626V24.9932V22.6381V19.2688V16.9137V13.3246V3.63318H39.9232V34.683L33.9326 38.5809L31.9241 38.4713L31.8729 37.9714C31.8354 37.6041 31.7508 37.2509 31.6248 36.9176C31.5827 36.8065 31.5362 36.6976 31.4853 36.591C31.4088 36.4313 31.3226 36.277 31.2272 36.1289C31.0017 35.7789 30.7251 35.4636 30.4071 35.1921H32.4306C32.9333 35.1921 33.3423 34.7945 33.3423 34.3056V31.0034C33.3423 30.5147 32.9333 30.117 32.4306 30.117H29.6C29.0973 30.117 28.6883 30.5147 28.6883 31.0034V34.29C28.5064 34.2411 28.3197 34.203 28.1286 34.1766C28.1225 34.1758 28.1163 34.175 28.1101 34.1743L27.7144 34.13V31.0033C27.7144 30.5146 27.3054 30.1168 26.8026 30.1168H23.9721C23.4694 30.1168 23.0604 30.5145 23.0604 31.0033V33.6091L22.1072 33.5024V30.7175ZM30.1282 33.7921V31.5171H31.9021V33.7921H30.1282ZM26.2743 31.517V33.7921H24.6937L24.5003 33.7705V31.517H26.2743ZM12.9481 11.2058H17.7488V12.6245H12.9481V11.2058ZM10.7474 14.0245H12.2281H18.4687H20.6672V16.2136H12.5358C12.0703 16.2136 11.6916 16.5818 11.6916 17.0344V19.148C11.6916 19.6006 12.0703 19.9687 12.5358 19.9687H20.6672V21.9381H12.5358C12.0703 21.9381 11.6916 22.3063 11.6916 22.7589V24.8724C11.6916 25.325 12.0703 25.6931 12.5358 25.6931H20.6672V27.6625H12.5358C12.0703 27.6625 11.6916 28.0307 11.6916 28.4833V30.1545C11.5694 30.1269 11.4466 30.101 11.3234 30.0763C11.2653 30.0647 11.2072 30.0536 11.1489 30.0426C11.0808 30.0297 11.0124 30.0177 10.944 30.0058C10.8784 29.9943 10.8131 29.9821 10.7473 29.9715V14.0245H10.7474ZM20.6672 17.6137V18.5687H13.1316V17.6137H20.6672ZM20.6672 23.3381V24.2931H13.1316V23.3381H20.6672ZM13.1316 30.0176V29.0626H20.6672V30.0176H13.1316ZM20.6672 31.4176V33.3413L20.4454 33.3165C19.9802 33.2521 19.5219 33.1634 19.0708 33.0523C18.1962 32.8369 17.3494 32.5349 16.5378 32.147C16.4299 32.0954 16.3229 32.042 16.2163 31.9873C16.0423 31.8982 15.8698 31.8057 15.6992 31.7086C15.5736 31.6372 15.4468 31.5684 15.3196 31.5009C15.292 31.4862 15.2644 31.4718 15.2368 31.4574C15.2115 31.4442 15.1863 31.4306 15.161 31.4176H20.6672ZM46.0373 36.004L36.5356 44.3125C35.7488 44.9326 34.8052 45.3426 33.805 45.4988L19.0887 47.5612C19.0854 47.5617 19.072 47.5637 19.0689 47.5642C18.6286 47.6318 18.17 47.6034 17.7054 47.4798L7.256 43.6326V31.183H8.39067C8.91277 31.183 9.43281 31.2153 9.94851 31.2758C10.0533 31.288 10.1576 31.3015 10.2617 31.3162C10.2769 31.3183 10.292 31.3206 10.307 31.3228C10.5701 31.3607 10.8309 31.4067 11.0895 31.4595C11.1699 31.4761 11.2504 31.4927 11.3306 31.5107C11.3706 31.5197 11.4105 31.5292 11.4504 31.5385C11.5549 31.563 11.6591 31.5884 11.763 31.6155C11.7817 31.6204 11.8005 31.6251 11.8192 31.6301C12.6327 31.8457 13.4247 32.1381 14.183 32.5037C14.2057 32.5147 14.2282 32.5258 14.2507 32.5369C14.3472 32.584 14.443 32.6327 14.5383 32.6821C14.5673 32.6973 14.5965 32.7121 14.6254 32.7274C14.7401 32.7882 14.8542 32.8502 14.9671 32.9144C14.9687 32.9154 14.9704 32.9162 14.9721 32.9172C15.2781 33.0912 15.5892 33.2538 15.9051 33.4047C17.2737 34.0587 18.7317 34.4949 20.2527 34.7041C20.2589 34.7049 20.265 34.7057 20.2712 34.7064L21.3049 34.8221L22.1467 34.9163L24.0881 35.1337L24.5699 35.1876C24.5699 35.1876 24.5701 35.1876 24.5702 35.1876L27.9353 35.5643C29.2764 35.7527 30.3057 36.7983 30.4399 38.11L30.4649 38.354L16.9693 37.0752C16.5723 37.0376 16.2213 37.3192 16.1828 37.7041C16.1443 38.0889 16.4338 38.4312 16.8296 38.4687L31.1364 39.8245C31.1665 39.8299 31.197 39.8342 31.2282 39.8358L34.0924 39.9921C34.1058 39.9929 34.1193 39.9932 34.1327 39.9932C34.147 39.9932 34.161 39.991 34.1752 39.9901C34.1916 39.9892 34.2078 39.9886 34.224 39.9866C34.2446 39.984 34.2649 39.9796 34.2853 39.9753C34.3012 39.9719 34.3173 39.9693 34.3328 39.9649C34.3545 39.9587 34.3755 39.9505 34.3964 39.9424C34.4097 39.9373 34.4233 39.9333 34.4362 39.9274C34.4697 39.9123 34.5021 39.8949 34.5332 39.8748L41.0436 35.6387L41.0437 35.6386L44.1448 33.6208C44.8509 33.1595 45.8148 33.3405 46.2933 34.0243C46.7307 34.6492 46.6222 35.4991 46.0373 36.004Z" fill="black"/>
</svg>
