<svg width="18" height="18" viewBox="0 0 18 18" fill="none" xmlns="http://www.w3.org/2000/svg">
<g clip-path="url(#clip0)">
<path d="M12.2351 5.45444C12.0406 5.45444 11.8828 5.61154 11.8828 5.80586C11.8828 6.00005 12.0406 6.15743 12.2351 6.15743C12.4299 6.15743 12.5873 6.00005 12.5873 5.80586C12.5873 5.61154 12.4299 5.45444 12.2351 5.45444Z" fill="#969696" fill-opacity="0.83"/>
<path d="M5.83492 11.842C5.64008 11.842 5.48267 11.9996 5.48267 12.1936C5.48267 12.3881 5.64008 12.5452 5.83492 12.5452C6.02934 12.5452 6.18717 12.3881 6.18717 12.1936C6.18717 11.9996 6.02934 11.842 5.83492 11.842Z" fill="#969696" fill-opacity="0.83"/>
<path d="M17.615 2.1628C17.4962 2.1352 17.3712 2.17104 17.2854 2.25756L15.825 3.72657H15.1249L14.3543 2.92965V2.22116L15.7937 0.763141C15.8788 0.676898 15.9135 0.55289 15.8853 0.434924C15.8572 0.317096 15.7703 0.222064 15.6552 0.183337C15.2936 0.0616636 14.9152 2.83578e-06 14.5304 2.83578e-06C13.3831 2.83578e-06 12.3408 0.533939 11.6707 1.46489C11.0435 2.33638 10.8502 3.40439 11.1272 4.42653L8.53249 7.01615L4.20971 2.69193V1.84324C4.20971 1.71978 4.14476 1.60524 4.03868 1.5418L1.54802 0.050128C1.40932 -0.0329562 1.23195 -0.0111208 1.11775 0.103L0.12154 1.09713C0.00733376 1.21125 -0.0145443 1.38826 0.0685648 1.52669L1.56288 4.01249C1.62645 4.11837 1.74107 4.18305 1.86477 4.18319L2.71485 4.18346L7.03803 8.50768L4.45326 11.0874C3.42912 10.8111 2.35847 11.0043 1.48486 11.6307C0.552634 12.2991 0.0180664 13.3391 0.0180664 14.4841C0.0180664 14.8681 0.0798479 15.2459 0.20176 15.6066C0.2407 15.7221 0.336881 15.8093 0.455765 15.8368C0.574787 15.8644 0.699589 15.8286 0.785587 15.742L2.24578 14.2732H2.94973L3.75178 15.0737V15.7762L2.28004 17.2336C2.19335 17.3194 2.15744 17.444 2.1851 17.5628C2.21262 17.6814 2.29999 17.7774 2.41571 17.8163C2.77718 17.9379 3.15571 17.9996 3.54043 17.9996C4.68773 17.9996 5.72962 17.4659 6.39944 16.5355C7.02703 15.6636 7.22063 14.5952 6.94378 13.5731L9.01972 11.5012L9.49526 12.0167L9.27703 12.2344C9.13943 12.3717 9.13943 12.5943 9.27703 12.7317C9.41463 12.8688 9.63753 12.8688 9.77527 12.7317L9.97286 12.5344L14.4346 17.3715C14.4379 17.375 14.4414 17.3785 14.4448 17.3819C15.2704 18.2059 16.608 18.2061 17.434 17.3818C18.2576 16.5593 18.2576 15.221 17.434 14.3986C17.4304 14.395 17.4267 14.3916 17.423 14.3881L12.5689 9.9436L12.7643 9.74859C12.9019 9.6114 12.9019 9.38879 12.7643 9.25146C12.6267 9.11413 12.4038 9.11413 12.2661 9.25146L12.0493 9.46789L11.5318 8.99383L13.6178 6.91192C13.9144 6.99102 14.2204 7.03112 14.5304 7.03112C16.4727 7.03112 18.0527 5.45403 18.0527 3.51563C18.0527 3.13152 17.991 2.75386 17.8691 2.39296C17.8301 2.27747 17.7339 2.19027 17.615 2.1628ZM3.1103 3.58361C3.04426 3.51755 2.95468 3.48391 2.86111 3.48391L2.06442 3.48363L0.814208 1.40035L1.42143 0.794315L3.50521 2.04236V2.8375C3.50521 2.93061 3.54222 3.01987 3.60813 3.08579L8.03438 7.51342L7.53614 8.01055L3.1103 3.58361ZM12.0703 10.4413L16.9408 14.9008C17.4849 15.4495 17.4832 16.3381 16.9357 16.8848C16.387 17.4324 15.4987 17.4341 14.9477 16.8896L10.4714 12.0368L12.0703 10.4413ZM11.5507 9.96543L9.99377 11.519L9.51824 11.0035L11.0332 9.49137L11.5507 9.96543ZM14.5304 6.32799C14.2223 6.32799 13.9193 6.27869 13.6301 6.18146C13.5033 6.13903 13.3633 6.17171 13.2686 6.26606C11.5027 8.02854 7.69754 11.8261 6.29638 13.2247C6.20171 13.3191 6.16883 13.4589 6.21162 13.5856C6.50443 14.4533 6.36436 15.3789 5.82717 16.1253C5.2915 16.8695 4.45794 17.2965 3.54043 17.2965C3.43737 17.2965 3.33486 17.2908 3.23332 17.28L4.35212 16.172C4.41872 16.1061 4.45629 16.0163 4.45629 15.9225V14.928C4.45629 14.8347 4.41913 14.7453 4.35309 14.6794L3.34463 13.6729C3.27859 13.607 3.18901 13.5699 3.09558 13.5699H2.0991C2.00512 13.5699 1.91513 13.6074 1.84894 13.6739L0.738942 14.7905C0.727934 14.6891 0.72243 14.5868 0.72243 14.484C0.72243 13.5681 1.15008 12.7363 1.89586 12.2017C2.64357 11.6656 3.57112 11.5256 4.44074 11.818C4.56746 11.8607 4.70754 11.8279 4.80221 11.7334C4.82161 11.7142 11.7695 4.77974 11.7744 4.7748C11.8691 4.68032 11.9018 4.54065 11.8592 4.41404C11.5662 3.54625 11.706 2.62093 12.2428 1.8751C12.7789 1.13022 13.6126 0.703128 14.5302 0.703128C14.6365 0.703128 14.742 0.709033 14.8466 0.720569L13.751 1.83033C13.6861 1.89611 13.6498 1.98468 13.6498 2.07697V3.07151C13.6498 3.16269 13.6851 3.25017 13.7485 3.31568L14.7218 4.32216C14.7881 4.39083 14.8796 4.42956 14.9752 4.42956H15.9717C16.0656 4.42956 16.1555 4.3922 16.2217 4.3256L17.3317 3.20911C17.3427 3.31046 17.3482 3.41277 17.3482 3.51563C17.3482 5.06635 16.0841 6.32799 14.5304 6.32799Z" fill="#969696" fill-opacity="0.83"/>
<path d="M10.9898 6.55157L6.58185 10.9509C6.44439 11.0881 6.44439 11.3107 6.58185 11.448C6.71945 11.5854 6.9425 11.5854 7.0801 11.448L11.488 7.04871C11.6256 6.91151 11.6256 6.6889 11.488 6.55157C11.3504 6.41425 11.1274 6.41425 10.9898 6.55157Z" fill="#969696" fill-opacity="0.83"/>
<path d="M15.441 15.8906C15.5786 16.0276 15.8016 16.0276 15.9392 15.8898C16.0765 15.7523 16.0761 15.5297 15.9384 15.3927L12.7633 12.234C12.6256 12.0969 12.4024 12.0973 12.2652 12.2348C12.1277 12.3724 12.1282 12.5949 12.2659 12.7319L15.441 15.8906Z" fill="#969696" fill-opacity="0.83"/>
</g>
<defs>
<clipPath id="clip0">
<rect width="18" height="18" fill="white"/>
</clipPath>
</defs>
</svg>
