<svg width="16" height="13" viewBox="0 0 16 13" fill="none" xmlns="http://www.w3.org/2000/svg">
<path opacity="0.3" d="M13.6126 1.7239C13.6126 1.7239 12.848 0.801745 11.5109 0.845111C9.92794 0.897405 8.45766 1.86165 8.62671 4.3335C8.62671 4.3335 6.24199 5.05668 2.53171 1.54279C2.53171 1.54279 1.33807 3.48149 3.44871 5.30795C3.44871 5.30795 2.85573 5.47121 2.06424 5.03245C2.06424 5.03245 1.64032 6.66887 4.35676 7.90989C4.35676 7.90989 3.43975 8.16881 3.02479 7.90989C3.02479 7.90989 3.26685 9.64962 5.70665 10.0641C5.70665 10.0641 4.45281 11.3052 1.48535 11.2707C1.48535 11.2707 7.65592 14.4147 11.9336 10.3741C14.9881 7.48899 14.5642 3.6371 14.5642 3.6371C14.5642 3.6371 15.4633 3.3616 15.9999 2.38842C15.9999 2.38842 14.9791 2.70728 14.3913 2.65499C14.3913 2.65499 15.5158 1.95604 15.6029 1.12954C15.6029 1.12954 14.6423 1.80936 13.6126 1.7239Z" fill="#555253"/>
<path d="M12.2999 1.06924C12.2999 1.06924 11.5353 0.147082 10.1982 0.190448C8.61521 0.242742 7.14492 1.20699 7.31398 3.67883C7.31398 3.67883 4.92926 4.40202 1.21897 0.888125C1.21897 0.888125 0.0253213 2.82683 2.13597 4.65329C2.13597 4.65329 1.54299 4.81654 0.751498 4.37779C0.751498 4.37779 0.327578 6.0142 3.04402 7.25523C3.04402 7.25523 2.12701 7.51414 1.71205 7.25523C1.71205 7.25523 1.95411 8.99496 4.39391 9.40948C4.39391 9.40948 3.14007 10.6505 0.172607 10.6161C0.172607 10.6161 6.34318 13.7601 10.6208 9.71942C13.6754 6.83432 13.2515 2.98243 13.2515 2.98243C13.2515 2.98243 14.1505 2.70693 14.6872 1.73376C14.6872 1.73376 13.6664 2.05262 13.0786 2.00033C13.0786 2.00033 14.2031 1.30137 14.2901 0.474876C14.2901 0.474876 13.3296 1.15597 12.2999 1.06924Z" fill="#969696" fill-opacity="0.83"/>
</svg>
