<svg width="48" height="49" viewBox="0 0 48 49" fill="none" xmlns="http://www.w3.org/2000/svg">
<path d="M34.0695 11.8712H31.7224V7.74414H34.0695C34.3684 7.74414 34.6107 7.96158 34.6107 8.22974V11.3855C34.6107 11.6538 34.3684 11.8712 34.0695 11.8712Z" fill="#EBF4FF"/>
<path d="M7.32629 11.8712H9.67342V7.74414H7.32629C7.02746 7.74414 6.78516 7.96158 6.78516 8.22974V11.3855C6.78516 11.6538 7.02746 11.8712 7.32629 11.8712Z" fill="#EBF4FF"/>
<path d="M30.3124 7.7442H10.7679V2.05494C10.7679 0.919994 11.7932 0 13.0579 0H28.0224C29.2872 0 30.3124 0.919994 30.3124 2.05494V7.7442Z" fill="#CE9775"/>
<path d="M28.0224 0H24.7754C26.0401 0 27.0654 0.919994 27.0654 2.05494V7.7442H30.3124V2.05494C30.3124 0.919994 29.2872 0 28.0224 0V0Z" fill="#C6855B"/>
<path d="M40.3136 49C40.9114 49 41.396 48.5652 41.396 48.0288V38.5536C41.396 35.9829 39.564 33.6991 36.8441 32.8792L34.725 32.2405L33.0061 32.4516L31.2871 31.2042L27.1722 29.9639C26.2655 29.6907 25.6549 28.9294 25.6549 28.0724V24.8228H15.7413V28.0724C15.7413 28.9294 15.1307 29.6906 14.2241 29.9639L10.1091 31.2042L8.24458 33.2231L6.67098 32.2405L4.55187 32.8792C1.83201 33.699 0 35.9828 0 38.5536V48.0288C0 48.5652 0.484612 49 1.08238 49H6.67098L20.6979 47.5432L34.7249 49H40.3136Z" fill="#BDD8FC"/>
<path d="M36.844 32.8802L34.7249 32.2415L33.0059 32.1265L31.287 31.2052L27.172 29.9649C26.2654 29.6916 25.6547 28.9304 25.6547 28.0734V24.8237H22.4077V29.5303C22.4077 30.3872 23.0184 31.1485 23.925 31.4218L33.597 34.3371C36.3168 35.1569 38.1488 37.4408 38.1488 40.0114V49.0009H40.3135C40.9113 49.0009 41.3959 48.5661 41.3959 48.0296V38.5545C41.3959 35.9838 39.5639 33.7 36.844 32.8802Z" fill="#9DC7FB"/>
<path d="M20.698 33.5183C23.8307 33.5183 26.6496 32.3156 28.6115 30.3978L25.5486 29.964C24.642 29.6907 24.0313 28.9294 24.0313 28.0726V24.8229H15.7413V28.0726C15.7413 28.9294 15.1306 29.6907 14.224 29.964L12.7845 30.3978C14.7463 32.3156 17.5653 33.5183 20.698 33.5183Z" fill="#F1CCBD"/>
<path d="M25.6547 28.0734V24.8237H22.4077V29.5303C22.4077 30.3872 23.0184 31.1485 23.925 31.4218L26.263 32.1265C27.1349 31.6517 27.9257 31.069 28.6115 30.3987L27.172 29.9649C26.5592 29.7807 26.0692 29.3669 25.824 28.8369C25.7123 28.5953 25.6547 28.3383 25.6547 28.0734Z" fill="#EAAD9C"/>
<path d="M20.7076 28.6678H20.6884C14.605 28.6678 9.67358 24.2424 9.67358 18.7835V6.48794C9.67358 4.86003 11.1443 3.54028 12.9584 3.54028H28.4377C30.2518 3.54028 31.7224 4.86003 31.7224 6.48794V18.7836C31.7224 24.2425 26.7909 28.6678 20.7076 28.6678Z" fill="#4F6D8F"/>
<path d="M28.4376 3.53931H25.1905C27.0046 3.53931 28.4753 4.85905 28.4753 6.48696V18.7826C28.4753 23.7495 24.3926 27.8602 19.0745 28.5611C19.6013 28.6305 20.1401 28.667 20.6884 28.667H20.7076C26.7909 28.667 31.7224 24.2416 31.7224 18.7827V6.48696C31.7225 4.85905 30.2518 3.53931 28.4376 3.53931Z" fill="#455E7E"/>
<path d="M34.7249 49V32.2405L31.287 31.2042V36.0576C31.287 37.1915 30.2609 38.1107 28.995 38.1107H12.4009C11.1351 38.1107 10.1089 37.1915 10.1089 36.0576V31.2042L6.67102 32.2405V49H34.7249Z" fill="#EBF4FF"/>
<path d="M31.287 33.6399L33.597 34.3362C33.993 34.4556 34.3694 34.6069 34.7249 34.7846V32.2406L34.4476 32.1571L31.2869 31.2043V33.6399H31.287Z" fill="#DCEAFC"/>
<path d="M27.8264 16.556H13.5694C13.3164 16.556 13.1115 16.3719 13.1115 16.145V9.77789C13.1115 9.55088 13.3165 9.36694 13.5694 9.36694H27.8264C28.0794 9.36694 28.2844 9.55098 28.2844 9.77789V16.145C28.2844 16.3719 28.0794 16.556 27.8264 16.556Z" fill="#EBF4FF"/>
<path d="M27.8265 9.36682H24.5795C24.8324 9.36682 25.0374 9.55086 25.0374 9.77777V16.1449C25.0374 16.3719 24.8323 16.5558 24.5795 16.5558H27.8265C28.0795 16.5558 28.2844 16.3718 28.2844 16.1449V9.77777C28.2844 9.55086 28.0795 9.36682 27.8265 9.36682Z" fill="#DCEAFC"/>
<path d="M41.7725 27.3744C41.3242 27.3744 40.9608 27.0483 40.9608 26.6459V18.5725C40.9608 17.3675 42.0532 16.3872 43.396 16.3872H44.0538C44.5022 16.3872 44.8656 16.7133 44.8656 17.1156C44.8656 17.5179 44.5022 17.844 44.0538 17.844H43.396C42.9484 17.844 42.5843 18.1707 42.5843 18.5724V26.6458C42.5842 27.0482 42.2208 27.3744 41.7725 27.3744Z" fill="#EBF4FF"/>
<path d="M43.396 45.0203H40.1489V28.103C40.1489 27.2984 40.8758 26.6461 41.7724 26.6461C42.669 26.6461 43.396 27.2984 43.396 28.103V45.0203Z" fill="#4F6D8F"/>
<path d="M47.8892 16.9242C48.0368 17.0177 48.0368 17.2137 47.8892 17.3072C47.3082 17.6752 46.0183 18.4449 45.3958 18.4449C44.5778 18.4449 43.9146 17.8499 43.9146 17.1157C43.9146 16.3817 44.5777 15.7865 45.3958 15.7865C46.0182 15.7865 47.3082 16.5562 47.8892 16.9242Z" fill="#F6DF7F"/>
<path d="M43.6397 48.2715H38.9079C38.1755 48.2715 37.5818 47.7387 37.5818 47.0815V41.2195C37.5818 40.5623 38.1755 40.0295 38.9079 40.0295H43.6397C45.3753 40.0295 46.7824 41.2922 46.7824 42.8496V45.4514C46.7824 47.009 45.3753 48.2715 43.6397 48.2715Z" fill="#F1CCBD"/>
<path d="M43.6398 40.0297H40.3928C42.1284 40.0297 43.5354 41.2923 43.5354 42.8497V45.4515C43.5354 47.009 42.1284 48.2716 40.3928 48.2716H43.6398C45.3754 48.2716 46.7825 47.009 46.7825 45.4515V42.8497C46.7825 41.2922 45.3754 40.0297 43.6398 40.0297Z" fill="#EAAD9C"/>
<path d="M14.2039 23.2236C14.6522 23.2236 15.0156 22.8975 15.0156 22.4952C15.0156 22.093 14.6522 21.7668 14.2039 21.7668C13.7556 21.7668 13.3922 22.093 13.3922 22.4952C13.3922 22.8975 13.7556 23.2236 14.2039 23.2236Z" fill="#405971"/>
<path d="M27.192 23.2236C27.6402 23.2236 28.0037 22.8975 28.0037 22.4952C28.0037 22.093 27.6402 21.7668 27.192 21.7668C26.7437 21.7668 26.3802 22.093 26.3802 22.4952C26.3802 22.8975 26.7437 23.2236 27.192 23.2236Z" fill="#405971"/>
<path d="M12.9206 7.18152C13.3689 7.18152 13.7323 6.85541 13.7323 6.45313C13.7323 6.05085 13.3689 5.72473 12.9206 5.72473C12.4723 5.72473 12.1089 6.05085 12.1089 6.45313C12.1089 6.85541 12.4723 7.18152 12.9206 7.18152Z" fill="#405971"/>
<path d="M28.4754 7.18152C28.9237 7.18152 29.2871 6.85541 29.2871 6.45313C29.2871 6.05085 28.9237 5.72473 28.4754 5.72473C28.0271 5.72473 27.6637 6.05085 27.6637 6.45313C27.6637 6.85541 28.0271 7.18152 28.4754 7.18152Z" fill="#405971"/>
</svg>
