<svg width="6" height="8" viewBox="0 0 6 8" fill="none" xmlns="http://www.w3.org/2000/svg">
<path d="M2.73282 0C1.21724 0 0 1.28958 0 2.86712C0 4.44466 2.73282 7.51211 2.73282 7.51211C2.73282 7.51211 5.46565 4.45718 5.46565 2.86712C5.46565 1.27706 4.24841 0 2.73282 0ZM2.73282 7.1365C2.48222 6.84854 2.0168 6.28513 1.55138 5.62156C0.692156 4.4071 0.238675 3.45557 0.238675 2.8546C0.238675 1.41478 1.36045 0.237883 2.73282 0.237883C4.1052 0.237883 5.22697 1.4273 5.22697 2.86712C5.22697 3.45557 4.77349 4.41962 3.91426 5.63408C3.44885 6.28513 2.98343 6.84854 2.73282 7.1365Z" fill="white"/>
<path d="M2.73281 1.37695C2.01679 1.37695 1.44397 1.97792 1.44397 2.72914C1.44397 3.48035 2.01679 4.08132 2.73281 4.08132C3.44883 4.08132 4.02165 3.48035 4.02165 2.72914C4.02165 1.99044 3.44883 1.37695 2.73281 1.37695ZM3.4727 3.51791C3.28176 3.71823 3.01922 3.84343 2.73281 3.84343C2.4464 3.84343 2.18386 3.71823 1.99292 3.51791C1.80198 3.31759 1.68264 3.04214 1.68264 2.74166C1.68264 2.44117 1.80198 2.16573 1.99292 1.9654C2.18386 1.76508 2.4464 1.63988 2.73281 1.63988C3.01922 1.63988 3.28176 1.76508 3.4727 1.9654C3.66364 2.16573 3.78297 2.44117 3.78297 2.74166C3.78297 3.04214 3.66364 3.31759 3.4727 3.51791Z" fill="white"/>
</svg>
