<svg width="48" height="49" viewBox="0 0 48 49" fill="none" xmlns="http://www.w3.org/2000/svg">
<path d="M43.7 3.67505H4.40002V44.6104H43.7V3.67505Z" fill="#415A6B"/>
<path d="M22.8 6.22717H6.90002V42.1605H22.8V6.22717Z" fill="#8AD7F8"/>
<path d="M41.1 6.22717H25.2V42.1605H41.1V6.22717Z" fill="#8AD7F8"/>
<path d="M46.2 3.675H1.8C0.799969 3.675 0 2.85837 0 1.8375V1.73538C0 0.816635 0.799969 0 1.8 0H46.2C47.2 0 48 0.816635 48 1.8375V1.93962C48 2.85837 47.2 3.675 46.2 3.675Z" fill="#FFD15C"/>
<path d="M33.9 3.67505C34.2 8.47293 35.6 28.6854 40.8 31.7479C37.7 34.5042 36 43.1813 36 49H46.0001V3.67505" fill="#F3705A"/>
<path d="M46 32.5647H40.1C39.7 32.5647 39.3 32.1563 39.3 31.748C39.3 31.3397 39.7001 30.9314 40.1 30.9314H46V32.5647Z" fill="#F05540"/>
<path d="M15.1001 3.67505C14.8001 8.47293 12.4001 28.6854 7.20003 31.7479C10.3001 34.5042 12 43.1813 12 49H2V3.67505" fill="#F3705A"/>
<path d="M1.6875 32.5454H7.58747C7.9875 32.5454 8.38744 32.137 8.38744 31.7287C8.38744 31.3204 7.98741 30.9121 7.58747 30.9121H1.6875V32.5454Z" fill="#F05540"/>
</svg>
