<svg width="32" height="32" viewBox="0 0 32 32" fill="none" xmlns="http://www.w3.org/2000/svg">
<g clip-path="url(#clip0)">
<path d="M27.3111 4.68834C21.06 -1.56293 10.941 -1.56393 4.68885 4.68834C-1.56248 10.9396 -1.56342 21.0585 4.68885 27.3107C10.94 33.562 21.059 33.5629 27.3111 27.3107C33.5625 21.0594 33.5633 10.9405 27.3111 4.68834ZM26.6426 25.0304C25.8952 24.3621 25.0957 23.7706 24.253 23.2609C24.81 21.3369 25.14 19.2197 25.218 17.0189H29.9209C29.7083 19.9854 28.5685 22.7682 26.6426 25.0304ZM2.07898 17.0189H6.78195C6.85995 19.2197 7.18993 21.3369 7.74692 23.2609C6.90423 23.7706 6.10476 24.3621 5.35737 25.0304C3.43144 22.7682 2.29168 19.9854 2.07898 17.0189ZM5.35743 6.9686C6.10482 7.63693 6.90429 8.22839 7.74698 8.7381C7.19 10.6621 6.86002 12.7793 6.78202 14.9801H2.07898C2.29168 12.0137 3.43144 9.23088 5.35743 6.9686ZM14.9806 8.9488C13.3181 8.8299 11.7151 8.42042 10.229 7.74491C11.0933 5.51929 12.6866 2.8499 14.9806 2.18838V8.9488ZM14.9806 10.9914V14.9802H8.8216C8.89217 13.1185 9.15595 11.3307 9.59466 9.695C11.2835 10.4333 13.0997 10.8742 14.9806 10.9914ZM14.9806 17.0189V21.0077C13.0997 21.1249 11.2835 21.5658 9.59466 22.3041C9.15595 20.6684 8.89217 18.8806 8.8216 17.0189H14.9806ZM14.9806 23.0503V29.8106C12.6868 29.1491 11.0934 26.48 10.229 24.2542C11.7151 23.5787 13.3181 23.1692 14.9806 23.0503ZM17.0193 23.0503C18.6819 23.1692 20.2849 23.5787 21.771 24.2542C20.9066 26.4799 19.3134 29.1491 17.0193 29.8106V23.0503ZM17.0193 21.0077V17.0189H23.1784C23.1078 18.8806 22.844 20.6684 22.4053 22.3041C20.7165 21.5658 18.9002 21.1249 17.0193 21.0077ZM17.0193 14.9802V10.9914C18.9002 10.8742 20.7165 10.4333 22.4053 9.695C22.844 11.3307 23.1078 13.1185 23.1784 14.9802H17.0193ZM17.0193 8.9488V2.18844C19.3134 2.84997 20.9067 5.51935 21.771 7.74497C20.2849 8.42042 18.6819 8.8299 17.0193 8.9488ZM21.5981 3.20617C22.903 3.77758 24.1204 4.55239 25.2117 5.51373C24.6922 5.97173 24.1441 6.38702 23.5717 6.7584C23.0635 5.49993 22.4142 4.27693 21.5981 3.20617ZM8.42817 6.7584C7.85583 6.38702 7.30778 5.97173 6.78826 5.51373C7.87956 4.55239 9.09694 3.77758 10.4018 3.20617C9.58573 4.27705 8.93645 5.50005 8.42817 6.7584ZM8.42824 25.2407C8.93645 26.4991 9.58585 27.7222 10.4019 28.7929C9.097 28.2215 7.87962 27.4467 6.78832 26.4854C7.30778 26.0274 7.85589 25.6121 8.42824 25.2407ZM23.5717 25.2407C24.1441 25.6121 24.6922 26.0274 25.2117 26.4853C24.1204 27.4466 22.903 28.2214 21.5981 28.7928C22.4141 27.7222 23.0635 26.4992 23.5717 25.2407ZM25.218 14.9802C25.14 12.7794 24.81 10.6621 24.2531 8.73816C25.0958 8.22845 25.8952 7.63699 26.6426 6.96867C28.5685 9.23088 29.7083 12.0137 29.921 14.9802H25.218Z" fill="white"/>
</g>
<defs>
<clipPath id="clip0">
<rect width="32" height="32" fill="white"/>
</clipPath>
</defs>
</svg>
